<?xml version="1.0" encoding="UTF-8" standalone="no"?>
<!DOCTYPE svg PUBLIC "-//W3C//DTD SVG 1.1//EN"
 "http://www.w3.org/Graphics/SVG/1.1/DTD/svg11.dtd">
<!-- Generated by graphviz version 2.36.0 (20140111.2315)
 -->
<!-- Title: UML Pages: 1 -->
<svg width="670pt" height="859pt"
 viewBox="0.00 0.00 670.04 859.00" xmlns="http://www.w3.org/2000/svg" xmlns:xlink="http://www.w3.org/1999/xlink">
<g id="graph0" class="graph" transform="scale(1 1) rotate(0) translate(4 855)">
<title>UML</title>
<polygon fill="white" stroke="none" points="-4,4 -4,-855 666.038,-855 666.038,4 -4,4"/>
<g id="clust1" class="cluster"><title>cluster_variant_proto</title>
<g id="a_clust1"><a xlink:href="https://github.com/bmeg/importers/blob/master/converters/variant.proto" xlink:title="variant_proto">
<path fill="lightgrey" stroke="lightgrey" d="M26.038,-8C26.038,-8 642.038,-8 642.038,-8 648.038,-8 654.038,-14 654.038,-20 654.038,-20 654.038,-831 654.038,-831 654.038,-837 648.038,-843 642.038,-843 642.038,-843 26.038,-843 26.038,-843 20.038,-843 14.038,-837 14.038,-831 14.038,-831 14.038,-20 14.038,-20 14.038,-14 20.038,-8 26.038,-8"/>
<text text-anchor="middle" x="334.038" y="-827.8" font-family="Times,serif" font-size="14.00">variant_proto</text>
</a>
</g>
</g>
<!-- IndividualList -->
<g id="node1" class="node"><title>IndividualList</title>
<polygon fill="#002060" stroke="none" points="512.038,-746 512.038,-808 638.038,-808 638.038,-746 512.038,-746"/>
<polygon fill="#79a6ff" stroke="none" points="512.038,-771 512.038,-808 638.038,-808 638.038,-771 512.038,-771"/>
<polygon fill="none" stroke="#002060" stroke-width="3" points="513.538,-772.5 513.538,-806.5 636.538,-806.5 636.538,-772.5 513.538,-772.5"/>
<text text-anchor="start" x="519.538" y="-784.5" font-family="Times,serif" font-size="20.00" fill="white">IndividualList</text>
<polygon fill="none" stroke="#002060" points="512.038,-746 512.038,-771 615.038,-771 615.038,-746 512.038,-746"/>
<text text-anchor="start" x="517.038" y="-754.8" font-family="Times,serif" font-size="14.00" fill="white">&#45; individuals</text>
</g>
<!-- Individual -->
<g id="node3" class="node"><title>Individual</title>
<polygon fill="#002060" stroke="none" points="466.038,-614.5 466.038,-701.5 608.038,-701.5 608.038,-614.5 466.038,-614.5"/>
<polygon fill="#79a6ff" stroke="none" points="466.038,-664 466.038,-701 608.038,-701 608.038,-664 466.038,-664"/>
<polygon fill="none" stroke="#002060" stroke-width="3" points="467.538,-665.5 467.538,-699.5 606.538,-699.5 606.538,-665.5 467.538,-665.5"/>
<text text-anchor="start" x="496.538" y="-677.5" font-family="Times,serif" font-size="20.00" fill="white">Individual</text>
<polygon fill="none" stroke="#002060" points="466.038,-639 466.038,-664 521.038,-664 521.038,-639 466.038,-639"/>
<text text-anchor="start" x="471.038" y="-647.8" font-family="Times,serif" font-size="14.00" fill="white">&#45; name</text>
<polygon fill="none" stroke="#002060" points="521.038,-639 521.038,-664 608.038,-664 608.038,-639 521.038,-639"/>
<text text-anchor="start" x="526.038" y="-647.8" font-family="Times,serif" font-size="14.00" fill="white">&#45; bioSamples</text>
<polygon fill="none" stroke="#002060" points="466.038,-614 466.038,-639 521.038,-639 521.038,-614 466.038,-614"/>
<text text-anchor="start" x="471.038" y="-622.8" font-family="Times,serif" font-size="14.00" fill="white">&#45; source</text>
<polygon fill="none" stroke="#002060" points="521.038,-614 521.038,-639 608.038,-639 608.038,-614 521.038,-614"/>
<text text-anchor="start" x="526.038" y="-622.8" font-family="Times,serif" font-size="14.00" fill="white">&#45; observations</text>
</g>
<!-- IndividualList&#45;&gt;Individual -->
<g id="edge4" class="edge"><title>IndividualList:individuals:w&#45;&gt;Individual</title>
<path fill="none" stroke="#c55a11" stroke-width="2" d="M499.529,-754.208C491.266,-745.945 498.309,-725.461 508.431,-705.601"/>
<polygon fill="none" stroke="#c55a11" stroke-width="2" points="499.641,-754.245 506.591,-752.323 511.038,-758 504.088,-759.922 499.641,-754.245"/>
</g>
<!-- VariantCall -->
<g id="node2" class="node"><title>VariantCall</title>
<polygon fill="#002060" stroke="none" points="404.038,-276 404.038,-438 638.038,-438 638.038,-276 404.038,-276"/>
<polygon fill="#79a6ff" stroke="none" points="404.038,-401 404.038,-438 638.038,-438 638.038,-401 404.038,-401"/>
<polygon fill="none" stroke="#002060" stroke-width="3" points="405.538,-402.5 405.538,-436.5 636.538,-436.5 636.538,-402.5 405.538,-402.5"/>
<text text-anchor="start" x="474.538" y="-414.5" font-family="Times,serif" font-size="20.00" fill="white">VariantCall</text>
<polygon fill="none" stroke="#002060" points="404.038,-376 404.038,-401 507.038,-401 507.038,-376 404.038,-376"/>
<text text-anchor="start" x="409.038" y="-384.8" font-family="Times,serif" font-size="14.00" fill="white">&#45; source</text>
<polygon fill="none" stroke="#002060" points="507.038,-376 507.038,-401 638.038,-401 638.038,-376 507.038,-376"/>
<text text-anchor="start" x="512.038" y="-384.8" font-family="Times,serif" font-size="14.00" fill="white">&#45; tumorAllele1</text>
<polygon fill="none" stroke="#002060" points="404.038,-351 404.038,-376 507.038,-376 507.038,-351 404.038,-351"/>
<text text-anchor="start" x="409.038" y="-359.8" font-family="Times,serif" font-size="14.00" fill="white">&#45; position</text>
<polygon fill="none" stroke="#002060" points="507.038,-351 507.038,-376 638.038,-376 638.038,-351 507.038,-351"/>
<text text-anchor="start" x="512.038" y="-359.8" font-family="Times,serif" font-size="14.00" fill="white">&#45; tumorAllele2</text>
<polygon fill="none" stroke="#002060" points="404.038,-326 404.038,-351 507.038,-351 507.038,-326 404.038,-326"/>
<text text-anchor="start" x="409.038" y="-334.8" font-family="Times,serif" font-size="14.00" fill="white">&#45; referenceAllele</text>
<polygon fill="none" stroke="#002060" points="507.038,-326 507.038,-351 638.038,-351 638.038,-326 507.038,-326"/>
<text text-anchor="start" x="512.038" y="-334.8" font-family="Times,serif" font-size="14.00" fill="white">&#45; variantClassification</text>
<polygon fill="none" stroke="#002060" points="404.038,-301 404.038,-326 507.038,-326 507.038,-301 404.038,-301"/>
<text text-anchor="start" x="409.038" y="-309.8" font-family="Times,serif" font-size="14.00" fill="white">&#45; normalAllele1</text>
<polygon fill="none" stroke="#002060" points="507.038,-301 507.038,-326 638.038,-326 638.038,-301 507.038,-301"/>
<text text-anchor="start" x="512.038" y="-309.8" font-family="Times,serif" font-size="14.00" fill="white">&#45; variantCallEffects</text>
<polygon fill="none" stroke="#002060" points="404.038,-276 404.038,-301 507.038,-301 507.038,-276 404.038,-276"/>
<text text-anchor="start" x="409.038" y="-284.8" font-family="Times,serif" font-size="14.00" fill="white">&#45; normalAllele2</text>
<polygon fill="none" stroke="#002060" points="507.038,-276 507.038,-301 638.038,-301 638.038,-276 507.038,-276"/>
<text text-anchor="start" x="512.038" y="-284.8" font-family="Times,serif" font-size="14.00" fill="white">&#45; info</text>
</g>
<!-- VariantCallEffect -->
<g id="node4" class="node"><title>VariantCallEffect</title>
<polygon fill="#002060" stroke="none" points="390.538,-20 390.538,-232 623.538,-232 623.538,-20 390.538,-20"/>
<polygon fill="#79a6ff" stroke="none" points="391.038,-195 391.038,-232 624.038,-232 624.038,-195 391.038,-195"/>
<polygon fill="none" stroke="#002060" stroke-width="3" points="392.538,-196.5 392.538,-230.5 622.538,-230.5 622.538,-196.5 392.538,-196.5"/>
<text text-anchor="start" x="436.538" y="-208.5" font-family="Times,serif" font-size="20.00" fill="white">VariantCallEffect</text>
<polygon fill="none" stroke="#002060" points="391.038,-170 391.038,-195 503.038,-195 503.038,-170 391.038,-170"/>
<text text-anchor="start" x="396.038" y="-178.8" font-family="Times,serif" font-size="14.00" fill="white">&#45; source</text>
<polygon fill="none" stroke="#002060" points="503.038,-170 503.038,-195 624.038,-195 624.038,-170 503.038,-170"/>
<text text-anchor="start" x="508.038" y="-178.8" font-family="Times,serif" font-size="14.00" fill="white">&#45; transcriptStatus</text>
<polygon fill="none" stroke="#002060" points="391.038,-145 391.038,-170 503.038,-170 503.038,-145 391.038,-145"/>
<text text-anchor="start" x="396.038" y="-153.8" font-family="Times,serif" font-size="14.00" fill="white">&#45; feature</text>
<polygon fill="none" stroke="#002060" points="503.038,-145 503.038,-170 624.038,-170 624.038,-145 503.038,-145"/>
<text text-anchor="start" x="508.038" y="-153.8" font-family="Times,serif" font-size="14.00" fill="white">&#45; transcriptVersion</text>
<polygon fill="none" stroke="#002060" points="391.038,-120 391.038,-145 503.038,-145 503.038,-120 391.038,-120"/>
<text text-anchor="start" x="396.038" y="-128.8" font-family="Times,serif" font-size="14.00" fill="white">&#45; domains</text>
<polygon fill="none" stroke="#002060" points="503.038,-120 503.038,-145 624.038,-145 624.038,-120 503.038,-120"/>
<text text-anchor="start" x="508.038" y="-128.8" font-family="Times,serif" font-size="14.00" fill="white">&#45; cPosition</text>
<polygon fill="none" stroke="#002060" points="391.038,-95 391.038,-120 503.038,-120 503.038,-95 391.038,-95"/>
<text text-anchor="start" x="396.038" y="-103.8" font-family="Times,serif" font-size="14.00" fill="white">&#45; variantType</text>
<polygon fill="none" stroke="#002060" points="503.038,-95 503.038,-120 624.038,-120 624.038,-95 503.038,-95"/>
<text text-anchor="start" x="508.038" y="-103.8" font-family="Times,serif" font-size="14.00" fill="white">&#45; aminoAcidChange</text>
<polygon fill="none" stroke="#002060" points="391.038,-70 391.038,-95 503.038,-95 503.038,-70 391.038,-70"/>
<text text-anchor="start" x="396.038" y="-78.8" font-family="Times,serif" font-size="14.00" fill="white">&#45; transcriptSpecies</text>
<polygon fill="none" stroke="#002060" points="503.038,-70 503.038,-95 624.038,-95 624.038,-70 503.038,-70"/>
<text text-anchor="start" x="508.038" y="-78.8" font-family="Times,serif" font-size="14.00" fill="white">&#45; strand</text>
<polygon fill="none" stroke="#002060" points="391.038,-45 391.038,-70 503.038,-70 503.038,-45 391.038,-45"/>
<text text-anchor="start" x="396.038" y="-53.8" font-family="Times,serif" font-size="14.00" fill="white">&#45; transcriptName</text>
<polygon fill="none" stroke="#002060" points="503.038,-45 503.038,-70 624.038,-70 624.038,-45 503.038,-45"/>
<text text-anchor="start" x="508.038" y="-53.8" font-family="Times,serif" font-size="14.00" fill="white">&#45; info</text>
<polygon fill="none" stroke="#002060" points="391.038,-20 391.038,-45 503.038,-45 503.038,-20 391.038,-20"/>
<text text-anchor="start" x="396.038" y="-28.8" font-family="Times,serif" font-size="14.00" fill="white">&#45; transcriptSource</text>
</g>
<!-- VariantCall&#45;&gt;VariantCallEffect -->
<g id="edge3" class="edge"><title>VariantCall:variantCallEffects:w&#45;&gt;VariantCallEffect</title>
<path fill="none" stroke="#c55a11" stroke-width="2" d="M494.936,-310.387C469.98,-303.001 467.336,-271.266 472.978,-236.22"/>
<polygon fill="none" stroke="#c55a11" stroke-width="2" points="495.143,-310.414 501.619,-307.242 507.038,-312 500.562,-315.172 495.143,-310.414"/>
</g>
<!-- Position -->
<g id="node6" class="node"><title>Position</title>
<polygon fill="#002060" stroke="none" points="132.038,-82.5 132.038,-169.5 254.038,-169.5 254.038,-82.5 132.038,-82.5"/>
<polygon fill="#79a6ff" stroke="none" points="132.038,-132 132.038,-169 254.038,-169 254.038,-132 132.038,-132"/>
<polygon fill="none" stroke="#002060" stroke-width="3" points="133.538,-133.5 133.538,-167.5 252.538,-167.5 252.538,-133.5 133.538,-133.5"/>
<text text-anchor="start" x="161.038" y="-145.5" font-family="Times,serif" font-size="20.00" fill="white">Position</text>
<polygon fill="none" stroke="#002060" points="132.038,-107 132.038,-132 202.038,-132 202.038,-107 132.038,-107"/>
<text text-anchor="start" x="137.038" y="-115.8" font-family="Times,serif" font-size="14.00" fill="white">&#45; reference</text>
<polygon fill="none" stroke="#002060" points="202.038,-107 202.038,-132 254.038,-132 254.038,-107 202.038,-107"/>
<text text-anchor="start" x="207.038" y="-115.8" font-family="Times,serif" font-size="14.00" fill="white">&#45; end</text>
<polygon fill="none" stroke="#002060" points="132.038,-82 132.038,-107 202.038,-107 202.038,-82 132.038,-82"/>
<text text-anchor="start" x="137.038" y="-90.8" font-family="Times,serif" font-size="14.00" fill="white">&#45; start</text>
<polygon fill="none" stroke="#002060" points="202.038,-82 202.038,-107 254.038,-107 254.038,-82 202.038,-82"/>
<text text-anchor="start" x="207.038" y="-90.8" font-family="Times,serif" font-size="14.00" fill="white">&#45; strand</text>
</g>
<!-- VariantCall&#45;&gt;Position -->
<g id="edge6" class="edge"><title>VariantCall:position:w&#45;&gt;Position</title>
<path fill="none" stroke="#c55a11" stroke-width="2" d="M394.15,-355.605C387.249,-335.653 394.72,-286.015 386.038,-272 356.354,-224.08 304.587,-186.489 262.135,-161.6"/>
<polygon fill="none" stroke="#c55a11" stroke-width="2" points="394.314,-355.76 401.423,-356.972 403.038,-364 395.929,-362.788 394.314,-355.76"/>
</g>
<!-- BioSample -->
<g id="node7" class="node"><title>BioSample</title>
<polygon fill="#002060" stroke="none" points="453.038,-482.5 453.038,-569.5 615.038,-569.5 615.038,-482.5 453.038,-482.5"/>
<polygon fill="#79a6ff" stroke="none" points="453.038,-532 453.038,-569 615.038,-569 615.038,-532 453.038,-532"/>
<polygon fill="none" stroke="#002060" stroke-width="3" points="454.538,-533.5 454.538,-567.5 613.538,-567.5 613.538,-533.5 454.538,-533.5"/>
<text text-anchor="start" x="489.538" y="-545.5" font-family="Times,serif" font-size="20.00" fill="white">BioSample</text>
<polygon fill="none" stroke="#002060" points="453.038,-507 453.038,-532 508.038,-532 508.038,-507 453.038,-507"/>
<text text-anchor="start" x="458.038" y="-515.8" font-family="Times,serif" font-size="14.00" fill="white">&#45; name</text>
<polygon fill="none" stroke="#002060" points="508.038,-507 508.038,-532 615.038,-532 615.038,-507 508.038,-507"/>
<text text-anchor="start" x="513.038" y="-515.8" font-family="Times,serif" font-size="14.00" fill="white">&#45; individualName</text>
<polygon fill="none" stroke="#002060" points="453.038,-482 453.038,-507 508.038,-507 508.038,-482 453.038,-482"/>
<text text-anchor="start" x="458.038" y="-490.8" font-family="Times,serif" font-size="14.00" fill="white">&#45; source</text>
<polygon fill="none" stroke="#002060" points="508.038,-482 508.038,-507 615.038,-507 615.038,-482 508.038,-482"/>
<text text-anchor="start" x="513.038" y="-490.8" font-family="Times,serif" font-size="14.00" fill="white">&#45; variantCalls</text>
</g>
<!-- Individual&#45;&gt;BioSample -->
<g id="edge5" class="edge"><title>Individual:bioSamples:w&#45;&gt;BioSample</title>
<path fill="none" stroke="#c55a11" stroke-width="2" d="M508.947,-647.133C492.157,-637.146 500.83,-602.89 512.355,-573.501"/>
<polygon fill="none" stroke="#c55a11" stroke-width="2" points="509.362,-647.231 516.123,-644.724 521.038,-650 514.277,-652.508 509.362,-647.231"/>
</g>
<!-- Feature -->
<g id="node5" class="node"><title>Feature</title>
<polygon fill="#002060" stroke="none" points="30.038,-299.5 30.038,-414.5 370.038,-414.5 370.038,-299.5 30.038,-299.5"/>
<polygon fill="#79a6ff" stroke="none" points="30.038,-349 30.038,-414 370.038,-414 370.038,-349 30.038,-349"/>
<polygon fill="none" stroke="#002060" stroke-width="3" points="31.538,-350.5 31.538,-412.5 368.538,-412.5 368.538,-350.5 31.538,-350.5"/>
<text text-anchor="start" x="169.538" y="-391.5" font-family="Times,serif" font-size="20.00" fill="white">Feature</text>
<text text-anchor="start" x="37.538" y="-375.5" font-family="Times,serif" font-size="15.00" fill="white">Node in annotation graph that annotates a contiguous</text>
<text text-anchor="start" x="137.038" y="-360.5" font-family="Times,serif" font-size="15.00" fill="white">region of a sequence</text>
<polygon fill="none" stroke="#002060" points="30.038,-324 30.038,-349 208.038,-349 208.038,-324 30.038,-324"/>
<text text-anchor="start" x="35.038" y="-332.8" font-family="Times,serif" font-size="14.00" fill="white">&#45; position</text>
<polygon fill="none" stroke="#002060" points="208.038,-324 208.038,-349 370.038,-349 370.038,-324 208.038,-324"/>
<text text-anchor="start" x="213.038" y="-332.8" font-family="Times,serif" font-size="14.00" fill="white">&#45; attributes</text>
<polygon fill="none" stroke="#002060" points="30.038,-299 30.038,-324 208.038,-324 208.038,-299 30.038,-299"/>
<text text-anchor="start" x="35.038" y="-307.8" font-family="Times,serif" font-size="14.00" fill="white">&#45; featureType</text>
</g>
<!-- Feature&#45;&gt;Position -->
<g id="edge2" class="edge"><title>Feature:position:w&#45;&gt;Position</title>
<path fill="none" stroke="#c55a11" stroke-width="2" d="M16.9226,-335.056C-40.4917,-324.711 62.2597,-231.752 133.458,-173.644"/>
<polygon fill="none" stroke="#c55a11" stroke-width="2" points="17.0742,-335.067 23.367,-331.546 29.038,-336 22.7452,-339.522 17.0742,-335.067"/>
</g>
<!-- BioSample&#45;&gt;VariantCall -->
<g id="edge1" class="edge"><title>BioSample:variantCalls:w&#45;&gt;VariantCall</title>
<path fill="none" stroke="#c55a11" stroke-width="2" d="M495.879,-490.471C482.509,-483.724 482.222,-464.306 487.26,-442.347"/>
<polygon fill="none" stroke="#c55a11" stroke-width="2" points="496.289,-490.556 502.978,-487.862 508.038,-493 501.349,-495.694 496.289,-490.556"/>
</g>
</g>
</svg>
