<?xml version="1.0" encoding="UTF-8" standalone="no"?>
<!DOCTYPE svg PUBLIC "-//W3C//DTD SVG 1.1//EN"
 "http://www.w3.org/Graphics/SVG/1.1/DTD/svg11.dtd">
<!-- Generated by graphviz version 2.36.0 (20140111.2315)
 -->
<!-- Title: UML Pages: 1 -->
<svg width="499pt" height="579pt"
 viewBox="0.00 0.00 499.00 579.00" xmlns="http://www.w3.org/2000/svg" xmlns:xlink="http://www.w3.org/1999/xlink">
<g id="graph0" class="graph" transform="scale(1 1) rotate(0) translate(4 575)">
<title>UML</title>
<polygon fill="white" stroke="none" points="-4,4 -4,-575 495,-575 495,4 -4,4"/>
<g id="clust1" class="cluster"><title>cluster_simple_schema_proto</title>
<path fill="lightgrey" stroke="lightgrey" d="M20,-8C20,-8 471,-8 471,-8 477,-8 483,-14 483,-20 483,-20 483,-551 483,-551 483,-557 477,-563 471,-563 471,-563 20,-563 20,-563 14,-563 8,-557 8,-551 8,-551 8,-20 8,-20 8,-14 14,-8 20,-8"/>
<text text-anchor="middle" x="245.5" y="-547.8" font-family="Times,serif" font-size="14.00">simple_schema_proto</text>
</g>
<!-- Strand -->
<g id="node1" class="node"><title>Strand</title>
<polygon fill="#002060" stroke="none" points="195.5,-20.5 195.5,-107.5 466.5,-107.5 466.5,-20.5 195.5,-20.5"/>
<polygon fill="#79a6ff" stroke="none" points="196,-70 196,-107 467,-107 467,-70 196,-70"/>
<polygon fill="none" stroke="#002060" stroke-width="3" points="197.5,-71.5 197.5,-105.5 465.5,-105.5 465.5,-71.5 197.5,-71.5"/>
<text text-anchor="start" x="305.5" y="-83.5" font-family="Times,serif" font-size="20.00" fill="white">Strand</text>
<polygon fill="none" stroke="#002060" points="196,-45 196,-70 363,-70 363,-45 196,-45"/>
<text text-anchor="start" x="201" y="-53.8" font-family="Times,serif" font-size="14.00" fill="white">&#45; STRAND_UNSPECIFIED</text>
<polygon fill="none" stroke="#002060" points="363,-45 363,-70 467,-70 467,-45 363,-45"/>
<text text-anchor="start" x="368" y="-53.8" font-family="Times,serif" font-size="14.00" fill="white">&#45; POS_STRAND</text>
<polygon fill="none" stroke="#002060" points="196,-20 196,-45 363,-45 363,-20 196,-20"/>
<text text-anchor="start" x="201" y="-28.8" font-family="Times,serif" font-size="14.00" fill="white">&#45; NEG_STRAND</text>
</g>
<!-- VariantCall -->
<g id="node2" class="node"><title>VariantCall</title>
<polygon fill="#002060" stroke="none" points="65.5,-284 65.5,-396 260.5,-396 260.5,-284 65.5,-284"/>
<polygon fill="#79a6ff" stroke="none" points="66,-359 66,-396 261,-396 261,-359 66,-359"/>
<polygon fill="none" stroke="#002060" stroke-width="3" points="67.5,-360.5 67.5,-394.5 259.5,-394.5 259.5,-360.5 67.5,-360.5"/>
<text text-anchor="start" x="117" y="-372.5" font-family="Times,serif" font-size="20.00" fill="white">VariantCall</text>
<polygon fill="none" stroke="#002060" points="66,-334 66,-359 156,-359 156,-334 66,-334"/>
<text text-anchor="start" x="71" y="-342.8" font-family="Times,serif" font-size="14.00" fill="white">&#45; id</text>
<polygon fill="none" stroke="#002060" points="156,-334 156,-359 261,-359 261,-334 156,-334"/>
<text text-anchor="start" x="161" y="-342.8" font-family="Times,serif" font-size="14.00" fill="white">&#45; reference_bases</text>
<polygon fill="none" stroke="#002060" points="66,-309 66,-334 156,-334 156,-309 66,-309"/>
<text text-anchor="start" x="71" y="-317.8" font-family="Times,serif" font-size="14.00" fill="white">&#45; bioSampleId</text>
<polygon fill="none" stroke="#002060" points="156,-309 156,-334 261,-334 261,-309 156,-309"/>
<text text-anchor="start" x="161" y="-317.8" font-family="Times,serif" font-size="14.00" fill="white">&#45; genotype</text>
<polygon fill="none" stroke="#002060" points="66,-284 66,-309 156,-309 156,-284 66,-284"/>
<text text-anchor="start" x="71" y="-292.8" font-family="Times,serif" font-size="14.00" fill="white">&#45; position</text>
<polygon fill="none" stroke="#002060" points="156,-284 156,-309 261,-309 261,-284 156,-284"/>
<text text-anchor="start" x="161" y="-292.8" font-family="Times,serif" font-size="14.00" fill="white">&#45; info</text>
</g>
<!-- BioSample -->
<g id="node3" class="node"><title>BioSample</title>
<polygon fill="#002060" stroke="none" points="39.5,-152.5 39.5,-239.5 174.5,-239.5 174.5,-152.5 39.5,-152.5"/>
<polygon fill="#79a6ff" stroke="none" points="40,-202 40,-239 175,-239 175,-202 40,-202"/>
<polygon fill="none" stroke="#002060" stroke-width="3" points="41.5,-203.5 41.5,-237.5 173.5,-237.5 173.5,-203.5 41.5,-203.5"/>
<text text-anchor="start" x="63" y="-215.5" font-family="Times,serif" font-size="20.00" fill="white">BioSample</text>
<polygon fill="none" stroke="#002060" points="40,-177 40,-202 90,-202 90,-177 40,-177"/>
<text text-anchor="start" x="45" y="-185.8" font-family="Times,serif" font-size="14.00" fill="white">&#45; id</text>
<polygon fill="none" stroke="#002060" points="90,-177 90,-202 175,-202 175,-177 90,-177"/>
<text text-anchor="start" x="95" y="-185.8" font-family="Times,serif" font-size="14.00" fill="white">&#45; individualId</text>
<polygon fill="none" stroke="#002060" points="40,-152 40,-177 90,-177 90,-152 40,-152"/>
<text text-anchor="start" x="45" y="-160.8" font-family="Times,serif" font-size="14.00" fill="white">&#45; name</text>
</g>
<!-- VariantCall&#45;&gt;BioSample -->
<g id="edge6" class="edge"><title>VariantCall:bioSampleId:w&#45;&gt;BioSample:id:w</title>
<path fill="none" stroke="darkgreen" stroke-width="2" stroke-dasharray="5,2" d="M65,-321C8.82645,-321 -17.5216,-204.5 29.071,-190.393"/>
<polygon fill="darkgreen" stroke="darkgreen" stroke-width="2" points="39,-189 29.7223,-194.846 34.118,-190.19 29.1665,-190.885 29.097,-190.39 29.0275,-189.894 33.979,-189.2 28.4717,-185.933 39,-189 39,-189"/>
</g>
<!-- Position -->
<g id="node6" class="node"><title>Position</title>
<polygon fill="#002060" stroke="none" points="215.5,-152.5 215.5,-239.5 374.5,-239.5 374.5,-152.5 215.5,-152.5"/>
<polygon fill="#79a6ff" stroke="none" points="216,-202 216,-239 375,-239 375,-202 216,-202"/>
<polygon fill="none" stroke="#002060" stroke-width="3" points="217.5,-203.5 217.5,-237.5 373.5,-237.5 373.5,-203.5 217.5,-203.5"/>
<text text-anchor="start" x="263.5" y="-215.5" font-family="Times,serif" font-size="20.00" fill="white">Position</text>
<polygon fill="none" stroke="#002060" points="216,-177 216,-202 323,-202 323,-177 216,-177"/>
<text text-anchor="start" x="221" y="-185.8" font-family="Times,serif" font-size="14.00" fill="white">&#45; reference_name</text>
<polygon fill="none" stroke="#002060" points="323,-177 323,-202 375,-202 375,-177 323,-177"/>
<text text-anchor="start" x="328" y="-185.8" font-family="Times,serif" font-size="14.00" fill="white">&#45; end</text>
<polygon fill="none" stroke="#002060" points="216,-152 216,-177 323,-177 323,-152 216,-152"/>
<text text-anchor="start" x="221" y="-160.8" font-family="Times,serif" font-size="14.00" fill="white">&#45; start</text>
<polygon fill="none" stroke="#002060" points="323,-152 323,-177 375,-177 375,-152 323,-152"/>
<text text-anchor="start" x="328" y="-160.8" font-family="Times,serif" font-size="14.00" fill="white">&#45; strand</text>
</g>
<!-- VariantCall&#45;&gt;Position -->
<g id="edge3" class="edge"><title>VariantCall:position:w&#45;&gt;Position</title>
<path fill="none" stroke="#c55a11" stroke-width="2" d="M63.4643,-283.862C64.2209,-282.459 65.094,-281.129 66,-280 102.191,-234.915 136.74,-263.956 191,-244 196.486,-241.982 202.088,-239.806 207.708,-237.533"/>
<polygon fill="none" stroke="#c55a11" stroke-width="2" points="63.4936,-284.095 68.2152,-289.545 65,-296 60.2785,-290.55 63.4936,-284.095"/>
</g>
<!-- Individual -->
<g id="node7" class="node"><title>Individual</title>
<polygon fill="#002060" stroke="none" points="24.5,-20.5 24.5,-107.5 161.5,-107.5 161.5,-20.5 24.5,-20.5"/>
<polygon fill="#79a6ff" stroke="none" points="25,-70 25,-107 162,-107 162,-70 25,-70"/>
<polygon fill="none" stroke="#002060" stroke-width="3" points="26.5,-71.5 26.5,-105.5 160.5,-105.5 160.5,-71.5 26.5,-71.5"/>
<text text-anchor="start" x="53" y="-83.5" font-family="Times,serif" font-size="20.00" fill="white">Individual</text>
<polygon fill="none" stroke="#002060" points="25,-45 25,-70 75,-70 75,-45 25,-45"/>
<text text-anchor="start" x="30" y="-53.8" font-family="Times,serif" font-size="14.00" fill="white">&#45; id</text>
<polygon fill="none" stroke="#002060" points="75,-45 75,-70 162,-70 162,-45 75,-45"/>
<text text-anchor="start" x="80" y="-53.8" font-family="Times,serif" font-size="14.00" fill="white">&#45; observations</text>
<polygon fill="none" stroke="#002060" points="25,-20 25,-45 75,-45 75,-20 25,-20"/>
<text text-anchor="start" x="30" y="-28.8" font-family="Times,serif" font-size="14.00" fill="white">&#45; name</text>
</g>
<!-- BioSample&#45;&gt;Individual -->
<g id="edge4" class="edge"><title>BioSample:individualId:w&#45;&gt;Individual:id:w</title>
<path fill="none" stroke="darkgreen" stroke-width="2" stroke-dasharray="5,2" d="M90,-188C45.5533,-188 40.7764,-153.553 25,-112 17.9491,-93.4291 5.55595,-68.7273 14.27,-60.117"/>
<polygon fill="darkgreen" stroke="darkgreen" stroke-width="2" points="24,-57 15.8496,-64.3363 19.3909,-59.0016 14.6293,-60.527 14.4767,-60.0509 14.3242,-59.5747 19.0858,-58.0493 13.1038,-55.7654 24,-57 24,-57"/>
</g>
<!-- Feature -->
<g id="node4" class="node"><title>Feature</title>
<polygon fill="#002060" stroke="none" points="294.5,-296.5 294.5,-383.5 441.5,-383.5 441.5,-296.5 294.5,-296.5"/>
<polygon fill="#79a6ff" stroke="none" points="295,-346 295,-383 442,-383 442,-346 295,-346"/>
<polygon fill="none" stroke="#002060" stroke-width="3" points="296.5,-347.5 296.5,-381.5 440.5,-381.5 440.5,-347.5 296.5,-347.5"/>
<text text-anchor="start" x="338" y="-359.5" font-family="Times,serif" font-size="20.00" fill="white">Feature</text>
<polygon fill="none" stroke="#002060" points="295,-321 295,-346 358,-346 358,-321 295,-321"/>
<text text-anchor="start" x="300" y="-329.8" font-family="Times,serif" font-size="14.00" fill="white">&#45; id</text>
<polygon fill="none" stroke="#002060" points="358,-321 358,-346 442,-346 442,-321 358,-321"/>
<text text-anchor="start" x="363" y="-329.8" font-family="Times,serif" font-size="14.00" fill="white">&#45; featureType</text>
<polygon fill="none" stroke="#002060" points="295,-296 295,-321 358,-321 358,-296 295,-296"/>
<text text-anchor="start" x="300" y="-304.8" font-family="Times,serif" font-size="14.00" fill="white">&#45; position</text>
<polygon fill="none" stroke="#002060" points="358,-296 358,-321 442,-321 442,-296 358,-296"/>
<text text-anchor="start" x="363" y="-304.8" font-family="Times,serif" font-size="14.00" fill="white">&#45; attributes</text>
</g>
<!-- Feature&#45;&gt;Position -->
<g id="edge1" class="edge"><title>Feature:position:w&#45;&gt;Position</title>
<path fill="none" stroke="#c55a11" stroke-width="2" d="M285.331,-299.209C281.703,-287.154 283.449,-264.608 286.396,-243.752"/>
<polygon fill="none" stroke="#c55a11" stroke-width="2" points="285.574,-299.455 292.635,-300.919 294,-308 286.939,-306.536 285.574,-299.455"/>
</g>
<!-- VariantCallEffect -->
<g id="node5" class="node"><title>VariantCallEffect</title>
<polygon fill="#002060" stroke="none" points="135,-440.5 135,-527.5 299,-527.5 299,-440.5 135,-440.5"/>
<polygon fill="#79a6ff" stroke="none" points="135,-490 135,-527 299,-527 299,-490 135,-490"/>
<polygon fill="none" stroke="#002060" stroke-width="3" points="136.5,-491.5 136.5,-525.5 297.5,-525.5 297.5,-491.5 136.5,-491.5"/>
<text text-anchor="start" x="146" y="-503.5" font-family="Times,serif" font-size="20.00" fill="white">VariantCallEffect</text>
<polygon fill="none" stroke="#002060" points="135,-465 135,-490 226,-490 226,-465 135,-465"/>
<text text-anchor="start" x="140" y="-473.8" font-family="Times,serif" font-size="14.00" fill="white">&#45; id</text>
<polygon fill="none" stroke="#002060" points="226,-465 226,-490 299,-490 299,-465 226,-465"/>
<text text-anchor="start" x="231" y="-473.8" font-family="Times,serif" font-size="14.00" fill="white">&#45; info</text>
<polygon fill="none" stroke="#002060" points="135,-440 135,-465 226,-465 226,-440 135,-440"/>
<text text-anchor="start" x="140" y="-448.8" font-family="Times,serif" font-size="14.00" fill="white">&#45; variantCallId</text>
<polygon fill="none" stroke="#002060" points="226,-440 226,-465 299,-465 299,-440 226,-440"/>
<text text-anchor="start" x="231" y="-448.8" font-family="Times,serif" font-size="14.00" fill="white">&#45; featureIds</text>
</g>
<!-- VariantCallEffect&#45;&gt;VariantCall -->
<g id="edge7" class="edge"><title>VariantCallEffect:variantCallId:w&#45;&gt;VariantCall:id:w</title>
<path fill="none" stroke="darkgreen" stroke-width="2" stroke-dasharray="5,2" d="M134,-452C82.0853,-452 18.797,-361.247 55.0246,-348.484"/>
<polygon fill="darkgreen" stroke="darkgreen" stroke-width="2" points="65,-347 55.7712,-352.923 60.128,-348.23 55.1825,-348.966 55.1089,-348.472 55.0353,-347.977 59.9809,-347.241 54.4466,-344.021 65,-347 65,-347"/>
</g>
<!-- VariantCallEffect&#45;&gt;Feature -->
<g id="edge5" class="edge"><title>VariantCallEffect:featureIds:w&#45;&gt;Feature:id:w</title>
<path fill="none" stroke="darkgreen" stroke-width="2" stroke-dasharray="5,2" d="M226,-451C193.944,-451 261.157,-427.867 277,-400 289.929,-377.257 270.888,-344.663 283.922,-335.487"/>
<polygon fill="darkgreen" stroke="darkgreen" stroke-width="2" points="294,-333 285.369,-339.765 289.265,-334.683 284.411,-335.881 284.291,-335.396 284.171,-334.911 289.026,-333.713 283.213,-331.027 294,-333 294,-333"/>
</g>
<!-- Position&#45;&gt;Strand -->
<g id="edge2" class="edge"><title>Position:strand:w&#45;&gt;Strand</title>
<path fill="none" stroke="#c55a11" stroke-width="2" d="M311.356,-159.3C302.017,-151.236 305.117,-131.226 311.327,-111.704"/>
<polygon fill="none" stroke="#c55a11" stroke-width="2" points="311.563,-159.366 318.493,-157.371 323,-163 316.07,-164.995 311.563,-159.366"/>
</g>
</g>
</svg>
