<?xml version="1.0" encoding="UTF-8" standalone="no"?>
<!DOCTYPE svg PUBLIC "-//W3C//DTD SVG 1.1//EN"
 "http://www.w3.org/Graphics/SVG/1.1/DTD/svg11.dtd">
<!-- Generated by graphviz version 2.36.0 (20140111.2315)
 -->
<!-- Title: UML Pages: 1 -->
<svg width="1302pt" height="777pt"
 viewBox="0.00 0.00 1302.00 777.00" xmlns="http://www.w3.org/2000/svg" xmlns:xlink="http://www.w3.org/1999/xlink">
<g id="graph0" class="graph" transform="scale(1 1) rotate(0) translate(4 773)">
<title>UML</title>
<polygon fill="white" stroke="none" points="-4,4 -4,-773 1298,-773 1298,4 -4,4"/>
<g id="clust1" class="cluster"><title>cluster_sample_proto</title>
<g id="a_clust1"><a xlink:href="https://github.com/bmeg/bmeg-schemas/blob/master/bmeg/gaea/schema/sample.proto" xlink:title="sample_proto">
<path fill="lightgrey" stroke="lightgrey" d="M20,-8C20,-8 1274,-8 1274,-8 1280,-8 1286,-14 1286,-20 1286,-20 1286,-749 1286,-749 1286,-755 1280,-761 1274,-761 1274,-761 20,-761 20,-761 14,-761 8,-755 8,-749 8,-749 8,-20 8,-20 8,-14 14,-8 20,-8"/>
<text text-anchor="middle" x="647" y="-745.8" font-family="Times,serif" font-size="14.00">sample_proto</text>
</a>
</g>
</g>
<!-- LinearSignature -->
<g id="node1" class="node"><title>LinearSignature</title>
<polygon fill="#002060" stroke="none" points="1074,-576.5 1074,-713.5 1270,-713.5 1270,-576.5 1074,-576.5"/>
<polygon fill="#79a6ff" stroke="none" points="1074,-676 1074,-713 1270,-713 1270,-676 1074,-676"/>
<polygon fill="none" stroke="#002060" stroke-width="3" points="1075.5,-677.5 1075.5,-711.5 1268.5,-711.5 1268.5,-677.5 1075.5,-677.5"/>
<text text-anchor="start" x="1108" y="-689.5" font-family="Times,serif" font-size="20.00" fill="white">LinearSignature</text>
<polygon fill="none" stroke="#002060" points="1074,-651 1074,-676 1150,-676 1150,-651 1074,-651"/>
<text text-anchor="start" x="1079" y="-659.8" font-family="Times,serif" font-size="14.00" fill="white">&#45; name</text>
<polygon fill="none" stroke="#002060" points="1150,-651 1150,-676 1270,-676 1270,-651 1150,-651"/>
<text text-anchor="start" x="1155" y="-659.8" font-family="Times,serif" font-size="14.00" fill="white">&#45; intercept</text>
<polygon fill="none" stroke="#002060" points="1074,-626 1074,-651 1150,-651 1150,-626 1074,-626"/>
<text text-anchor="start" x="1079" y="-634.8" font-family="Times,serif" font-size="14.00" fill="white">&#45; predicts</text>
<polygon fill="none" stroke="#002060" points="1150,-626 1150,-651 1270,-651 1270,-626 1150,-626"/>
<text text-anchor="start" x="1155" y="-634.8" font-family="Times,serif" font-size="14.00" fill="white">&#45; coefficients</text>
<polygon fill="none" stroke="#002060" points="1074,-601 1074,-626 1150,-626 1150,-601 1074,-601"/>
<text text-anchor="start" x="1079" y="-609.8" font-family="Times,serif" font-size="14.00" fill="white">&#45; phenotype</text>
<polygon fill="none" stroke="#002060" points="1150,-601 1150,-626 1270,-626 1270,-601 1150,-601"/>
<text text-anchor="start" x="1155" y="-609.8" font-family="Times,serif" font-size="14.00" fill="white">&#45; signatureForEdges</text>
<polygon fill="none" stroke="#002060" points="1074,-576 1074,-601 1150,-601 1150,-576 1074,-576"/>
<text text-anchor="start" x="1079" y="-584.8" font-family="Times,serif" font-size="14.00" fill="white">&#45; quantile</text>
</g>
<!-- Drug -->
<g id="node14" class="node"><title>Drug</title>
<polygon fill="#002060" stroke="none" points="1154,-370.5 1154,-457.5 1270,-457.5 1270,-370.5 1154,-370.5"/>
<polygon fill="#79a6ff" stroke="none" points="1154,-420 1154,-457 1270,-457 1270,-420 1154,-420"/>
<polygon fill="none" stroke="#002060" stroke-width="3" points="1155.5,-421.5 1155.5,-455.5 1268.5,-455.5 1268.5,-421.5 1155.5,-421.5"/>
<text text-anchor="start" x="1191.5" y="-433.5" font-family="Times,serif" font-size="20.00" fill="white">Drug</text>
<polygon fill="none" stroke="#002060" points="1154,-395 1154,-420 1229,-420 1229,-395 1154,-395"/>
<text text-anchor="start" x="1159" y="-403.8" font-family="Times,serif" font-size="14.00" fill="white">&#45; name</text>
<polygon fill="none" stroke="#002060" points="1229,-395 1229,-420 1270,-420 1270,-395 1229,-395"/>
<text text-anchor="start" x="1234" y="-403.8" font-family="Times,serif" font-size="14.00" fill="white">&#45; info</text>
<polygon fill="none" stroke="#002060" points="1154,-370 1154,-395 1229,-395 1229,-370 1154,-370"/>
<text text-anchor="start" x="1159" y="-378.8" font-family="Times,serif" font-size="14.00" fill="white">&#45; synonyms</text>
</g>
<!-- LinearSignature&#45;&gt;Drug -->
<g id="edge7" class="edge"><title>LinearSignature:signatureForEdges:w&#45;&gt;Drug:name:w</title>
<path fill="none" stroke="darkgreen" stroke-width="2" stroke-dasharray="5,2" d="M1150,-612C1140.08,-612 1141.08,-456.445 1149.03,-416.341"/>
<polygon fill="darkgreen" stroke="darkgreen" stroke-width="2" points="1153,-407 1153.23,-417.964 1151.5,-411.797 1149.55,-416.398 1149.09,-416.202 1148.63,-416.006 1150.58,-411.405 1144.94,-414.44 1153,-407 1153,-407"/>
</g>
<!-- Position -->
<g id="node2" class="node"><title>Position</title>
<polygon fill="#002060" stroke="none" points="629.5,-152 629.5,-264 772.5,-264 772.5,-152 629.5,-152"/>
<polygon fill="#79a6ff" stroke="none" points="630,-227 630,-264 773,-264 773,-227 630,-227"/>
<polygon fill="none" stroke="#002060" stroke-width="3" points="631.5,-228.5 631.5,-262.5 771.5,-262.5 771.5,-228.5 631.5,-228.5"/>
<text text-anchor="start" x="669.5" y="-240.5" font-family="Times,serif" font-size="20.00" fill="white">Position</text>
<polygon fill="none" stroke="#002060" points="630,-202 630,-227 721,-227 721,-202 630,-202"/>
<text text-anchor="start" x="635" y="-210.8" font-family="Times,serif" font-size="14.00" fill="white">&#45; name</text>
<polygon fill="none" stroke="#002060" points="721,-202 721,-227 773,-227 773,-202 721,-202"/>
<text text-anchor="start" x="726" y="-210.8" font-family="Times,serif" font-size="14.00" fill="white">&#45; end</text>
<polygon fill="none" stroke="#002060" points="630,-177 630,-202 721,-202 721,-177 630,-177"/>
<text text-anchor="start" x="635" y="-185.8" font-family="Times,serif" font-size="14.00" fill="white">&#45; chromosome</text>
<polygon fill="none" stroke="#002060" points="721,-177 721,-202 773,-202 773,-177 721,-177"/>
<text text-anchor="start" x="726" y="-185.8" font-family="Times,serif" font-size="14.00" fill="white">&#45; strand</text>
<polygon fill="none" stroke="#002060" points="630,-152 630,-177 721,-177 721,-152 630,-152"/>
<text text-anchor="start" x="635" y="-160.8" font-family="Times,serif" font-size="14.00" fill="white">&#45; start</text>
</g>
<!-- Evidence -->
<g id="node3" class="node"><title>Evidence</title>
<polygon fill="#002060" stroke="none" points="1028.5,-370.5 1028.5,-457.5 1119.5,-457.5 1119.5,-370.5 1028.5,-370.5"/>
<polygon fill="#79a6ff" stroke="none" points="1029,-420 1029,-457 1120,-457 1120,-420 1029,-420"/>
<polygon fill="none" stroke="#002060" stroke-width="3" points="1030.5,-421.5 1030.5,-455.5 1118.5,-455.5 1118.5,-421.5 1030.5,-421.5"/>
<text text-anchor="start" x="1037.5" y="-433.5" font-family="Times,serif" font-size="20.00" fill="white">Evidence</text>
<polygon fill="none" stroke="#002060" points="1029,-395 1029,-420 1079,-420 1079,-395 1029,-395"/>
<text text-anchor="start" x="1034" y="-403.8" font-family="Times,serif" font-size="14.00" fill="white">&#45; name</text>
<polygon fill="none" stroke="#002060" points="1079,-395 1079,-420 1120,-420 1120,-395 1079,-395"/>
<text text-anchor="start" x="1084" y="-403.8" font-family="Times,serif" font-size="14.00" fill="white">&#45; info</text>
<polygon fill="none" stroke="#002060" points="1029,-370 1029,-395 1079,-395 1079,-370 1029,-370"/>
<text text-anchor="start" x="1034" y="-378.8" font-family="Times,serif" font-size="14.00" fill="white">&#45; pmid</text>
</g>
<!-- Phenotype -->
<g id="node4" class="node"><title>Phenotype</title>
<polygon fill="#002060" stroke="none" points="825.5,-370.5 825.5,-457.5 994.5,-457.5 994.5,-370.5 825.5,-370.5"/>
<polygon fill="#79a6ff" stroke="none" points="826,-420 826,-457 995,-457 995,-420 826,-420"/>
<polygon fill="none" stroke="#002060" stroke-width="3" points="827.5,-421.5 827.5,-455.5 993.5,-455.5 993.5,-421.5 827.5,-421.5"/>
<text text-anchor="start" x="868.5" y="-433.5" font-family="Times,serif" font-size="20.00" fill="white">Phenotype</text>
<polygon fill="none" stroke="#002060" points="826,-395 826,-420 916,-420 916,-395 826,-395"/>
<text text-anchor="start" x="831" y="-403.8" font-family="Times,serif" font-size="14.00" fill="white">&#45; name</text>
<polygon fill="none" stroke="#002060" points="916,-395 916,-420 995,-420 995,-395 916,-395"/>
<text text-anchor="start" x="921" y="-403.8" font-family="Times,serif" font-size="14.00" fill="white">&#45; description</text>
<polygon fill="none" stroke="#002060" points="826,-370 826,-395 916,-395 916,-370 826,-370"/>
<text text-anchor="start" x="831" y="-378.8" font-family="Times,serif" font-size="14.00" fill="white">&#45; isTypeEdges</text>
</g>
<!-- OntologyTerm -->
<g id="node13" class="node"><title>OntologyTerm</title>
<polygon fill="#002060" stroke="none" points="825.5,-164.5 825.5,-251.5 958.5,-251.5 958.5,-164.5 825.5,-164.5"/>
<polygon fill="#79a6ff" stroke="none" points="826,-214 826,-251 959,-251 959,-214 826,-214"/>
<polygon fill="none" stroke="#002060" stroke-width="3" points="827.5,-215.5 827.5,-249.5 957.5,-249.5 957.5,-215.5 827.5,-215.5"/>
<text text-anchor="start" x="833.5" y="-227.5" font-family="Times,serif" font-size="20.00" fill="white">OntologyTerm</text>
<polygon fill="none" stroke="#002060" points="826,-189 826,-214 890,-214 890,-189 826,-189"/>
<text text-anchor="start" x="831" y="-197.8" font-family="Times,serif" font-size="14.00" fill="white">&#45; name</text>
<polygon fill="none" stroke="#002060" points="890,-189 890,-214 959,-214 959,-189 890,-189"/>
<text text-anchor="start" x="895" y="-197.8" font-family="Times,serif" font-size="14.00" fill="white">&#45; source</text>
<polygon fill="none" stroke="#002060" points="826,-164 826,-189 890,-189 890,-164 826,-164"/>
<text text-anchor="start" x="831" y="-172.8" font-family="Times,serif" font-size="14.00" fill="white">&#45; term</text>
</g>
<!-- Phenotype&#45;&gt;OntologyTerm -->
<g id="edge15" class="edge"><title>Phenotype:isTypeEdges:w&#45;&gt;OntologyTerm:name:w</title>
<path fill="none" stroke="darkgreen" stroke-width="2" stroke-dasharray="5,2" d="M825,-382C807.403,-382 805.203,-243.422 818.401,-208.777"/>
<polygon fill="darkgreen" stroke="darkgreen" stroke-width="2" points="825,-201 821.961,-211.537 822.146,-205.136 818.911,-208.949 818.53,-208.625 818.149,-208.302 821.384,-204.489 815.099,-205.714 825,-201 825,-201"/>
</g>
<!-- Individual -->
<g id="node5" class="node"><title>Individual</title>
<polygon fill="#002060" stroke="none" points="644,-20.5 644,-107.5 786,-107.5 786,-20.5 644,-20.5"/>
<polygon fill="#79a6ff" stroke="none" points="644,-70 644,-107 786,-107 786,-70 644,-70"/>
<polygon fill="none" stroke="#002060" stroke-width="3" points="645.5,-71.5 645.5,-105.5 784.5,-105.5 784.5,-71.5 645.5,-71.5"/>
<text text-anchor="start" x="674.5" y="-83.5" font-family="Times,serif" font-size="20.00" fill="white">Individual</text>
<polygon fill="none" stroke="#002060" points="644,-45 644,-70 699,-70 699,-45 644,-45"/>
<text text-anchor="start" x="649" y="-53.8" font-family="Times,serif" font-size="14.00" fill="white">&#45; name</text>
<polygon fill="none" stroke="#002060" points="699,-45 699,-70 786,-70 786,-45 699,-45"/>
<text text-anchor="start" x="704" y="-53.8" font-family="Times,serif" font-size="14.00" fill="white">&#45; observations</text>
<polygon fill="none" stroke="#002060" points="644,-20 644,-45 699,-45 699,-20 644,-20"/>
<text text-anchor="start" x="649" y="-28.8" font-family="Times,serif" font-size="14.00" fill="white">&#45; source</text>
</g>
<!-- PhenotypeAssociation -->
<g id="node6" class="node"><title>PhenotypeAssociation</title>
<polygon fill="#002060" stroke="none" points="798.5,-589 798.5,-701 1039.5,-701 1039.5,-589 798.5,-589"/>
<polygon fill="#79a6ff" stroke="none" points="799,-664 799,-701 1040,-701 1040,-664 799,-664"/>
<polygon fill="none" stroke="#002060" stroke-width="3" points="800.5,-665.5 800.5,-699.5 1038.5,-699.5 1038.5,-665.5 800.5,-665.5"/>
<text text-anchor="start" x="831.5" y="-677.5" font-family="Times,serif" font-size="20.00" fill="white">PhenotypeAssociation</text>
<polygon fill="none" stroke="#002060" points="799,-639 799,-664 927,-664 927,-639 799,-639"/>
<text text-anchor="start" x="804" y="-647.8" font-family="Times,serif" font-size="14.00" fill="white">&#45; name</text>
<polygon fill="none" stroke="#002060" points="927,-639 927,-664 1040,-664 1040,-639 927,-639"/>
<text text-anchor="start" x="932" y="-647.8" font-family="Times,serif" font-size="14.00" fill="white">&#45; hasContextEdges</text>
<polygon fill="none" stroke="#002060" points="799,-614 799,-639 927,-639 927,-614 799,-614"/>
<text text-anchor="start" x="804" y="-622.8" font-family="Times,serif" font-size="14.00" fill="white">&#45; hasGenotypeEdges</text>
<polygon fill="none" stroke="#002060" points="927,-614 927,-639 1040,-639 1040,-614 927,-614"/>
<text text-anchor="start" x="932" y="-622.8" font-family="Times,serif" font-size="14.00" fill="white">&#45; info</text>
<polygon fill="none" stroke="#002060" points="799,-589 799,-614 927,-614 927,-589 799,-589"/>
<text text-anchor="start" x="804" y="-597.8" font-family="Times,serif" font-size="14.00" fill="white">&#45; hasPhenotypeEdges</text>
</g>
<!-- PhenotypeAssociation&#45;&gt;Evidence -->
<g id="edge12" class="edge"><title>PhenotypeAssociation:hasContextEdges:w&#45;&gt;Evidence:name:w</title>
<path fill="none" stroke="darkgreen" stroke-width="2" stroke-dasharray="5,2" d="M927,-651C859.326,-651 986.887,-587.232 1011,-524 1019.01,-502.999 1006.53,-432.306 1019.2,-412.31"/>
<polygon fill="darkgreen" stroke="darkgreen" stroke-width="2" points="1028,-407 1021.76,-416.02 1023.98,-410.012 1019.7,-412.595 1019.44,-412.167 1019.18,-411.739 1023.46,-409.156 1017.11,-408.314 1028,-407 1028,-407"/>
</g>
<!-- PhenotypeAssociation&#45;&gt;Phenotype -->
<g id="edge8" class="edge"><title>PhenotypeAssociation:hasPhenotypeEdges:w&#45;&gt;Phenotype:name:w</title>
<path fill="none" stroke="darkgreen" stroke-width="2" stroke-dasharray="5,2" d="M798,-601C793.292,-601 812.871,-455.766 821.758,-416.62"/>
<polygon fill="darkgreen" stroke="darkgreen" stroke-width="2" points="825,-407 826.071,-417.913 823.877,-411.898 822.28,-416.636 821.806,-416.476 821.333,-416.317 822.929,-411.578 817.542,-415.039 825,-407 825,-407"/>
</g>
<!-- PhenotypeAssociation&#45;&gt;Individual -->
<g id="edge4" class="edge"><title>PhenotypeAssociation:hasGenotypeEdges:w&#45;&gt;Individual:name:w</title>
<path fill="none" stroke="darkgreen" stroke-width="2" stroke-dasharray="5,2" d="M798,-626C784.72,-626 797.279,-158.383 789,-148 747.603,-96.083 685.38,-163.93 644,-112 631.383,-96.1658 622.21,-68.8385 633.315,-59.9125"/>
<polygon fill="darkgreen" stroke="darkgreen" stroke-width="2" points="643,-57 634.72,-64.1893 638.356,-58.9188 633.568,-60.3587 633.424,-59.8799 633.28,-59.4011 638.068,-57.9611 632.128,-55.5705 643,-57 643,-57"/>
</g>
<!-- Biosample -->
<g id="node8" class="node"><title>Biosample</title>
<polygon fill="#002060" stroke="none" points="427,-152 427,-264 595,-264 595,-152 427,-152"/>
<polygon fill="#79a6ff" stroke="none" points="427,-227 427,-264 595,-264 595,-227 427,-227"/>
<polygon fill="none" stroke="#002060" stroke-width="3" points="428.5,-228.5 428.5,-262.5 593.5,-262.5 593.5,-228.5 428.5,-228.5"/>
<text text-anchor="start" x="468.5" y="-240.5" font-family="Times,serif" font-size="20.00" fill="white">Biosample</text>
<polygon fill="none" stroke="#002060" points="427,-202 427,-227 490,-227 490,-202 427,-202"/>
<text text-anchor="start" x="432" y="-210.8" font-family="Times,serif" font-size="14.00" fill="white">&#45; name</text>
<polygon fill="none" stroke="#002060" points="490,-202 490,-227 595,-227 595,-202 490,-202"/>
<text text-anchor="start" x="495" y="-210.8" font-family="Times,serif" font-size="14.00" fill="white">&#45; sampleType</text>
<polygon fill="none" stroke="#002060" points="427,-177 427,-202 490,-202 490,-177 427,-177"/>
<text text-anchor="start" x="432" y="-185.8" font-family="Times,serif" font-size="14.00" fill="white">&#45; source</text>
<polygon fill="none" stroke="#002060" points="490,-177 490,-202 595,-202 595,-177 490,-177"/>
<text text-anchor="start" x="495" y="-185.8" font-family="Times,serif" font-size="14.00" fill="white">&#45; sampleOfEdges</text>
<polygon fill="none" stroke="#002060" points="427,-152 427,-177 490,-177 490,-152 427,-152"/>
<text text-anchor="start" x="432" y="-160.8" font-family="Times,serif" font-size="14.00" fill="white">&#45; barcode</text>
</g>
<!-- PhenotypeAssociation&#45;&gt;Biosample -->
<g id="edge3" class="edge"><title>PhenotypeAssociation:hasGenotypeEdges:w&#45;&gt;Biosample:name:w</title>
<path fill="none" stroke="darkgreen" stroke-width="2" stroke-dasharray="5,2" d="M798,-626C796.969,-626 519.631,-524.816 519,-524 458.954,-446.269 553.326,-385.158 498,-304 478.071,-274.767 445.799,-297.972 427,-268 416.829,-251.784 406.972,-226.931 416.271,-218.181"/>
<polygon fill="darkgreen" stroke="darkgreen" stroke-width="2" points="426,-215 417.893,-222.385 421.403,-217.029 416.65,-218.583 416.495,-218.108 416.34,-217.632 421.092,-216.079 415.097,-213.83 426,-215 426,-215"/>
</g>
<!-- VariantCall -->
<g id="node9" class="node"><title>VariantCall</title>
<polygon fill="#002060" stroke="none" points="536.5,-308 536.5,-520 771.5,-520 771.5,-308 536.5,-308"/>
<polygon fill="#79a6ff" stroke="none" points="537,-483 537,-520 772,-520 772,-483 537,-483"/>
<polygon fill="none" stroke="#002060" stroke-width="3" points="538.5,-484.5 538.5,-518.5 770.5,-518.5 770.5,-484.5 538.5,-484.5"/>
<text text-anchor="start" x="608" y="-496.5" font-family="Times,serif" font-size="20.00" fill="white">VariantCall</text>
<polygon fill="none" stroke="#002060" points="537,-458 537,-483 640,-483 640,-458 537,-458"/>
<text text-anchor="start" x="542" y="-466.8" font-family="Times,serif" font-size="14.00" fill="white">&#45; name</text>
<polygon fill="none" stroke="#002060" points="640,-458 640,-483 772,-483 772,-458 640,-458"/>
<text text-anchor="start" x="645" y="-466.8" font-family="Times,serif" font-size="14.00" fill="white">&#45; tumorAllele2</text>
<polygon fill="none" stroke="#002060" points="537,-433 537,-458 640,-458 640,-433 537,-433"/>
<text text-anchor="start" x="542" y="-441.8" font-family="Times,serif" font-size="14.00" fill="white">&#45; source</text>
<polygon fill="none" stroke="#002060" points="640,-433 640,-458 772,-458 772,-433 640,-433"/>
<text text-anchor="start" x="645" y="-441.8" font-family="Times,serif" font-size="14.00" fill="white">&#45; sequencer</text>
<polygon fill="none" stroke="#002060" points="537,-408 537,-433 640,-433 640,-408 537,-408"/>
<text text-anchor="start" x="542" y="-416.8" font-family="Times,serif" font-size="14.00" fill="white">&#45; variantType</text>
<polygon fill="none" stroke="#002060" points="640,-408 640,-433 772,-433 772,-408 640,-408"/>
<text text-anchor="start" x="645" y="-416.8" font-family="Times,serif" font-size="14.00" fill="white">&#45; atPositionEdges</text>
<polygon fill="none" stroke="#002060" points="537,-383 537,-408 640,-408 640,-383 537,-383"/>
<text text-anchor="start" x="542" y="-391.8" font-family="Times,serif" font-size="14.00" fill="white">&#45; referenceAllele</text>
<polygon fill="none" stroke="#002060" points="640,-383 640,-408 772,-408 772,-383 640,-383"/>
<text text-anchor="start" x="645" y="-391.8" font-family="Times,serif" font-size="14.00" fill="white">&#45; tumorSampleEdges</text>
<polygon fill="none" stroke="#002060" points="537,-358 537,-383 640,-383 640,-358 537,-358"/>
<text text-anchor="start" x="542" y="-366.8" font-family="Times,serif" font-size="14.00" fill="white">&#45; normalAllele1</text>
<polygon fill="none" stroke="#002060" points="640,-358 640,-383 772,-383 772,-358 640,-358"/>
<text text-anchor="start" x="645" y="-366.8" font-family="Times,serif" font-size="14.00" fill="white">&#45; normalSampleEdges</text>
<polygon fill="none" stroke="#002060" points="537,-333 537,-358 640,-358 640,-333 537,-333"/>
<text text-anchor="start" x="542" y="-341.8" font-family="Times,serif" font-size="14.00" fill="white">&#45; normalAllele2</text>
<polygon fill="none" stroke="#002060" points="640,-333 640,-358 772,-358 772,-333 640,-333"/>
<text text-anchor="start" x="645" y="-341.8" font-family="Times,serif" font-size="14.00" fill="white">&#45; info</text>
<polygon fill="none" stroke="#002060" points="537,-308 537,-333 640,-333 640,-308 537,-308"/>
<text text-anchor="start" x="542" y="-316.8" font-family="Times,serif" font-size="14.00" fill="white">&#45; tumorAllele1</text>
</g>
<!-- PhenotypeAssociation&#45;&gt;VariantCall -->
<g id="edge2" class="edge"><title>PhenotypeAssociation:hasGenotypeEdges:w&#45;&gt;VariantCall:name:w</title>
<path fill="none" stroke="darkgreen" stroke-width="2" stroke-dasharray="5,2" d="M798,-626C790.216,-626 541.45,-530.387 537,-524 526.057,-508.294 516.683,-483.122 526.189,-474.235"/>
<polygon fill="darkgreen" stroke="darkgreen" stroke-width="2" points="536,-471 527.912,-478.405 531.408,-473.041 526.659,-474.606 526.503,-474.131 526.346,-473.657 531.095,-472.091 525.094,-469.858 536,-471 536,-471"/>
</g>
<!-- Feature -->
<g id="node12" class="node"><title>Feature</title>
<polygon fill="#002060" stroke="none" points="362.5,-383 362.5,-445 481.5,-445 481.5,-383 362.5,-383"/>
<polygon fill="#79a6ff" stroke="none" points="363,-408 363,-445 482,-445 482,-408 363,-408"/>
<polygon fill="none" stroke="#002060" stroke-width="3" points="364.5,-409.5 364.5,-443.5 480.5,-443.5 480.5,-409.5 364.5,-409.5"/>
<text text-anchor="start" x="392" y="-421.5" font-family="Times,serif" font-size="20.00" fill="white">Feature</text>
<polygon fill="none" stroke="#002060" points="363,-383 363,-408 413,-408 413,-383 363,-383"/>
<text text-anchor="start" x="368" y="-391.8" font-family="Times,serif" font-size="14.00" fill="white">&#45; name</text>
<polygon fill="none" stroke="#002060" points="413,-383 413,-408 482,-408 482,-383 413,-383"/>
<text text-anchor="start" x="418" y="-391.8" font-family="Times,serif" font-size="14.00" fill="white">&#45; attributes</text>
</g>
<!-- PhenotypeAssociation&#45;&gt;Feature -->
<g id="edge5" class="edge"><title>PhenotypeAssociation:hasGenotypeEdges:w&#45;&gt;Feature:name:w</title>
<path fill="none" stroke="darkgreen" stroke-width="2" stroke-dasharray="5,2" d="M798,-626C711.957,-626 697.416,-587.836 616,-560 566.526,-543.085 552.16,-544.358 504,-524 438.621,-496.364 400.114,-509.504 363,-449 352.704,-432.215 342.474,-406.631 352.381,-397.978"/>
<polygon fill="darkgreen" stroke="darkgreen" stroke-width="2" points="362,-395 353.778,-402.256 357.372,-396.956 352.595,-398.435 352.447,-397.958 352.299,-397.48 357.076,-396.001 351.116,-393.659 362,-395 362,-395"/>
</g>
<!-- PhenotypeAssociation&#45;&gt;Drug -->
<g id="edge11" class="edge"><title>PhenotypeAssociation:hasContextEdges:w&#45;&gt;Drug:name:w</title>
<path fill="none" stroke="darkgreen" stroke-width="2" stroke-dasharray="5,2" d="M927,-651C820.403,-651 1135.07,-525.241 1136,-524 1149.49,-506.023 1133.11,-433.18 1144.55,-412.499"/>
<polygon fill="darkgreen" stroke="darkgreen" stroke-width="2" points="1153,-407 1147.07,-416.225 1149.08,-410.145 1144.89,-412.872 1144.62,-412.453 1144.34,-412.033 1148.54,-409.307 1142.16,-408.68 1153,-407 1153,-407"/>
</g>
<!-- VariantCallEffect -->
<g id="node7" class="node"><title>VariantCallEffect</title>
<polygon fill="#002060" stroke="none" points="363,-564 363,-726 599,-726 599,-564 363,-564"/>
<polygon fill="#79a6ff" stroke="none" points="363,-689 363,-726 599,-726 599,-689 363,-689"/>
<polygon fill="none" stroke="#002060" stroke-width="3" points="364.5,-690.5 364.5,-724.5 597.5,-724.5 597.5,-690.5 364.5,-690.5"/>
<text text-anchor="start" x="410" y="-702.5" font-family="Times,serif" font-size="20.00" fill="white">VariantCallEffect</text>
<polygon fill="none" stroke="#002060" points="363,-664 363,-689 495,-689 495,-664 363,-664"/>
<text text-anchor="start" x="368" y="-672.8" font-family="Times,serif" font-size="14.00" fill="white">&#45; name</text>
<polygon fill="none" stroke="#002060" points="495,-664 495,-689 599,-689 599,-664 495,-664"/>
<text text-anchor="start" x="500" y="-672.8" font-family="Times,serif" font-size="14.00" fill="white">&#45; effectOfEdges</text>
<polygon fill="none" stroke="#002060" points="363,-639 363,-664 495,-664 495,-639 363,-639"/>
<text text-anchor="start" x="368" y="-647.8" font-family="Times,serif" font-size="14.00" fill="white">&#45; source</text>
<polygon fill="none" stroke="#002060" points="495,-639 495,-664 599,-664 599,-639 495,-639"/>
<text text-anchor="start" x="500" y="-647.8" font-family="Times,serif" font-size="14.00" fill="white">&#45; dbsnpRS</text>
<polygon fill="none" stroke="#002060" points="363,-614 363,-639 495,-639 495,-614 363,-614"/>
<text text-anchor="start" x="368" y="-622.8" font-family="Times,serif" font-size="14.00" fill="white">&#45; variantClassification</text>
<polygon fill="none" stroke="#002060" points="495,-614 495,-639 599,-639 599,-614 495,-614"/>
<text text-anchor="start" x="500" y="-622.8" font-family="Times,serif" font-size="14.00" fill="white">&#45; dbsnpValStatus</text>
<polygon fill="none" stroke="#002060" points="363,-589 363,-614 495,-614 495,-589 363,-589"/>
<text text-anchor="start" x="368" y="-597.8" font-family="Times,serif" font-size="14.00" fill="white">&#45; inDomainEdges</text>
<polygon fill="none" stroke="#002060" points="495,-589 495,-614 599,-614 599,-589 495,-589"/>
<text text-anchor="start" x="500" y="-597.8" font-family="Times,serif" font-size="14.00" fill="white">&#45; info</text>
<polygon fill="none" stroke="#002060" points="363,-564 363,-589 495,-589 495,-564 363,-564"/>
<text text-anchor="start" x="368" y="-572.8" font-family="Times,serif" font-size="14.00" fill="white">&#45; inFeatureEdges</text>
</g>
<!-- VariantCallEffect&#45;&gt;VariantCall -->
<g id="edge10" class="edge"><title>VariantCallEffect:effectOfEdges:w&#45;&gt;VariantCall:name:w</title>
<path fill="none" stroke="darkgreen" stroke-width="2" stroke-dasharray="5,2" d="M495,-676C474.221,-676 504.837,-511.962 528.153,-477.36"/>
<polygon fill="darkgreen" stroke="darkgreen" stroke-width="2" points="536,-471 531.065,-480.793 532.431,-474.537 528.546,-477.685 528.231,-477.297 527.917,-476.908 531.801,-473.76 525.398,-473.801 536,-471 536,-471"/>
</g>
<!-- Domain -->
<g id="node10" class="node"><title>Domain</title>
<polygon fill="#002060" stroke="none" points="249.5,-383 249.5,-445 328.5,-445 328.5,-383 249.5,-383"/>
<polygon fill="#79a6ff" stroke="none" points="250,-408 250,-445 329,-445 329,-408 250,-408"/>
<polygon fill="none" stroke="#002060" stroke-width="3" points="251.5,-409.5 251.5,-443.5 327.5,-443.5 327.5,-409.5 251.5,-409.5"/>
<text text-anchor="start" x="257.5" y="-421.5" font-family="Times,serif" font-size="20.00" fill="white">Domain</text>
<polygon fill="none" stroke="#002060" points="250,-383 250,-408 314,-408 314,-383 250,-383"/>
<text text-anchor="start" x="255" y="-391.8" font-family="Times,serif" font-size="14.00" fill="white">&#45; name</text>
</g>
<!-- VariantCallEffect&#45;&gt;Domain -->
<g id="edge6" class="edge"><title>VariantCallEffect:inDomainEdges:w&#45;&gt;Domain:name:w</title>
<path fill="none" stroke="darkgreen" stroke-width="2" stroke-dasharray="5,2" d="M362,-601C314.07,-601 214.917,-427.411 239.361,-398.931"/>
<polygon fill="darkgreen" stroke="darkgreen" stroke-width="2" points="249,-395 241.44,-402.943 244.559,-397.351 239.929,-399.24 239.741,-398.777 239.552,-398.314 244.181,-396.425 238.041,-394.61 249,-395 249,-395"/>
</g>
<!-- VariantCallEffect&#45;&gt;Feature -->
<g id="edge17" class="edge"><title>VariantCallEffect:inFeatureEdges:w&#45;&gt;Feature:name:w</title>
<path fill="none" stroke="darkgreen" stroke-width="2" stroke-dasharray="5,2" d="M362,-576C344.403,-576 342.203,-437.422 355.401,-402.777"/>
<polygon fill="darkgreen" stroke="darkgreen" stroke-width="2" points="362,-395 358.961,-405.537 359.146,-399.136 355.911,-402.949 355.53,-402.625 355.149,-402.302 358.384,-398.489 352.099,-399.714 362,-395 362,-395"/>
</g>
<!-- Biosample&#45;&gt;Individual -->
<g id="edge16" class="edge"><title>Biosample:sampleOfEdges:w&#45;&gt;Individual:name:w</title>
<path fill="none" stroke="darkgreen" stroke-width="2" stroke-dasharray="5,2" d="M490,-188C403.802,-188 542.459,-66.5423 632.787,-57.5278"/>
<polygon fill="darkgreen" stroke="darkgreen" stroke-width="2" points="643,-57 633.246,-62.0102 638.032,-57.7574 633.039,-58.0156 633.013,-57.5162 632.988,-57.0169 637.981,-56.7588 632.781,-53.0222 643,-57 643,-57"/>
</g>
<!-- VariantCall&#45;&gt;Position -->
<g id="edge9" class="edge"><title>VariantCall:atPositionEdges:w&#45;&gt;Position:name:w</title>
<path fill="none" stroke="darkgreen" stroke-width="2" stroke-dasharray="5,2" d="M640,-420C619.863,-420 608.93,-260.232 622.338,-222.786"/>
<polygon fill="darkgreen" stroke="darkgreen" stroke-width="2" points="629,-215 625.918,-225.524 626.129,-219.124 622.879,-222.923 622.499,-222.598 622.119,-222.273 625.369,-218.474 619.079,-219.673 629,-215 629,-215"/>
</g>
<!-- VariantCall&#45;&gt;Biosample -->
<g id="edge1" class="edge"><title>VariantCall:normalSampleEdges:w&#45;&gt;Biosample:name:w</title>
<path fill="none" stroke="darkgreen" stroke-width="2" stroke-dasharray="5,2" d="M640,-369C576.988,-369 571.163,-330.514 514,-304 476.039,-286.392 450.582,-302.569 427,-268 416.213,-252.187 406.741,-227.082 416.206,-218.223"/>
<polygon fill="darkgreen" stroke="darkgreen" stroke-width="2" points="426,-215 417.908,-222.401 421.407,-217.038 416.657,-218.601 416.501,-218.126 416.345,-217.651 421.094,-216.088 415.094,-213.852 426,-215 426,-215"/>
</g>
<!-- VariantCall&#45;&gt;Biosample -->
<g id="edge14" class="edge"><title>VariantCall:tumorSampleEdges:w&#45;&gt;Biosample:name:w</title>
<path fill="none" stroke="darkgreen" stroke-width="2" stroke-dasharray="5,2" d="M640,-394C571.181,-394 574.185,-337.373 514,-304 477.403,-283.707 450.582,-302.569 427,-268 416.213,-252.187 406.741,-227.082 416.206,-218.223"/>
<polygon fill="darkgreen" stroke="darkgreen" stroke-width="2" points="426,-215 417.908,-222.401 421.407,-217.038 416.657,-218.601 416.501,-218.126 416.345,-217.651 421.094,-216.088 415.094,-213.852 426,-215 426,-215"/>
</g>
<!-- GeneExpression -->
<g id="node11" class="node"><title>GeneExpression</title>
<polygon fill="#002060" stroke="none" points="24.5,-358 24.5,-470 215.5,-470 215.5,-358 24.5,-358"/>
<polygon fill="#79a6ff" stroke="none" points="25,-433 25,-470 216,-470 216,-433 25,-433"/>
<polygon fill="none" stroke="#002060" stroke-width="3" points="26.5,-434.5 26.5,-468.5 214.5,-468.5 214.5,-434.5 26.5,-434.5"/>
<text text-anchor="start" x="55.5" y="-446.5" font-family="Times,serif" font-size="20.00" fill="white">GeneExpression</text>
<polygon fill="none" stroke="#002060" points="25,-408 25,-433 88,-433 88,-408 25,-408"/>
<text text-anchor="start" x="30" y="-416.8" font-family="Times,serif" font-size="14.00" fill="white">&#45; name</text>
<polygon fill="none" stroke="#002060" points="88,-408 88,-433 216,-433 216,-408 88,-408"/>
<text text-anchor="start" x="93" y="-416.8" font-family="Times,serif" font-size="14.00" fill="white">&#45; expressionForEdges</text>
<polygon fill="none" stroke="#002060" points="25,-383 25,-408 88,-408 88,-383 25,-383"/>
<text text-anchor="start" x="30" y="-391.8" font-family="Times,serif" font-size="14.00" fill="white">&#45; source</text>
<polygon fill="none" stroke="#002060" points="88,-383 88,-408 216,-408 216,-383 88,-383"/>
<text text-anchor="start" x="93" y="-391.8" font-family="Times,serif" font-size="14.00" fill="white">&#45; expressions</text>
<polygon fill="none" stroke="#002060" points="25,-358 25,-383 88,-383 88,-358 25,-358"/>
<text text-anchor="start" x="30" y="-366.8" font-family="Times,serif" font-size="14.00" fill="white">&#45; barcode</text>
</g>
<!-- GeneExpression&#45;&gt;Biosample -->
<g id="edge13" class="edge"><title>GeneExpression:expressionForEdges:w&#45;&gt;Biosample:name:w</title>
<path fill="none" stroke="darkgreen" stroke-width="2" stroke-dasharray="5,2" d="M88,-420C-84.3471,-420 237.62,-222.733 415.791,-215.22"/>
<polygon fill="darkgreen" stroke="darkgreen" stroke-width="2" points="426,-215 416.099,-219.715 421.012,-215.608 416.013,-215.716 416.002,-215.216 415.992,-214.716 420.99,-214.608 415.905,-210.717 426,-215 426,-215"/>
</g>
</g>
</svg>
