<?xml version="1.0" encoding="UTF-8" standalone="no"?>
<!DOCTYPE svg PUBLIC "-//W3C//DTD SVG 1.1//EN"
 "http://www.w3.org/Graphics/SVG/1.1/DTD/svg11.dtd">
<!-- Generated by graphviz version 2.36.0 (20140111.2315)
 -->
<!-- Title: UML Pages: 1 -->
<svg width="761pt" height="521pt"
 viewBox="0.00 0.00 760.78 521.00" xmlns="http://www.w3.org/2000/svg" xmlns:xlink="http://www.w3.org/1999/xlink">
<g id="graph0" class="graph" transform="scale(1 1) rotate(0) translate(4 517)">
<title>UML</title>
<polygon fill="white" stroke="none" points="-4,4 -4,-517 756.783,-517 756.783,4 -4,4"/>
<g id="clust1" class="cluster"><title>cluster_simple_schema_proto</title>
<g id="a_clust1"><a xlink:href="https://github.com/bmeg/importers/blob/master/converters/simple_schema.proto" xlink:title="simple_schema_proto">
<path fill="lightgrey" stroke="lightgrey" d="M20.783,-8C20.783,-8 732.783,-8 732.783,-8 738.783,-8 744.783,-14 744.783,-20 744.783,-20 744.783,-493 744.783,-493 744.783,-499 738.783,-505 732.783,-505 732.783,-505 20.783,-505 20.783,-505 14.783,-505 8.78304,-499 8.78304,-493 8.78304,-493 8.78304,-20 8.78304,-20 8.78304,-14 14.783,-8 20.783,-8"/>
<text text-anchor="middle" x="376.783" y="-489.8" font-family="Times,serif" font-size="14.00">simple_schema_proto</text>
</a>
</g>
</g>
<!-- Feature -->
<g id="node1" class="node"><title>Feature</title>
<polygon fill="#002060" stroke="none" points="388.783,-343.5 388.783,-458.5 728.783,-458.5 728.783,-343.5 388.783,-343.5"/>
<polygon fill="#79a6ff" stroke="none" points="388.783,-393 388.783,-458 728.783,-458 728.783,-393 388.783,-393"/>
<polygon fill="none" stroke="#002060" stroke-width="3" points="390.283,-394.5 390.283,-456.5 727.283,-456.5 727.283,-394.5 390.283,-394.5"/>
<text text-anchor="start" x="528.283" y="-435.5" font-family="Times,serif" font-size="20.00" fill="white">Feature</text>
<text text-anchor="start" x="396.283" y="-419.5" font-family="Times,serif" font-size="15.00" fill="white">Node in annotation graph that annotates a contiguous</text>
<text text-anchor="start" x="495.783" y="-404.5" font-family="Times,serif" font-size="15.00" fill="white">region of a sequence</text>
<polygon fill="none" stroke="#002060" points="388.783,-368 388.783,-393 547.783,-393 547.783,-368 388.783,-368"/>
<text text-anchor="start" x="393.783" y="-376.8" font-family="Times,serif" font-size="14.00" fill="white">&#45; id</text>
<polygon fill="none" stroke="#002060" points="547.783,-368 547.783,-393 728.783,-393 728.783,-368 547.783,-368"/>
<text text-anchor="start" x="552.783" y="-376.8" font-family="Times,serif" font-size="14.00" fill="white">&#45; featureType</text>
<polygon fill="none" stroke="#002060" points="388.783,-343 388.783,-368 547.783,-368 547.783,-343 388.783,-343"/>
<text text-anchor="start" x="393.783" y="-351.8" font-family="Times,serif" font-size="14.00" fill="white">&#45; position</text>
<polygon fill="none" stroke="#002060" points="547.783,-343 547.783,-368 728.783,-368 728.783,-343 547.783,-343"/>
<text text-anchor="start" x="552.783" y="-351.8" font-family="Times,serif" font-size="14.00" fill="white">&#45; attributes</text>
</g>
<!-- Position -->
<g id="node5" class="node"><title>Position</title>
<polygon fill="#002060" stroke="none" points="573.283,-188.5 573.283,-275.5 728.283,-275.5 728.283,-188.5 573.283,-188.5"/>
<polygon fill="#79a6ff" stroke="none" points="573.783,-238 573.783,-275 728.783,-275 728.783,-238 573.783,-238"/>
<polygon fill="none" stroke="#002060" stroke-width="3" points="575.283,-239.5 575.283,-273.5 727.283,-273.5 727.283,-239.5 575.283,-239.5"/>
<text text-anchor="start" x="619.283" y="-251.5" font-family="Times,serif" font-size="20.00" fill="white">Position</text>
<polygon fill="none" stroke="#002060" points="573.783,-213 573.783,-238 676.783,-238 676.783,-213 573.783,-213"/>
<text text-anchor="start" x="578.783" y="-221.8" font-family="Times,serif" font-size="14.00" fill="white">&#45; referenceName</text>
<polygon fill="none" stroke="#002060" points="676.783,-213 676.783,-238 728.783,-238 728.783,-213 676.783,-213"/>
<text text-anchor="start" x="681.783" y="-221.8" font-family="Times,serif" font-size="14.00" fill="white">&#45; end</text>
<polygon fill="none" stroke="#002060" points="573.783,-188 573.783,-213 676.783,-213 676.783,-188 573.783,-188"/>
<text text-anchor="start" x="578.783" y="-196.8" font-family="Times,serif" font-size="14.00" fill="white">&#45; start</text>
<polygon fill="none" stroke="#002060" points="676.783,-188 676.783,-213 728.783,-213 728.783,-188 676.783,-188"/>
<text text-anchor="start" x="681.783" y="-196.8" font-family="Times,serif" font-size="14.00" fill="white">&#45; strand</text>
</g>
<!-- Feature&#45;&gt;Position -->
<g id="edge6" class="edge"><title>Feature:position:w&#45;&gt;Position</title>
<path fill="none" stroke="#c55a11" stroke-width="2" d="M386.241,-342.857C386.998,-341.455 387.874,-340.126 388.783,-339 437.233,-279.017 485.224,-323.092 555.783,-292 564.044,-288.36 572.439,-284.095 580.646,-279.553"/>
<polygon fill="none" stroke="#c55a11" stroke-width="2" points="386.271,-343.096 390.995,-348.544 387.783,-355 383.059,-349.552 386.271,-343.096"/>
</g>
<!-- VariantCallEffect -->
<g id="node2" class="node"><title>VariantCallEffect</title>
<polygon fill="#002060" stroke="none" points="25.283,-176 25.283,-288 182.283,-288 182.283,-176 25.283,-176"/>
<polygon fill="#79a6ff" stroke="none" points="25.783,-251 25.783,-288 182.783,-288 182.783,-251 25.783,-251"/>
<polygon fill="none" stroke="#002060" stroke-width="3" points="27.283,-252.5 27.283,-286.5 181.283,-286.5 181.283,-252.5 27.283,-252.5"/>
<text text-anchor="start" x="33.283" y="-264.5" font-family="Times,serif" font-size="20.00" fill="white">VariantCallEffect</text>
<polygon fill="none" stroke="#002060" points="25.783,-226 25.783,-251 121.783,-251 121.783,-226 25.783,-226"/>
<text text-anchor="start" x="30.783" y="-234.8" font-family="Times,serif" font-size="14.00" fill="white">&#45; id</text>
<polygon fill="none" stroke="#002060" points="121.783,-226 121.783,-251 182.783,-251 182.783,-226 121.783,-226"/>
<text text-anchor="start" x="126.783" y="-234.8" font-family="Times,serif" font-size="14.00" fill="white">&#45; feature</text>
<polygon fill="none" stroke="#002060" points="25.783,-201 25.783,-226 121.783,-226 121.783,-201 25.783,-201"/>
<text text-anchor="start" x="30.783" y="-209.8" font-family="Times,serif" font-size="14.00" fill="white">&#45; source</text>
<polygon fill="none" stroke="#002060" points="121.783,-201 121.783,-226 182.783,-226 182.783,-201 121.783,-201"/>
<text text-anchor="start" x="126.783" y="-209.8" font-family="Times,serif" font-size="14.00" fill="white">&#45; info</text>
<polygon fill="none" stroke="#002060" points="25.783,-176 25.783,-201 121.783,-201 121.783,-176 25.783,-176"/>
<text text-anchor="start" x="30.783" y="-184.8" font-family="Times,serif" font-size="14.00" fill="white">&#45; variantCallId</text>
</g>
<!-- VariantCall -->
<g id="node8" class="node"><title>VariantCall</title>
<polygon fill="#002060" stroke="none" points="148.283,-332.5 148.283,-469.5 355.283,-469.5 355.283,-332.5 148.283,-332.5"/>
<polygon fill="#79a6ff" stroke="none" points="148.783,-432 148.783,-469 355.783,-469 355.783,-432 148.783,-432"/>
<polygon fill="none" stroke="#002060" stroke-width="3" points="150.283,-433.5 150.283,-467.5 354.283,-467.5 354.283,-433.5 150.283,-433.5"/>
<text text-anchor="start" x="205.783" y="-445.5" font-family="Times,serif" font-size="20.00" fill="white">VariantCall</text>
<polygon fill="none" stroke="#002060" points="148.783,-407 148.783,-432 238.783,-432 238.783,-407 148.783,-407"/>
<text text-anchor="start" x="153.783" y="-415.8" font-family="Times,serif" font-size="14.00" fill="white">&#45; id</text>
<polygon fill="none" stroke="#002060" points="238.783,-407 238.783,-432 355.783,-432 355.783,-407 238.783,-407"/>
<text text-anchor="start" x="243.783" y="-415.8" font-family="Times,serif" font-size="14.00" fill="white">&#45; referenceBases</text>
<polygon fill="none" stroke="#002060" points="148.783,-382 148.783,-407 238.783,-407 238.783,-382 148.783,-382"/>
<text text-anchor="start" x="153.783" y="-390.8" font-family="Times,serif" font-size="14.00" fill="white">&#45; source</text>
<polygon fill="none" stroke="#002060" points="238.783,-382 238.783,-407 355.783,-407 355.783,-382 238.783,-382"/>
<text text-anchor="start" x="243.783" y="-390.8" font-family="Times,serif" font-size="14.00" fill="white">&#45; genotype</text>
<polygon fill="none" stroke="#002060" points="148.783,-357 148.783,-382 238.783,-382 238.783,-357 148.783,-357"/>
<text text-anchor="start" x="153.783" y="-365.8" font-family="Times,serif" font-size="14.00" fill="white">&#45; bioSampleId</text>
<polygon fill="none" stroke="#002060" points="238.783,-357 238.783,-382 355.783,-382 355.783,-357 238.783,-357"/>
<text text-anchor="start" x="243.783" y="-365.8" font-family="Times,serif" font-size="14.00" fill="white">&#45; variantCallEffects</text>
<polygon fill="none" stroke="#002060" points="148.783,-332 148.783,-357 238.783,-357 238.783,-332 148.783,-332"/>
<text text-anchor="start" x="153.783" y="-340.8" font-family="Times,serif" font-size="14.00" fill="white">&#45; position</text>
<polygon fill="none" stroke="#002060" points="238.783,-332 238.783,-357 355.783,-357 355.783,-332 238.783,-332"/>
<text text-anchor="start" x="243.783" y="-340.8" font-family="Times,serif" font-size="14.00" fill="white">&#45; info</text>
</g>
<!-- VariantCallEffect&#45;&gt;VariantCall -->
<g id="edge10" class="edge"><title>VariantCallEffect:variantCallId:w&#45;&gt;VariantCall:id:w</title>
<path fill="none" stroke="darkgreen" stroke-width="2" stroke-dasharray="5,2" d="M24.783,-188C-21.4413,-188 8.40126,-249.168 25.783,-292 54.0078,-361.551 67.9163,-415.007 137.576,-419.669"/>
<polygon fill="darkgreen" stroke="darkgreen" stroke-width="2" points="147.783,-420 137.643,-424.174 142.769,-420.338 137.772,-420.176 137.788,-419.676 137.804,-419.176 142.802,-419.338 137.934,-415.178 147.783,-420 147.783,-420"/>
</g>
<!-- Individual -->
<g id="node3" class="node"><title>Individual</title>
<polygon fill="#002060" stroke="none" points="271.783,-20 271.783,-132 413.783,-132 413.783,-20 271.783,-20"/>
<polygon fill="#79a6ff" stroke="none" points="271.783,-95 271.783,-132 413.783,-132 413.783,-95 271.783,-95"/>
<polygon fill="none" stroke="#002060" stroke-width="3" points="273.283,-96.5 273.283,-130.5 412.283,-130.5 412.283,-96.5 273.283,-96.5"/>
<text text-anchor="start" x="302.283" y="-108.5" font-family="Times,serif" font-size="20.00" fill="white">Individual</text>
<polygon fill="none" stroke="#002060" points="271.783,-70 271.783,-95 326.783,-95 326.783,-70 271.783,-70"/>
<text text-anchor="start" x="276.783" y="-78.8" font-family="Times,serif" font-size="14.00" fill="white">&#45; id</text>
<polygon fill="none" stroke="#002060" points="326.783,-70 326.783,-95 413.783,-95 413.783,-70 326.783,-70"/>
<text text-anchor="start" x="331.783" y="-78.8" font-family="Times,serif" font-size="14.00" fill="white">&#45; bioSamples</text>
<polygon fill="none" stroke="#002060" points="271.783,-45 271.783,-70 326.783,-70 326.783,-45 271.783,-45"/>
<text text-anchor="start" x="276.783" y="-53.8" font-family="Times,serif" font-size="14.00" fill="white">&#45; source</text>
<polygon fill="none" stroke="#002060" points="326.783,-45 326.783,-70 413.783,-70 413.783,-45 326.783,-45"/>
<text text-anchor="start" x="331.783" y="-53.8" font-family="Times,serif" font-size="14.00" fill="white">&#45; observations</text>
<polygon fill="none" stroke="#002060" points="271.783,-20 271.783,-45 326.783,-45 326.783,-20 271.783,-20"/>
<text text-anchor="start" x="276.783" y="-28.8" font-family="Times,serif" font-size="14.00" fill="white">&#45; name</text>
</g>
<!-- BioSample -->
<g id="node4" class="node"><title>BioSample</title>
<polygon fill="#002060" stroke="none" points="216.783,-176 216.783,-288 378.783,-288 378.783,-176 216.783,-176"/>
<polygon fill="#79a6ff" stroke="none" points="216.783,-251 216.783,-288 378.783,-288 378.783,-251 216.783,-251"/>
<polygon fill="none" stroke="#002060" stroke-width="3" points="218.283,-252.5 218.283,-286.5 377.283,-286.5 377.283,-252.5 218.283,-252.5"/>
<text text-anchor="start" x="253.283" y="-264.5" font-family="Times,serif" font-size="20.00" fill="white">BioSample</text>
<polygon fill="none" stroke="#002060" points="216.783,-226 216.783,-251 271.783,-251 271.783,-226 216.783,-226"/>
<text text-anchor="start" x="221.783" y="-234.8" font-family="Times,serif" font-size="14.00" fill="white">&#45; id</text>
<polygon fill="none" stroke="#002060" points="271.783,-226 271.783,-251 378.783,-251 378.783,-226 271.783,-226"/>
<text text-anchor="start" x="276.783" y="-234.8" font-family="Times,serif" font-size="14.00" fill="white">&#45; individualId</text>
<polygon fill="none" stroke="#002060" points="216.783,-201 216.783,-226 271.783,-226 271.783,-201 216.783,-201"/>
<text text-anchor="start" x="221.783" y="-209.8" font-family="Times,serif" font-size="14.00" fill="white">&#45; source</text>
<polygon fill="none" stroke="#002060" points="271.783,-201 271.783,-226 378.783,-226 378.783,-201 271.783,-201"/>
<text text-anchor="start" x="276.783" y="-209.8" font-family="Times,serif" font-size="14.00" fill="white">&#45; individualName</text>
<polygon fill="none" stroke="#002060" points="216.783,-176 216.783,-201 271.783,-201 271.783,-176 216.783,-176"/>
<text text-anchor="start" x="221.783" y="-184.8" font-family="Times,serif" font-size="14.00" fill="white">&#45; name</text>
<polygon fill="none" stroke="#002060" points="271.783,-176 271.783,-201 378.783,-201 378.783,-176 271.783,-176"/>
<text text-anchor="start" x="276.783" y="-184.8" font-family="Times,serif" font-size="14.00" fill="white">&#45; variantCalls</text>
</g>
<!-- Individual&#45;&gt;BioSample -->
<g id="edge7" class="edge"><title>Individual:bioSamples:w&#45;&gt;BioSample</title>
<path fill="none" stroke="#c55a11" stroke-width="2" d="M314.895,-85.8445C288.27,-94.8941 285.187,-135.616 288.103,-171.633"/>
<polygon fill="none" stroke="#c55a11" stroke-width="2" points="314.925,-85.8399 320.241,-80.9672 326.783,-84 321.467,-88.8727 314.925,-85.8399"/>
</g>
<!-- BioSample&#45;&gt;Individual -->
<g id="edge9" class="edge"><title>BioSample:individualId:w&#45;&gt;Individual:id:w</title>
<path fill="none" stroke="darkgreen" stroke-width="2" stroke-dasharray="5,2" d="M271.783,-238C206.391,-238 202.169,-98.3425 260.828,-84.1585"/>
<polygon fill="darkgreen" stroke="darkgreen" stroke-width="2" points="270.783,-83 261.37,-88.6259 265.874,-84.0747 260.908,-84.6527 260.85,-84.1561 260.792,-83.6594 265.759,-83.0814 260.33,-79.6863 270.783,-83 270.783,-83"/>
</g>
<!-- BioSample&#45;&gt;VariantCall -->
<g id="edge5" class="edge"><title>BioSample:variantCalls:w&#45;&gt;VariantCall</title>
<path fill="none" stroke="#c55a11" stroke-width="2" d="M259.748,-190.317C215.283,-200.8 220.464,-271.761 232.216,-328.271"/>
<polygon fill="none" stroke="#c55a11" stroke-width="2" points="259.854,-190.306 265.383,-185.677 271.783,-189 266.254,-193.629 259.854,-190.306"/>
</g>
<!-- Strand -->
<g id="node6" class="node"><title>Strand</title>
<polygon fill="#002060" stroke="none" points="457.283,-32.5 457.283,-119.5 728.283,-119.5 728.283,-32.5 457.283,-32.5"/>
<polygon fill="#79a6ff" stroke="none" points="457.783,-82 457.783,-119 728.783,-119 728.783,-82 457.783,-82"/>
<polygon fill="none" stroke="#002060" stroke-width="3" points="459.283,-83.5 459.283,-117.5 727.283,-117.5 727.283,-83.5 459.283,-83.5"/>
<text text-anchor="start" x="567.283" y="-95.5" font-family="Times,serif" font-size="20.00" fill="white">Strand</text>
<polygon fill="none" stroke="#002060" points="457.783,-57 457.783,-82 624.783,-82 624.783,-57 457.783,-57"/>
<text text-anchor="start" x="462.783" y="-65.8" font-family="Times,serif" font-size="14.00" fill="white">&#45; STRAND_UNSPECIFIED</text>
<polygon fill="none" stroke="#002060" points="624.783,-57 624.783,-82 728.783,-82 728.783,-57 624.783,-57"/>
<text text-anchor="start" x="629.783" y="-65.8" font-family="Times,serif" font-size="14.00" fill="white">&#45; POS_STRAND</text>
<polygon fill="none" stroke="#002060" points="457.783,-32 457.783,-57 624.783,-57 624.783,-32 457.783,-32"/>
<text text-anchor="start" x="462.783" y="-40.8" font-family="Times,serif" font-size="14.00" fill="white">&#45; NEG_STRAND</text>
</g>
<!-- Position&#45;&gt;Strand -->
<g id="edge1" class="edge"><title>Position:strand:w&#45;&gt;Strand</title>
<path fill="none" stroke="#c55a11" stroke-width="2" d="M664.859,-197.598C634.006,-190.156 615.294,-154.461 604.698,-123.819"/>
<polygon fill="none" stroke="#c55a11" stroke-width="2" points="664.865,-197.599 671.291,-194.327 676.783,-199 670.357,-202.272 664.865,-197.599"/>
</g>
<!-- IndividualList -->
<g id="node7" class="node"><title>IndividualList</title>
<polygon fill="#002060" stroke="none" points="412.783,-201 412.783,-263 538.783,-263 538.783,-201 412.783,-201"/>
<polygon fill="#79a6ff" stroke="none" points="412.783,-226 412.783,-263 538.783,-263 538.783,-226 412.783,-226"/>
<polygon fill="none" stroke="#002060" stroke-width="3" points="414.283,-227.5 414.283,-261.5 537.283,-261.5 537.283,-227.5 414.283,-227.5"/>
<text text-anchor="start" x="420.283" y="-239.5" font-family="Times,serif" font-size="20.00" fill="white">IndividualList</text>
<polygon fill="none" stroke="#002060" points="412.783,-201 412.783,-226 515.783,-226 515.783,-201 412.783,-201"/>
<text text-anchor="start" x="417.783" y="-209.8" font-family="Times,serif" font-size="14.00" fill="white">&#45; individuals</text>
</g>
<!-- IndividualList&#45;&gt;Individual -->
<g id="edge3" class="edge"><title>IndividualList:individuals:w&#45;&gt;Individual</title>
<path fill="none" stroke="#c55a11" stroke-width="2" d="M400.944,-207.346C397.077,-199.359 400.711,-184.369 394.783,-172 389.135,-160.216 382.721,-147.829 376.374,-136.034"/>
<polygon fill="none" stroke="#c55a11" stroke-width="2" points="401.144,-207.45 408.313,-206.678 411.783,-213 404.613,-213.771 401.144,-207.45"/>
</g>
<!-- VariantCall&#45;&gt;VariantCallEffect -->
<g id="edge2" class="edge"><title>VariantCall:variantCallEffects:w&#45;&gt;VariantCallEffect</title>
<path fill="none" stroke="#c55a11" stroke-width="2" d="M226.658,-367.074C186.555,-360.926 155.048,-325.227 133.983,-292.213"/>
<polygon fill="none" stroke="#c55a11" stroke-width="2" points="226.818,-367.086 233.105,-363.555 238.783,-368 232.496,-371.532 226.818,-367.086"/>
</g>
<!-- VariantCall&#45;&gt;BioSample -->
<g id="edge8" class="edge"><title>VariantCall:bioSampleId:w&#45;&gt;BioSample:id:w</title>
<path fill="none" stroke="darkgreen" stroke-width="2" stroke-dasharray="5,2" d="M147.783,-369C129.555,-369 140.276,-344.121 148.783,-328 161.563,-303.782 182.682,-314.149 198.783,-292 210.601,-275.742 198.107,-250.915 206.275,-242.176"/>
<polygon fill="darkgreen" stroke="darkgreen" stroke-width="2" points="215.783,-239 207.724,-246.437 211.199,-241.059 206.457,-242.643 206.298,-242.169 206.14,-241.694 210.882,-240.11 204.872,-237.9 215.783,-239 215.783,-239"/>
</g>
<!-- VariantCall&#45;&gt;Position -->
<g id="edge4" class="edge"><title>VariantCall:position:w&#45;&gt;Position</title>
<path fill="none" stroke="#c55a11" stroke-width="2" d="M145.87,-332.006C146.695,-330.51 147.695,-329.116 148.783,-328 212.153,-262.973 469.652,-320.733 555.783,-292 565.36,-288.805 574.966,-284.474 584.194,-279.6"/>
<polygon fill="none" stroke="#c55a11" stroke-width="2" points="145.892,-332.15 150.788,-337.445 147.783,-344 142.888,-338.705 145.892,-332.15"/>
</g>
</g>
</svg>
