<?xml version="1.0" encoding="UTF-8" standalone="no"?>
<!DOCTYPE svg PUBLIC "-//W3C//DTD SVG 1.1//EN"
 "http://www.w3.org/Graphics/SVG/1.1/DTD/svg11.dtd">
<!-- Generated by graphviz version 2.36.0 (20140111.2315)
 -->
<!-- Title: UML Pages: 1 -->
<svg width="1750pt" height="1086pt"
 viewBox="0.00 0.00 1750.24 1086.00" xmlns="http://www.w3.org/2000/svg" xmlns:xlink="http://www.w3.org/1999/xlink">
<g id="graph0" class="graph" transform="scale(1 1) rotate(0) translate(4 1082)">
<title>UML</title>
<polygon fill="white" stroke="none" points="-4,4 -4,-1082 1746.24,-1082 1746.24,4 -4,4"/>
<g id="clust1" class="cluster"><title>cluster_genotypephenotype_avdl</title>
<g id="a_clust1"><a xlink:href="https://github.com/ohsu-computational-biology/schemas/blob/ab35ee2ccf51458e4efc09d2f08bdf08e92dc270/src/main/resources/avro/genotypephenotype.avdl" xlink:title="genotypephenotype.avdl">
<path fill="lightgrey" stroke="lightgrey" d="M1108.24,-713C1108.24,-713 1722.24,-713 1722.24,-713 1728.24,-713 1734.24,-719 1734.24,-725 1734.24,-725 1734.24,-1058 1734.24,-1058 1734.24,-1064 1728.24,-1070 1722.24,-1070 1722.24,-1070 1108.24,-1070 1108.24,-1070 1102.24,-1070 1096.24,-1064 1096.24,-1058 1096.24,-1058 1096.24,-725 1096.24,-725 1096.24,-719 1102.24,-713 1108.24,-713"/>
<text text-anchor="middle" x="1415.24" y="-1054.8" font-family="Times,serif" font-size="14.00">genotypephenotype.avdl</text>
</a>
</g>
</g>
<g id="clust2" class="cluster"><title>cluster_common_avdl</title>
<g id="a_clust2"><a xlink:href="https://github.com/ohsu-computational-biology/schemas/blob/ab35ee2ccf51458e4efc09d2f08bdf08e92dc270/src/main/resources/avro/common.avdl" xlink:title="common.avdl">
<path fill="lightgrey" stroke="lightgrey" d="M102.24,-8C102.24,-8 720.24,-8 720.24,-8 726.24,-8 732.24,-14 732.24,-20 732.24,-20 732.24,-213 732.24,-213 732.24,-219 726.24,-225 720.24,-225 720.24,-225 102.24,-225 102.24,-225 96.2403,-225 90.2403,-219 90.2403,-213 90.2403,-213 90.2403,-20 90.2403,-20 90.2403,-14 96.2403,-8 102.24,-8"/>
<text text-anchor="middle" x="411.24" y="-209.8" font-family="Times,serif" font-size="14.00">common.avdl</text>
</a>
</g>
</g>
<g id="clust3" class="cluster"><title>cluster_sequenceAnnotations_avdl</title>
<g id="a_clust3"><a xlink:href="https://github.com/ohsu-computational-biology/schemas/blob/ab35ee2ccf51458e4efc09d2f08bdf08e92dc270/src/main/resources/avro/sequenceAnnotations.avdl" xlink:title="sequenceAnnotations.avdl">
<path fill="lightgrey" stroke="lightgrey" d="M538.24,-307C538.24,-307 1076.24,-307 1076.24,-307 1082.24,-307 1088.24,-313 1088.24,-319 1088.24,-319 1088.24,-899 1088.24,-899 1088.24,-905 1082.24,-911 1076.24,-911 1076.24,-911 538.24,-911 538.24,-911 532.24,-911 526.24,-905 526.24,-899 526.24,-899 526.24,-319 526.24,-319 526.24,-313 532.24,-307 538.24,-307"/>
<text text-anchor="middle" x="807.24" y="-895.8" font-family="Times,serif" font-size="14.00">sequenceAnnotations.avdl</text>
</a>
</g>
</g>
<g id="clust4" class="cluster"><title>cluster_metadata_avdl</title>
<g id="a_clust4"><a xlink:href="https://github.com/ohsu-computational-biology/schemas/blob/ab35ee2ccf51458e4efc09d2f08bdf08e92dc270/src/main/resources/avro/metadata.avdl" xlink:title="metadata.avdl">
<path fill="lightgrey" stroke="lightgrey" d="M87.2403,-233C87.2403,-233 506.24,-233 506.24,-233 512.24,-233 518.24,-239 518.24,-245 518.24,-245 518.24,-506 518.24,-506 518.24,-512 512.24,-518 506.24,-518 506.24,-518 87.2403,-518 87.2403,-518 81.2403,-518 75.2403,-512 75.2403,-506 75.2403,-506 75.2403,-245 75.2403,-245 75.2403,-239 81.2403,-233 87.2403,-233"/>
<text text-anchor="middle" x="296.74" y="-502.8" font-family="Times,serif" font-size="14.00">metadata.avdl</text>
</a>
</g>
</g>
<g id="clust5" class="cluster"><title>cluster_ontologies_avdl</title>
<g id="a_clust5"><a xlink:href="https://github.com/ohsu-computational-biology/schemas/blob/ab35ee2ccf51458e4efc09d2f08bdf08e92dc270/src/main/resources/avro/ontologies.avdl" xlink:title="ontologies.avdl">
<path fill="lightgrey" stroke="lightgrey" d="M1241.24,-90C1241.24,-90 1403.24,-90 1403.24,-90 1409.24,-90 1415.24,-96 1415.24,-102 1415.24,-102 1415.24,-213 1415.24,-213 1415.24,-219 1409.24,-225 1403.24,-225 1403.24,-225 1241.24,-225 1241.24,-225 1235.24,-225 1229.24,-219 1229.24,-213 1229.24,-213 1229.24,-102 1229.24,-102 1229.24,-96 1235.24,-90 1241.24,-90"/>
<text text-anchor="middle" x="1322.24" y="-209.8" font-family="Times,serif" font-size="14.00">ontologies.avdl</text>
</a>
</g>
</g>
<!-- org_ga4gh_models_ExternalIdentifier -->
<g id="node1" class="node"><title>org_ga4gh_models_ExternalIdentifier</title>
<polygon fill="#002060" stroke="none" points="560.24,-102.5 560.24,-189.5 716.24,-189.5 716.24,-102.5 560.24,-102.5"/>
<polygon fill="#79a6ff" stroke="none" points="560.24,-152 560.24,-189 716.24,-189 716.24,-152 560.24,-152"/>
<polygon fill="none" stroke="#002060" stroke-width="3" points="561.74,-153.5 561.74,-187.5 714.74,-187.5 714.74,-153.5 561.74,-153.5"/>
<text text-anchor="start" x="567.74" y="-165.5" font-family="Times,serif" font-size="20.00" fill="white">ExternalIdentifier</text>
<polygon fill="none" stroke="#002060" points="560.24,-127 560.24,-152 643.24,-152 643.24,-127 560.24,-127"/>
<text text-anchor="start" x="565.24" y="-135.8" font-family="Times,serif" font-size="14.00" fill="white">&#45; database</text>
<polygon fill="none" stroke="#002060" points="643.24,-127 643.24,-152 716.24,-152 716.24,-127 643.24,-127"/>
<text text-anchor="start" x="648.24" y="-135.8" font-family="Times,serif" font-size="14.00" fill="white">&#45; version</text>
<polygon fill="none" stroke="#002060" points="560.24,-102 560.24,-127 643.24,-127 643.24,-102 560.24,-102"/>
<text text-anchor="start" x="565.24" y="-110.8" font-family="Times,serif" font-size="14.00" fill="white">&#45; identifier</text>
</g>
<!-- org_ga4gh_models_Feature -->
<g id="node2" class="node"><title>org_ga4gh_models_Feature</title>
<polygon fill="#002060" stroke="none" points="732.24,-686 732.24,-876 1072.24,-876 1072.24,-686 732.24,-686"/>
<polygon fill="#79a6ff" stroke="none" points="732.24,-811 732.24,-876 1072.24,-876 1072.24,-811 732.24,-811"/>
<polygon fill="none" stroke="#002060" stroke-width="3" points="733.74,-812.5 733.74,-874.5 1070.74,-874.5 1070.74,-812.5 733.74,-812.5"/>
<text text-anchor="start" x="871.74" y="-853.5" font-family="Times,serif" font-size="20.00" fill="white">Feature</text>
<text text-anchor="start" x="739.74" y="-837.5" font-family="Times,serif" font-size="15.00" fill="white">Node in annotation graph that annotates a contiguous</text>
<text text-anchor="start" x="839.24" y="-822.5" font-family="Times,serif" font-size="15.00" fill="white">region of a sequence</text>
<polygon fill="none" stroke="#002060" points="732.24,-786 732.24,-811 911.24,-811 911.24,-786 732.24,-786"/>
<text text-anchor="start" x="737.24" y="-794.8" font-family="Times,serif" font-size="14.00" fill="white">&#45; id</text>
<polygon fill="none" stroke="#002060" points="911.24,-786 911.24,-811 1072.24,-811 1072.24,-786 911.24,-786"/>
<text text-anchor="start" x="916.24" y="-794.8" font-family="Times,serif" font-size="14.00" fill="white">&#45; end</text>
<polygon fill="none" stroke="#002060" points="732.24,-761 732.24,-786 911.24,-786 911.24,-761 732.24,-761"/>
<text text-anchor="start" x="737.24" y="-769.8" font-family="Times,serif" font-size="14.00" fill="white">&#45; parentIds</text>
<polygon fill="none" stroke="#002060" points="911.24,-761 911.24,-786 1072.24,-786 1072.24,-761 911.24,-761"/>
<text text-anchor="start" x="916.24" y="-769.8" font-family="Times,serif" font-size="14.00" fill="white">&#45; strand</text>
<polygon fill="none" stroke="#002060" points="732.24,-736 732.24,-761 911.24,-761 911.24,-736 732.24,-736"/>
<text text-anchor="start" x="737.24" y="-744.8" font-family="Times,serif" font-size="14.00" fill="white">&#45; featureSetId</text>
<polygon fill="none" stroke="#002060" points="911.24,-736 911.24,-761 1072.24,-761 1072.24,-736 911.24,-736"/>
<text text-anchor="start" x="916.24" y="-744.8" font-family="Times,serif" font-size="14.00" fill="white">&#45; featureType</text>
<polygon fill="none" stroke="#002060" points="732.24,-711 732.24,-736 911.24,-736 911.24,-711 732.24,-711"/>
<text text-anchor="start" x="737.24" y="-719.8" font-family="Times,serif" font-size="14.00" fill="white">&#45; referenceName</text>
<polygon fill="none" stroke="#002060" points="911.24,-711 911.24,-736 1072.24,-736 1072.24,-711 911.24,-711"/>
<text text-anchor="start" x="916.24" y="-719.8" font-family="Times,serif" font-size="14.00" fill="white">&#45; attributes</text>
<polygon fill="none" stroke="#002060" points="732.24,-686 732.24,-711 911.24,-711 911.24,-686 732.24,-686"/>
<text text-anchor="start" x="737.24" y="-694.8" font-family="Times,serif" font-size="14.00" fill="white">&#45; start</text>
</g>
<!-- org_ga4gh_models_OntologyTerm -->
<g id="node3" class="node"><title>org_ga4gh_models_OntologyTerm</title>
<polygon fill="#002060" stroke="none" points="1245.24,-102.5 1245.24,-189.5 1399.24,-189.5 1399.24,-102.5 1245.24,-102.5"/>
<polygon fill="#79a6ff" stroke="none" points="1245.24,-152 1245.24,-189 1399.24,-189 1399.24,-152 1245.24,-152"/>
<polygon fill="none" stroke="#002060" stroke-width="3" points="1246.74,-153.5 1246.74,-187.5 1397.74,-187.5 1397.74,-153.5 1246.74,-153.5"/>
<text text-anchor="start" x="1263.24" y="-165.5" font-family="Times,serif" font-size="20.00" fill="white">OntologyTerm</text>
<polygon fill="none" stroke="#002060" points="1245.24,-127 1245.24,-152 1350.24,-152 1350.24,-127 1245.24,-127"/>
<text text-anchor="start" x="1250.24" y="-135.8" font-family="Times,serif" font-size="14.00" fill="white">&#45; ontologySource</text>
<polygon fill="none" stroke="#002060" points="1350.24,-127 1350.24,-152 1399.24,-152 1399.24,-127 1350.24,-127"/>
<text text-anchor="start" x="1355.24" y="-135.8" font-family="Times,serif" font-size="14.00" fill="white">&#45; name</text>
<polygon fill="none" stroke="#002060" points="1245.24,-102 1245.24,-127 1350.24,-127 1350.24,-102 1245.24,-102"/>
<text text-anchor="start" x="1250.24" y="-110.8" font-family="Times,serif" font-size="14.00" fill="white">&#45; id</text>
</g>
<!-- org_ga4gh_models_Feature&#45;&gt;org_ga4gh_models_OntologyTerm -->
<g id="edge15" class="edge"><title>org_ga4gh_models_Feature:featureType:w&#45;&gt;org_ga4gh_models_OntologyTerm</title>
<path fill="none" stroke="#c55a11" stroke-width="2" d="M909.616,-734.843C926.57,-659.044 1144.27,-253.81 1164.24,-233 1184.57,-211.82 1211.27,-194.599 1236.93,-181.285"/>
<polygon fill="none" stroke="#c55a11" stroke-width="2" points="909.651,-735.106 914.41,-740.523 911.24,-747 906.481,-741.583 909.651,-735.106"/>
</g>
<!-- org_ga4gh_models_Attributes -->
<g id="node6" class="node"><title>org_ga4gh_models_Attributes</title>
<polygon fill="#002060" stroke="none" points="654.24,-319 654.24,-409 976.24,-409 976.24,-319 654.24,-319"/>
<polygon fill="#79a6ff" stroke="none" points="654.24,-344 654.24,-409 976.24,-409 976.24,-344 654.24,-344"/>
<polygon fill="none" stroke="#002060" stroke-width="3" points="655.74,-345.5 655.74,-407.5 974.74,-407.5 974.74,-345.5 655.74,-345.5"/>
<text text-anchor="start" x="775.74" y="-386.5" font-family="Times,serif" font-size="20.00" fill="white">Attributes</text>
<text text-anchor="start" x="661.74" y="-370.5" font-family="Times,serif" font-size="15.00" fill="white">Attributes/values associated with various protocol</text>
<text text-anchor="start" x="792.24" y="-355.5" font-family="Times,serif" font-size="15.00" fill="white">records</text>
<polygon fill="none" stroke="#002060" points="654.24,-319 654.24,-344 836.24,-344 836.24,-319 654.24,-319"/>
<text text-anchor="start" x="659.24" y="-327.8" font-family="Times,serif" font-size="14.00" fill="white">&#45; vals</text>
</g>
<!-- org_ga4gh_models_Feature&#45;&gt;org_ga4gh_models_Attributes -->
<g id="edge9" class="edge"><title>org_ga4gh_models_Feature:attributes:w&#45;&gt;org_ga4gh_models_Attributes</title>
<path fill="none" stroke="#c55a11" stroke-width="2" d="M907.185,-710.64C901.054,-670.165 902.72,-534.928 900.24,-526 889.033,-485.647 866.656,-443.936 847.675,-413.083"/>
<polygon fill="none" stroke="#c55a11" stroke-width="2" points="907.206,-710.698 912.99,-715.004 911.24,-722 905.456,-717.694 907.206,-710.698"/>
</g>
<!-- org_ga4gh_models_FeatureSet -->
<g id="node9" class="node"><title>org_ga4gh_models_FeatureSet</title>
<polygon fill="#002060" stroke="none" points="574.24,-530 574.24,-642 750.24,-642 750.24,-530 574.24,-530"/>
<polygon fill="#79a6ff" stroke="none" points="574.24,-605 574.24,-642 750.24,-642 750.24,-605 574.24,-605"/>
<polygon fill="none" stroke="#002060" stroke-width="3" points="575.74,-606.5 575.74,-640.5 748.74,-640.5 748.74,-606.5 575.74,-606.5"/>
<text text-anchor="start" x="619.24" y="-618.5" font-family="Times,serif" font-size="20.00" fill="white">FeatureSet</text>
<polygon fill="none" stroke="#002060" points="574.24,-580 574.24,-605 673.24,-605 673.24,-580 574.24,-580"/>
<text text-anchor="start" x="579.24" y="-588.8" font-family="Times,serif" font-size="14.00" fill="white">&#45; id</text>
<polygon fill="none" stroke="#002060" points="673.24,-580 673.24,-605 750.24,-605 750.24,-580 673.24,-580"/>
<text text-anchor="start" x="678.24" y="-588.8" font-family="Times,serif" font-size="14.00" fill="white">&#45; name</text>
<polygon fill="none" stroke="#002060" points="574.24,-555 574.24,-580 673.24,-580 673.24,-555 574.24,-555"/>
<text text-anchor="start" x="579.24" y="-563.8" font-family="Times,serif" font-size="14.00" fill="white">&#45; datasetId</text>
<polygon fill="none" stroke="#002060" points="673.24,-555 673.24,-580 750.24,-580 750.24,-555 673.24,-555"/>
<text text-anchor="start" x="678.24" y="-563.8" font-family="Times,serif" font-size="14.00" fill="white">&#45; sourceURI</text>
<polygon fill="none" stroke="#002060" points="574.24,-530 574.24,-555 673.24,-555 673.24,-530 574.24,-530"/>
<text text-anchor="start" x="579.24" y="-538.8" font-family="Times,serif" font-size="14.00" fill="white">&#45; referenceSetId</text>
<polygon fill="none" stroke="#002060" points="673.24,-530 673.24,-555 750.24,-555 750.24,-530 673.24,-530"/>
<text text-anchor="start" x="678.24" y="-538.8" font-family="Times,serif" font-size="14.00" fill="white">&#45; attributes</text>
</g>
<!-- org_ga4gh_models_Feature&#45;&gt;org_ga4gh_models_FeatureSet -->
<g id="edge20" class="edge"><title>org_ga4gh_models_Feature:featureSetId:w&#45;&gt;org_ga4gh_models_FeatureSet:id:w</title>
<path fill="none" stroke="darkgreen" stroke-width="2" stroke-dasharray="5,2" d="M731.24,-748C701.057,-748 736.453,-703.472 715.24,-682 669.785,-635.99 614.396,-696.702 574.24,-646 562.241,-630.85 553.402,-604.891 563.617,-596.051"/>
<polygon fill="darkgreen" stroke="darkgreen" stroke-width="2" points="573.24,-593 565.068,-600.312 568.625,-594.988 563.859,-596.499 563.708,-596.023 563.557,-595.546 568.323,-594.035 562.348,-591.733 573.24,-593 573.24,-593"/>
</g>
<!-- org_ga4gh_models_Strand -->
<g id="node11" class="node"><title>org_ga4gh_models_Strand</title>
<polygon fill="#002060" stroke="none" points="116.74,-20.5 116.74,-57.5 183.74,-57.5 183.74,-20.5 116.74,-20.5"/>
<polygon fill="#79a6ff" stroke="none" points="117.24,-20 117.24,-57 184.24,-57 184.24,-20 117.24,-20"/>
<polygon fill="none" stroke="#002060" stroke-width="3" points="118.74,-21.5 118.74,-55.5 182.74,-55.5 182.74,-21.5 118.74,-21.5"/>
<text text-anchor="start" x="124.74" y="-33.5" font-family="Times,serif" font-size="20.00" fill="white">Strand</text>
</g>
<!-- org_ga4gh_models_Feature&#45;&gt;org_ga4gh_models_Strand -->
<g id="edge7" class="edge"><title>org_ga4gh_models_Feature:strand:w&#45;&gt;org_ga4gh_models_Strand</title>
<path fill="none" stroke="#c55a11" stroke-width="2" d="M899.09,-771.665C814.403,-766.853 802.02,-711.457 715.24,-682 435.557,-587.062 251.543,-751.938 71.2403,-518 -44.9845,-367.201 -2.82117,-256.653 89.2403,-90 95.3319,-78.9729 104.923,-69.4139 114.712,-61.6921"/>
<polygon fill="none" stroke="#c55a11" stroke-width="2" points="899.245,-771.669 905.353,-767.836 911.24,-772 905.132,-775.833 899.245,-771.669"/>
</g>
<!-- org_ga4gh_models_Dataset -->
<g id="node4" class="node"><title>org_ga4gh_models_Dataset</title>
<polygon fill="#002060" stroke="none" points="372.74,-320.5 372.74,-407.5 501.74,-407.5 501.74,-320.5 372.74,-320.5"/>
<polygon fill="#79a6ff" stroke="none" points="373.24,-370 373.24,-407 502.24,-407 502.24,-370 373.24,-370"/>
<polygon fill="none" stroke="#002060" stroke-width="3" points="374.74,-371.5 374.74,-405.5 500.74,-405.5 500.74,-371.5 374.74,-371.5"/>
<text text-anchor="start" x="407.74" y="-383.5" font-family="Times,serif" font-size="20.00" fill="white">Dataset</text>
<polygon fill="none" stroke="#002060" points="373.24,-345 373.24,-370 423.24,-370 423.24,-345 373.24,-345"/>
<text text-anchor="start" x="378.24" y="-353.8" font-family="Times,serif" font-size="14.00" fill="white">&#45; id</text>
<polygon fill="none" stroke="#002060" points="423.24,-345 423.24,-370 502.24,-370 502.24,-345 423.24,-345"/>
<text text-anchor="start" x="428.24" y="-353.8" font-family="Times,serif" font-size="14.00" fill="white">&#45; description</text>
<polygon fill="none" stroke="#002060" points="373.24,-320 373.24,-345 423.24,-345 423.24,-320 373.24,-320"/>
<text text-anchor="start" x="378.24" y="-328.8" font-family="Times,serif" font-size="14.00" fill="white">&#45; name</text>
</g>
<!-- org_ga4gh_models_WiggleSet -->
<g id="node5" class="node"><title>org_ga4gh_models_WiggleSet</title>
<polygon fill="#002060" stroke="none" points="784.74,-555 784.74,-617 883.74,-617 883.74,-555 784.74,-555"/>
<polygon fill="#79a6ff" stroke="none" points="785.24,-580 785.24,-617 884.24,-617 884.24,-580 785.24,-580"/>
<polygon fill="none" stroke="#002060" stroke-width="3" points="786.74,-581.5 786.74,-615.5 882.74,-615.5 882.74,-581.5 786.74,-581.5"/>
<text text-anchor="start" x="792.74" y="-593.5" font-family="Times,serif" font-size="20.00" fill="white">WiggleSet</text>
<polygon fill="none" stroke="#002060" points="785.24,-555 785.24,-580 815.24,-580 815.24,-555 785.24,-555"/>
<text text-anchor="start" x="790.24" y="-563.8" font-family="Times,serif" font-size="14.00" fill="white">&#45; id</text>
<polygon fill="none" stroke="#002060" points="815.24,-555 815.24,-580 884.24,-580 884.24,-555 815.24,-555"/>
<text text-anchor="start" x="820.24" y="-563.8" font-family="Times,serif" font-size="14.00" fill="white">&#45; attributes</text>
</g>
<!-- org_ga4gh_models_WiggleSet&#45;&gt;org_ga4gh_models_Attributes -->
<g id="edge1" class="edge"><title>org_ga4gh_models_WiggleSet:attributes:w&#45;&gt;org_ga4gh_models_Attributes</title>
<path fill="none" stroke="#c55a11" stroke-width="2" d="M803.307,-564.585C757.535,-552.679 777.932,-468.311 796.725,-413.145"/>
<polygon fill="none" stroke="#c55a11" stroke-width="2" points="803.324,-564.587 809.753,-561.321 815.24,-566 808.811,-569.266 803.324,-564.587"/>
</g>
<!-- org_ga4gh_models_Attributes&#45;&gt;org_ga4gh_models_ExternalIdentifier -->
<g id="edge18" class="edge"><title>org_ga4gh_models_Attributes:vals:w&#45;&gt;org_ga4gh_models_ExternalIdentifier</title>
<path fill="none" stroke="#c55a11" stroke-width="2" d="M641.289,-329.468C600.2,-317.955 611.333,-244.056 624.098,-193.907"/>
<polygon fill="none" stroke="#c55a11" stroke-width="2" points="641.338,-329.474 647.798,-326.27 653.24,-331 646.78,-334.205 641.338,-329.474"/>
</g>
<!-- org_ga4gh_models_Attributes&#45;&gt;org_ga4gh_models_OntologyTerm -->
<g id="edge5" class="edge"><title>org_ga4gh_models_Attributes:vals:w&#45;&gt;org_ga4gh_models_OntologyTerm</title>
<path fill="none" stroke="#c55a11" stroke-width="2" d="M641.084,-330.894C422.179,-326.836 1009.92,-207.736 1237,-163.41"/>
<polygon fill="none" stroke="#c55a11" stroke-width="2" points="641.241,-330.895 647.276,-326.948 653.24,-331 647.206,-334.947 641.241,-330.895"/>
</g>
<!-- org_ga4gh_models_FeaturePhenotypeAssociation -->
<g id="node7" class="node"><title>org_ga4gh_models_FeaturePhenotypeAssociation</title>
<polygon fill="#002060" stroke="none" points="1266.74,-923 1266.74,-1035 1517.74,-1035 1517.74,-923 1266.74,-923"/>
<polygon fill="#79a6ff" stroke="none" points="1267.24,-998 1267.24,-1035 1518.24,-1035 1518.24,-998 1267.24,-998"/>
<polygon fill="none" stroke="#002060" stroke-width="3" points="1268.74,-999.5 1268.74,-1033.5 1516.74,-1033.5 1516.74,-999.5 1268.74,-999.5"/>
<text text-anchor="start" x="1274.74" y="-1011.5" font-family="Times,serif" font-size="20.00" fill="white">FeaturePhenotypeAssociation</text>
<polygon fill="none" stroke="#002060" points="1267.24,-973 1267.24,-998 1353.24,-998 1353.24,-973 1267.24,-973"/>
<text text-anchor="start" x="1272.24" y="-981.8" font-family="Times,serif" font-size="14.00" fill="white">&#45; id</text>
<polygon fill="none" stroke="#002060" points="1353.24,-973 1353.24,-998 1518.24,-998 1518.24,-973 1353.24,-973"/>
<text text-anchor="start" x="1358.24" y="-981.8" font-family="Times,serif" font-size="14.00" fill="white">&#45; phenotype</text>
<polygon fill="none" stroke="#002060" points="1267.24,-948 1267.24,-973 1353.24,-973 1353.24,-948 1267.24,-948"/>
<text text-anchor="start" x="1272.24" y="-956.8" font-family="Times,serif" font-size="14.00" fill="white">&#45; features</text>
<polygon fill="none" stroke="#002060" points="1353.24,-948 1353.24,-973 1518.24,-973 1518.24,-948 1353.24,-948"/>
<text text-anchor="start" x="1358.24" y="-956.8" font-family="Times,serif" font-size="14.00" fill="white">&#45; description</text>
<polygon fill="none" stroke="#002060" points="1267.24,-923 1267.24,-948 1353.24,-948 1353.24,-923 1267.24,-923"/>
<text text-anchor="start" x="1272.24" y="-931.8" font-family="Times,serif" font-size="14.00" fill="white">&#45; evidence</text>
<polygon fill="none" stroke="#002060" points="1353.24,-923 1353.24,-948 1518.24,-948 1518.24,-923 1353.24,-923"/>
<text text-anchor="start" x="1358.24" y="-931.8" font-family="Times,serif" font-size="14.00" fill="white">&#45; environmentalContexts</text>
</g>
<!-- org_ga4gh_models_FeaturePhenotypeAssociation&#45;&gt;org_ga4gh_models_Feature -->
<g id="edge2" class="edge"><title>org_ga4gh_models_FeaturePhenotypeAssociation:features:w&#45;&gt;org_ga4gh_models_Feature</title>
<path fill="none" stroke="#c55a11" stroke-width="2" d="M1253.95,-959.728C1174.12,-956.222 1094.38,-919.361 1031.06,-880.112"/>
<polygon fill="none" stroke="#c55a11" stroke-width="2" points="1254.24,-959.734 1260.33,-955.868 1266.24,-960 1260.15,-963.866 1254.24,-959.734"/>
</g>
<!-- org_ga4gh_models_PhenotypeInstance -->
<g id="node8" class="node"><title>org_ga4gh_models_PhenotypeInstance</title>
<polygon fill="#002060" stroke="none" points="1552.74,-725 1552.74,-837 1717.74,-837 1717.74,-725 1552.74,-725"/>
<polygon fill="#79a6ff" stroke="none" points="1553.24,-800 1553.24,-837 1718.24,-837 1718.24,-800 1553.24,-800"/>
<polygon fill="none" stroke="#002060" stroke-width="3" points="1554.74,-801.5 1554.74,-835.5 1716.74,-835.5 1716.74,-801.5 1554.74,-801.5"/>
<text text-anchor="start" x="1560.74" y="-813.5" font-family="Times,serif" font-size="20.00" fill="white">PhenotypeInstance</text>
<polygon fill="none" stroke="#002060" points="1553.24,-775 1553.24,-800 1627.24,-800 1627.24,-775 1553.24,-775"/>
<text text-anchor="start" x="1558.24" y="-783.8" font-family="Times,serif" font-size="14.00" fill="white">&#45; id</text>
<polygon fill="none" stroke="#002060" points="1627.24,-775 1627.24,-800 1718.24,-800 1718.24,-775 1627.24,-775"/>
<text text-anchor="start" x="1632.24" y="-783.8" font-family="Times,serif" font-size="14.00" fill="white">&#45; ageOfOnset</text>
<polygon fill="none" stroke="#002060" points="1553.24,-750 1553.24,-775 1627.24,-775 1627.24,-750 1553.24,-750"/>
<text text-anchor="start" x="1558.24" y="-758.8" font-family="Times,serif" font-size="14.00" fill="white">&#45; type</text>
<polygon fill="none" stroke="#002060" points="1627.24,-750 1627.24,-775 1718.24,-775 1718.24,-750 1627.24,-750"/>
<text text-anchor="start" x="1632.24" y="-758.8" font-family="Times,serif" font-size="14.00" fill="white">&#45; description</text>
<polygon fill="none" stroke="#002060" points="1553.24,-725 1553.24,-750 1627.24,-750 1627.24,-725 1553.24,-725"/>
<text text-anchor="start" x="1558.24" y="-733.8" font-family="Times,serif" font-size="14.00" fill="white">&#45; qualifier</text>
</g>
<!-- org_ga4gh_models_FeaturePhenotypeAssociation&#45;&gt;org_ga4gh_models_PhenotypeInstance -->
<g id="edge13" class="edge"><title>org_ga4gh_models_FeaturePhenotypeAssociation:phenotype:w&#45;&gt;org_ga4gh_models_PhenotypeInstance</title>
<path fill="none" stroke="#c55a11" stroke-width="2" d="M1341.15,-984.791C1288.41,-982.455 1468.84,-960.442 1534.24,-911 1559.31,-892.046 1581.56,-865.42 1598.75,-841.277"/>
<polygon fill="none" stroke="#c55a11" stroke-width="2" points="1341.24,-984.792 1347.31,-980.897 1353.24,-985 1347.17,-988.895 1341.24,-984.792"/>
</g>
<!-- org_ga4gh_models_Evidence -->
<g id="node12" class="node"><title>org_ga4gh_models_Evidence</title>
<polygon fill="#002060" stroke="none" points="1112.74,-750 1112.74,-812 1287.74,-812 1287.74,-750 1112.74,-750"/>
<polygon fill="#79a6ff" stroke="none" points="1113.24,-775 1113.24,-812 1288.24,-812 1288.24,-775 1113.24,-775"/>
<polygon fill="none" stroke="#002060" stroke-width="3" points="1114.74,-776.5 1114.74,-810.5 1286.74,-810.5 1286.74,-776.5 1114.74,-776.5"/>
<text text-anchor="start" x="1163.74" y="-788.5" font-family="Times,serif" font-size="20.00" fill="white">Evidence</text>
<polygon fill="none" stroke="#002060" points="1113.24,-750 1113.24,-775 1209.24,-775 1209.24,-750 1113.24,-750"/>
<text text-anchor="start" x="1118.24" y="-758.8" font-family="Times,serif" font-size="14.00" fill="white">&#45; evidenceType</text>
<polygon fill="none" stroke="#002060" points="1209.24,-750 1209.24,-775 1288.24,-775 1288.24,-750 1209.24,-750"/>
<text text-anchor="start" x="1214.24" y="-758.8" font-family="Times,serif" font-size="14.00" fill="white">&#45; description</text>
</g>
<!-- org_ga4gh_models_FeaturePhenotypeAssociation&#45;&gt;org_ga4gh_models_Evidence -->
<g id="edge3" class="edge"><title>org_ga4gh_models_FeaturePhenotypeAssociation:evidence:w&#45;&gt;org_ga4gh_models_Evidence</title>
<path fill="none" stroke="#c55a11" stroke-width="2" d="M1254.12,-933.504C1212.96,-922.846 1202.81,-857.657 1200.57,-816.336"/>
<polygon fill="none" stroke="#c55a11" stroke-width="2" points="1254.33,-933.53 1260.78,-930.295 1266.24,-935 1259.8,-938.235 1254.33,-933.53"/>
</g>
<!-- org_ga4gh_models_EnvironmentalContext -->
<g id="node17" class="node"><title>org_ga4gh_models_EnvironmentalContext</title>
<polygon fill="#002060" stroke="none" points="1322.24,-737.5 1322.24,-824.5 1518.24,-824.5 1518.24,-737.5 1322.24,-737.5"/>
<polygon fill="#79a6ff" stroke="none" points="1322.24,-787 1322.24,-824 1518.24,-824 1518.24,-787 1322.24,-787"/>
<polygon fill="none" stroke="#002060" stroke-width="3" points="1323.74,-788.5 1323.74,-822.5 1516.74,-822.5 1516.74,-788.5 1323.74,-788.5"/>
<text text-anchor="start" x="1330.24" y="-800.5" font-family="Times,serif" font-size="20.00" fill="white">EnvironmentalContext</text>
<polygon fill="none" stroke="#002060" points="1322.24,-762 1322.24,-787 1439.24,-787 1439.24,-762 1322.24,-762"/>
<text text-anchor="start" x="1327.24" y="-770.8" font-family="Times,serif" font-size="14.00" fill="white">&#45; id</text>
<polygon fill="none" stroke="#002060" points="1439.24,-762 1439.24,-787 1518.24,-787 1518.24,-762 1439.24,-762"/>
<text text-anchor="start" x="1444.24" y="-770.8" font-family="Times,serif" font-size="14.00" fill="white">&#45; description</text>
<polygon fill="none" stroke="#002060" points="1322.24,-737 1322.24,-762 1439.24,-762 1439.24,-737 1322.24,-737"/>
<text text-anchor="start" x="1327.24" y="-745.8" font-family="Times,serif" font-size="14.00" fill="white">&#45; environmentType</text>
</g>
<!-- org_ga4gh_models_FeaturePhenotypeAssociation&#45;&gt;org_ga4gh_models_EnvironmentalContext -->
<g id="edge10" class="edge"><title>org_ga4gh_models_FeaturePhenotypeAssociation:environmentalContexts:w&#45;&gt;org_ga4gh_models_EnvironmentalContext</title>
<path fill="none" stroke="#c55a11" stroke-width="2" d="M1341.25,-932.071C1314.82,-921.416 1349.21,-868.796 1380.55,-828.845"/>
<polygon fill="none" stroke="#c55a11" stroke-width="2" points="1341.39,-932.094 1347.95,-929.098 1353.24,-934 1346.68,-936.996 1341.39,-932.094"/>
</g>
<!-- org_ga4gh_models_PhenotypeInstance&#45;&gt;org_ga4gh_models_OntologyTerm -->
<g id="edge4" class="edge"><title>org_ga4gh_models_PhenotypeInstance:qualifier:w&#45;&gt;org_ga4gh_models_OntologyTerm</title>
<path fill="none" stroke="#c55a11" stroke-width="2" d="M1546.93,-725.788C1524.38,-652.446 1458.47,-243.796 1451.24,-233 1439.93,-216.117 1424.07,-201.712 1407.33,-189.792"/>
<polygon fill="none" stroke="#c55a11" stroke-width="2" points="1547.1,-726.156 1553.29,-729.865 1552.24,-737 1546.06,-733.29 1547.1,-726.156"/>
</g>
<!-- org_ga4gh_models_PhenotypeInstance&#45;&gt;org_ga4gh_models_OntologyTerm -->
<g id="edge6" class="edge"><title>org_ga4gh_models_PhenotypeInstance:type:w&#45;&gt;org_ga4gh_models_OntologyTerm</title>
<path fill="none" stroke="#c55a11" stroke-width="2" d="M1540.35,-759.053C1525.13,-748.178 1548.62,-709.504 1534.24,-682 1524.19,-662.764 1512.72,-664.422 1501.24,-646 1406.7,-494.258 1352.57,-285.492 1331.96,-193.607"/>
<polygon fill="none" stroke="#c55a11" stroke-width="2" points="1540.59,-759.113 1547.38,-756.674 1552.24,-762 1545.45,-764.439 1540.59,-759.113"/>
</g>
<!-- org_ga4gh_models_PhenotypeInstance&#45;&gt;org_ga4gh_models_OntologyTerm -->
<g id="edge14" class="edge"><title>org_ga4gh_models_PhenotypeInstance:ageOfOnset:w&#45;&gt;org_ga4gh_models_OntologyTerm</title>
<path fill="none" stroke="#c55a11" stroke-width="2" d="M1615.25,-785.526C1504.93,-757.199 1567.39,-329.033 1491.24,-233 1469.87,-206.043 1437.78,-186.764 1407.29,-173.386"/>
<polygon fill="none" stroke="#c55a11" stroke-width="2" points="1615.33,-785.536 1621.77,-782.298 1627.24,-787 1620.8,-790.238 1615.33,-785.536"/>
</g>
<!-- org_ga4gh_models_FeatureSet&#45;&gt;org_ga4gh_models_Dataset -->
<g id="edge19" class="edge"><title>org_ga4gh_models_FeatureSet:datasetId:w&#45;&gt;org_ga4gh_models_Dataset:id:w</title>
<path fill="none" stroke="darkgreen" stroke-width="2" stroke-dasharray="5,2" d="M573.24,-567C460.782,-567 423.652,-512.526 373.24,-412 364.25,-394.073 352.885,-368.547 362.586,-359.953"/>
<polygon fill="darkgreen" stroke="darkgreen" stroke-width="2" points="372.24,-357 363.994,-364.228 367.605,-358.941 362.824,-360.403 362.678,-359.925 362.531,-359.447 367.313,-357.984 361.361,-355.622 372.24,-357 372.24,-357"/>
</g>
<!-- org_ga4gh_models_FeatureSet&#45;&gt;org_ga4gh_models_Attributes -->
<g id="edge12" class="edge"><title>org_ga4gh_models_FeatureSet:attributes:w&#45;&gt;org_ga4gh_models_Attributes</title>
<path fill="none" stroke="#c55a11" stroke-width="2" d="M661.193,-539.85C619.007,-530.169 693.674,-461.437 753.057,-413.093"/>
<polygon fill="none" stroke="#c55a11" stroke-width="2" points="661.295,-539.86 667.648,-536.448 673.24,-541 666.887,-544.412 661.295,-539.86"/>
</g>
<!-- org_ga4gh_models_CigarUnit -->
<g id="node10" class="node"><title>org_ga4gh_models_CigarUnit</title>
<polygon fill="#002060" stroke="none" points="296.24,-102.5 296.24,-189.5 526.24,-189.5 526.24,-102.5 296.24,-102.5"/>
<polygon fill="#79a6ff" stroke="none" points="296.24,-152 296.24,-189 526.24,-189 526.24,-152 296.24,-152"/>
<polygon fill="none" stroke="#002060" stroke-width="3" points="297.74,-153.5 297.74,-187.5 524.74,-187.5 524.74,-153.5 297.74,-153.5"/>
<text text-anchor="start" x="371.74" y="-165.5" font-family="Times,serif" font-size="20.00" fill="white">CigarUnit</text>
<polygon fill="none" stroke="#002060" points="296.24,-127 296.24,-152 405.24,-152 405.24,-127 296.24,-127"/>
<text text-anchor="start" x="301.24" y="-135.8" font-family="Times,serif" font-size="14.00" fill="white">&#45; operation</text>
<polygon fill="none" stroke="#002060" points="405.24,-127 405.24,-152 526.24,-152 526.24,-127 405.24,-127"/>
<text text-anchor="start" x="410.24" y="-135.8" font-family="Times,serif" font-size="14.00" fill="white">&#45; referenceSequence</text>
<polygon fill="none" stroke="#002060" points="296.24,-102 296.24,-127 405.24,-127 405.24,-102 296.24,-102"/>
<text text-anchor="start" x="301.24" y="-110.8" font-family="Times,serif" font-size="14.00" fill="white">&#45; operationLength</text>
</g>
<!-- org_ga4gh_models_CigarOperation -->
<g id="node15" class="node"><title>org_ga4gh_models_CigarOperation</title>
<polygon fill="#002060" stroke="none" points="226.74,-20.5 226.74,-57.5 365.74,-57.5 365.74,-20.5 226.74,-20.5"/>
<polygon fill="#79a6ff" stroke="none" points="227.24,-20 227.24,-57 366.24,-57 366.24,-20 227.24,-20"/>
<polygon fill="none" stroke="#002060" stroke-width="3" points="228.74,-21.5 228.74,-55.5 364.74,-55.5 364.74,-21.5 228.74,-21.5"/>
<text text-anchor="start" x="234.74" y="-33.5" font-family="Times,serif" font-size="20.00" fill="white">CigarOperation</text>
</g>
<!-- org_ga4gh_models_CigarUnit&#45;&gt;org_ga4gh_models_CigarOperation -->
<g id="edge17" class="edge"><title>org_ga4gh_models_CigarUnit:operation:w&#45;&gt;org_ga4gh_models_CigarOperation</title>
<path fill="none" stroke="#c55a11" stroke-width="2" d="M287.104,-129.625C283.393,-114.223 287.866,-83.1624 291.758,-61.9713"/>
<polygon fill="none" stroke="#c55a11" stroke-width="2" points="287.375,-129.937 294.329,-131.847 295.24,-139 288.287,-137.09 287.375,-129.937"/>
</g>
<!-- org_ga4gh_models_Evidence&#45;&gt;org_ga4gh_models_OntologyTerm -->
<g id="edge11" class="edge"><title>org_ga4gh_models_Evidence:evidenceType:w&#45;&gt;org_ga4gh_models_OntologyTerm</title>
<path fill="none" stroke="#c55a11" stroke-width="2" d="M1102.48,-754.559C1080.37,-697.349 1242.01,-326.037 1301.15,-193.73"/>
<polygon fill="none" stroke="#c55a11" stroke-width="2" points="1102.7,-754.723 1109.9,-755.181 1112.24,-762 1105.04,-761.542 1102.7,-754.723"/>
</g>
<!-- org_ga4gh_models_Wiggle -->
<g id="node13" class="node"><title>org_ga4gh_models_Wiggle</title>
<polygon fill="#002060" stroke="none" points="542.24,-737.5 542.24,-824.5 698.24,-824.5 698.24,-737.5 542.24,-737.5"/>
<polygon fill="#79a6ff" stroke="none" points="542.24,-787 542.24,-824 698.24,-824 698.24,-787 542.24,-787"/>
<polygon fill="none" stroke="#002060" stroke-width="3" points="543.74,-788.5 543.74,-822.5 696.74,-822.5 696.74,-788.5 543.74,-788.5"/>
<text text-anchor="start" x="591.24" y="-800.5" font-family="Times,serif" font-size="20.00" fill="white">Wiggle</text>
<polygon fill="none" stroke="#002060" points="542.24,-762 542.24,-787 645.24,-787 645.24,-762 542.24,-762"/>
<text text-anchor="start" x="547.24" y="-770.8" font-family="Times,serif" font-size="14.00" fill="white">&#45; referenceName</text>
<polygon fill="none" stroke="#002060" points="645.24,-762 645.24,-787 698.24,-787 698.24,-762 645.24,-762"/>
<text text-anchor="start" x="650.24" y="-770.8" font-family="Times,serif" font-size="14.00" fill="white">&#45; end</text>
<polygon fill="none" stroke="#002060" points="542.24,-737 542.24,-762 645.24,-762 645.24,-737 542.24,-737"/>
<text text-anchor="start" x="547.24" y="-745.8" font-family="Times,serif" font-size="14.00" fill="white">&#45; start</text>
<polygon fill="none" stroke="#002060" points="645.24,-737 645.24,-762 698.24,-762 698.24,-737 645.24,-737"/>
<text text-anchor="start" x="650.24" y="-745.8" font-family="Times,serif" font-size="14.00" fill="white">&#45; values</text>
</g>
<!-- org_ga4gh_models_Position -->
<g id="node14" class="node"><title>org_ga4gh_models_Position</title>
<polygon fill="#002060" stroke="none" points="106.74,-102.5 106.74,-189.5 261.74,-189.5 261.74,-102.5 106.74,-102.5"/>
<polygon fill="#79a6ff" stroke="none" points="107.24,-152 107.24,-189 262.24,-189 262.24,-152 107.24,-152"/>
<polygon fill="none" stroke="#002060" stroke-width="3" points="108.74,-153.5 108.74,-187.5 260.74,-187.5 260.74,-153.5 108.74,-153.5"/>
<text text-anchor="start" x="152.74" y="-165.5" font-family="Times,serif" font-size="20.00" fill="white">Position</text>
<polygon fill="none" stroke="#002060" points="107.24,-127 107.24,-152 210.24,-152 210.24,-127 107.24,-127"/>
<text text-anchor="start" x="112.24" y="-135.8" font-family="Times,serif" font-size="14.00" fill="white">&#45; referenceName</text>
<polygon fill="none" stroke="#002060" points="210.24,-127 210.24,-152 262.24,-152 262.24,-127 210.24,-127"/>
<text text-anchor="start" x="215.24" y="-135.8" font-family="Times,serif" font-size="14.00" fill="white">&#45; strand</text>
<polygon fill="none" stroke="#002060" points="107.24,-102 107.24,-127 210.24,-127 210.24,-102 107.24,-102"/>
<text text-anchor="start" x="112.24" y="-110.8" font-family="Times,serif" font-size="14.00" fill="white">&#45; position</text>
</g>
<!-- org_ga4gh_models_Position&#45;&gt;org_ga4gh_models_Strand -->
<g id="edge8" class="edge"><title>org_ga4gh_models_Position:strand:w&#45;&gt;org_ga4gh_models_Strand</title>
<path fill="none" stroke="#c55a11" stroke-width="2" d="M198.217,-136.033C171.2,-126.797 158.876,-87.1248 153.667,-61.7494"/>
<polygon fill="none" stroke="#c55a11" stroke-width="2" points="198.398,-136.062 204.965,-133.084 210.24,-138 203.673,-140.979 198.398,-136.062"/>
</g>
<!-- org_ga4gh_models_Experiment -->
<g id="node16" class="node"><title>org_ga4gh_models_Experiment</title>
<polygon fill="#002060" stroke="none" points="91.7403,-245.5 91.7403,-482.5 338.74,-482.5 338.74,-245.5 91.7403,-245.5"/>
<polygon fill="#79a6ff" stroke="none" points="92.2403,-445 92.2403,-482 339.24,-482 339.24,-445 92.2403,-445"/>
<polygon fill="none" stroke="#002060" stroke-width="3" points="93.7403,-446.5 93.7403,-480.5 337.74,-480.5 337.74,-446.5 93.7403,-446.5"/>
<text text-anchor="start" x="169.24" y="-458.5" font-family="Times,serif" font-size="20.00" fill="white">Experiment</text>
<polygon fill="none" stroke="#002060" points="92.2403,-420 92.2403,-445 215.24,-445 215.24,-420 92.2403,-420"/>
<text text-anchor="start" x="97.2403" y="-428.8" font-family="Times,serif" font-size="14.00" fill="white">&#45; id</text>
<polygon fill="none" stroke="#002060" points="215.24,-420 215.24,-445 339.24,-445 339.24,-420 215.24,-420"/>
<text text-anchor="start" x="220.24" y="-428.8" font-family="Times,serif" font-size="14.00" fill="white">&#45; selection</text>
<polygon fill="none" stroke="#002060" points="92.2403,-395 92.2403,-420 215.24,-420 215.24,-395 92.2403,-395"/>
<text text-anchor="start" x="97.2403" y="-403.8" font-family="Times,serif" font-size="14.00" fill="white">&#45; name</text>
<polygon fill="none" stroke="#002060" points="215.24,-395 215.24,-420 339.24,-420 339.24,-395 215.24,-395"/>
<text text-anchor="start" x="220.24" y="-403.8" font-family="Times,serif" font-size="14.00" fill="white">&#45; library</text>
<polygon fill="none" stroke="#002060" points="92.2403,-370 92.2403,-395 215.24,-395 215.24,-370 92.2403,-370"/>
<text text-anchor="start" x="97.2403" y="-378.8" font-family="Times,serif" font-size="14.00" fill="white">&#45; description</text>
<polygon fill="none" stroke="#002060" points="215.24,-370 215.24,-395 339.24,-395 339.24,-370 215.24,-370"/>
<text text-anchor="start" x="220.24" y="-378.8" font-family="Times,serif" font-size="14.00" fill="white">&#45; libraryLayout</text>
<polygon fill="none" stroke="#002060" points="92.2403,-345 92.2403,-370 215.24,-370 215.24,-345 92.2403,-345"/>
<text text-anchor="start" x="97.2403" y="-353.8" font-family="Times,serif" font-size="14.00" fill="white">&#45; recordCreateTime</text>
<polygon fill="none" stroke="#002060" points="215.24,-345 215.24,-370 339.24,-370 339.24,-345 215.24,-345"/>
<text text-anchor="start" x="220.24" y="-353.8" font-family="Times,serif" font-size="14.00" fill="white">&#45; instrumentModel</text>
<polygon fill="none" stroke="#002060" points="92.2403,-320 92.2403,-345 215.24,-345 215.24,-320 92.2403,-320"/>
<text text-anchor="start" x="97.2403" y="-328.8" font-family="Times,serif" font-size="14.00" fill="white">&#45; recordUpdateTime</text>
<polygon fill="none" stroke="#002060" points="215.24,-320 215.24,-345 339.24,-345 339.24,-320 215.24,-320"/>
<text text-anchor="start" x="220.24" y="-328.8" font-family="Times,serif" font-size="14.00" fill="white">&#45; instrumentDataFile</text>
<polygon fill="none" stroke="#002060" points="92.2403,-295 92.2403,-320 215.24,-320 215.24,-295 92.2403,-295"/>
<text text-anchor="start" x="97.2403" y="-303.8" font-family="Times,serif" font-size="14.00" fill="white">&#45; runTime</text>
<polygon fill="none" stroke="#002060" points="215.24,-295 215.24,-320 339.24,-320 339.24,-295 215.24,-295"/>
<text text-anchor="start" x="220.24" y="-303.8" font-family="Times,serif" font-size="14.00" fill="white">&#45; sequencingCenter</text>
<polygon fill="none" stroke="#002060" points="92.2403,-270 92.2403,-295 215.24,-295 215.24,-270 92.2403,-270"/>
<text text-anchor="start" x="97.2403" y="-278.8" font-family="Times,serif" font-size="14.00" fill="white">&#45; molecule</text>
<polygon fill="none" stroke="#002060" points="215.24,-270 215.24,-295 339.24,-295 339.24,-270 215.24,-270"/>
<text text-anchor="start" x="220.24" y="-278.8" font-family="Times,serif" font-size="14.00" fill="white">&#45; platformUnit</text>
<polygon fill="none" stroke="#002060" points="92.2403,-245 92.2403,-270 215.24,-270 215.24,-245 92.2403,-245"/>
<text text-anchor="start" x="97.2403" y="-253.8" font-family="Times,serif" font-size="14.00" fill="white">&#45; strategy</text>
<polygon fill="none" stroke="#002060" points="215.24,-245 215.24,-270 339.24,-270 339.24,-245 215.24,-245"/>
<text text-anchor="start" x="220.24" y="-253.8" font-family="Times,serif" font-size="14.00" fill="white">&#45; info</text>
</g>
<!-- org_ga4gh_models_EnvironmentalContext&#45;&gt;org_ga4gh_models_OntologyTerm -->
<g id="edge16" class="edge"><title>org_ga4gh_models_EnvironmentalContext:environmentType:w&#45;&gt;org_ga4gh_models_OntologyTerm</title>
<path fill="none" stroke="#c55a11" stroke-width="2" d="M1314.62,-738.654C1296.96,-673.803 1313.13,-321.919 1319.73,-193.737"/>
<polygon fill="none" stroke="#c55a11" stroke-width="2" points="1314.78,-738.89 1321.38,-741.79 1321.24,-749 1314.64,-746.1 1314.78,-738.89"/>
</g>
</g>
</svg>
