<?xml version="1.0" encoding="UTF-8" standalone="no"?>
<!DOCTYPE svg PUBLIC "-//W3C//DTD SVG 1.1//EN"
 "http://www.w3.org/Graphics/SVG/1.1/DTD/svg11.dtd">
<!-- Generated by graphviz version 2.36.0 (20140111.2315)
 -->
<!-- Title: UML Pages: 1 -->
<svg width="1814pt" height="977pt"
 viewBox="0.00 0.00 1814.26 977.00" xmlns="http://www.w3.org/2000/svg" xmlns:xlink="http://www.w3.org/1999/xlink">
<g id="graph0" class="graph" transform="scale(1 1) rotate(0) translate(4 973)">
<title>UML</title>
<polygon fill="white" stroke="none" points="-4,4 -4,-973 1810.26,-973 1810.26,4 -4,4"/>
<g id="clust1" class="cluster"><title>cluster_genotypephenotype_avdl</title>
<g id="a_clust1"><a xlink:href="https://github.com/ga4gh/schemas/blob/g2p/src/main/resources/avro/genotypephenotype.avdl" xlink:title="genotypephenotype.avdl">
<path fill="lightgrey" stroke="lightgrey" d="M922.258,-578C922.258,-578 1786.26,-578 1786.26,-578 1792.26,-578 1798.26,-584 1798.26,-590 1798.26,-590 1798.26,-949 1798.26,-949 1798.26,-955 1792.26,-961 1786.26,-961 1786.26,-961 922.258,-961 922.258,-961 916.258,-961 910.258,-955 910.258,-949 910.258,-949 910.258,-590 910.258,-590 910.258,-584 916.258,-578 922.258,-578"/>
<text text-anchor="middle" x="1354.26" y="-945.8" font-family="Times,serif" font-size="14.00">genotypephenotype.avdl</text>
</a>
</g>
</g>
<g id="clust2" class="cluster"><title>cluster_common_avdl</title>
<g id="a_clust2"><a xlink:href="https://github.com/ga4gh/schemas/blob/g2p/src/main/resources/avro/common.avdl" xlink:title="common.avdl">
<path fill="lightgrey" stroke="lightgrey" d="M59.2582,-8C59.2582,-8 677.258,-8 677.258,-8 683.258,-8 689.258,-14 689.258,-20 689.258,-20 689.258,-288 689.258,-288 689.258,-294 683.258,-300 677.258,-300 677.258,-300 59.2582,-300 59.2582,-300 53.2582,-300 47.2582,-294 47.2582,-288 47.2582,-288 47.2582,-20 47.2582,-20 47.2582,-14 53.2582,-8 59.2582,-8"/>
<text text-anchor="middle" x="368.258" y="-284.8" font-family="Times,serif" font-size="14.00">common.avdl</text>
</a>
</g>
</g>
<g id="clust3" class="cluster"><title>cluster_sequenceAnnotations_avdl</title>
<g id="a_clust3"><a xlink:href="https://github.com/ga4gh/schemas/blob/g2p/src/main/resources/avro/sequenceAnnotations.avdl" xlink:title="sequenceAnnotations.avdl">
<path fill="lightgrey" stroke="lightgrey" d="M350.258,-383C350.258,-383 890.258,-383 890.258,-383 896.258,-383 902.258,-389 902.258,-395 902.258,-395 902.258,-764 902.258,-764 902.258,-770 896.258,-776 890.258,-776 890.258,-776 350.258,-776 350.258,-776 344.258,-776 338.258,-770 338.258,-764 338.258,-764 338.258,-395 338.258,-395 338.258,-389 344.258,-383 350.258,-383"/>
<text text-anchor="middle" x="620.258" y="-760.8" font-family="Times,serif" font-size="14.00">sequenceAnnotations.avdl</text>
</a>
</g>
</g>
<g id="clust4" class="cluster"><title>cluster_metadata_avdl</title>
<g id="a_clust4"><a xlink:href="https://github.com/ga4gh/schemas/blob/g2p/src/main/resources/avro/metadata.avdl" xlink:title="metadata.avdl">
<path fill="lightgrey" stroke="lightgrey" d="M739.258,-90C739.258,-90 1334.26,-90 1334.26,-90 1340.26,-90 1346.26,-96 1346.26,-102 1346.26,-102 1346.26,-363 1346.26,-363 1346.26,-369 1340.26,-375 1334.26,-375 1334.26,-375 739.258,-375 739.258,-375 733.258,-375 727.258,-369 727.258,-363 727.258,-363 727.258,-102 727.258,-102 727.258,-96 733.258,-90 739.258,-90"/>
<text text-anchor="middle" x="1036.76" y="-359.8" font-family="Times,serif" font-size="14.00">metadata.avdl</text>
</a>
</g>
</g>
<!-- org_ga4gh_models_ExternalIdentifier -->
<g id="node1" class="node"><title>org_ga4gh_models_ExternalIdentifier</title>
<polygon fill="#002060" stroke="none" points="517.258,-177.5 517.258,-264.5 673.258,-264.5 673.258,-177.5 517.258,-177.5"/>
<polygon fill="#79a6ff" stroke="none" points="517.258,-227 517.258,-264 673.258,-264 673.258,-227 517.258,-227"/>
<polygon fill="none" stroke="#002060" stroke-width="3" points="518.758,-228.5 518.758,-262.5 671.758,-262.5 671.758,-228.5 518.758,-228.5"/>
<text text-anchor="start" x="524.758" y="-240.5" font-family="Times,serif" font-size="20.00" fill="white">ExternalIdentifier</text>
<polygon fill="none" stroke="#002060" points="517.258,-202 517.258,-227 600.258,-227 600.258,-202 517.258,-202"/>
<text text-anchor="start" x="522.258" y="-210.8" font-family="Times,serif" font-size="14.00" fill="white">&#45; database</text>
<polygon fill="none" stroke="#002060" points="600.258,-202 600.258,-227 673.258,-227 673.258,-202 600.258,-202"/>
<text text-anchor="start" x="605.258" y="-210.8" font-family="Times,serif" font-size="14.00" fill="white">&#45; version</text>
<polygon fill="none" stroke="#002060" points="517.258,-177 517.258,-202 600.258,-202 600.258,-177 517.258,-177"/>
<text text-anchor="start" x="522.258" y="-185.8" font-family="Times,serif" font-size="14.00" fill="white">&#45; identifier</text>
</g>
<!-- org_ga4gh_models_Evidence -->
<g id="node2" class="node"><title>org_ga4gh_models_Evidence</title>
<polygon fill="#002060" stroke="none" points="1176.76,-615 1176.76,-677 1351.76,-677 1351.76,-615 1176.76,-615"/>
<polygon fill="#79a6ff" stroke="none" points="1177.26,-640 1177.26,-677 1352.26,-677 1352.26,-640 1177.26,-640"/>
<polygon fill="none" stroke="#002060" stroke-width="3" points="1178.76,-641.5 1178.76,-675.5 1350.76,-675.5 1350.76,-641.5 1178.76,-641.5"/>
<text text-anchor="start" x="1227.76" y="-653.5" font-family="Times,serif" font-size="20.00" fill="white">Evidence</text>
<polygon fill="none" stroke="#002060" points="1177.26,-615 1177.26,-640 1273.26,-640 1273.26,-615 1177.26,-615"/>
<text text-anchor="start" x="1182.26" y="-623.8" font-family="Times,serif" font-size="14.00" fill="white">&#45; evidenceType</text>
<polygon fill="none" stroke="#002060" points="1273.26,-615 1273.26,-640 1352.26,-640 1352.26,-615 1273.26,-615"/>
<text text-anchor="start" x="1278.26" y="-623.8" font-family="Times,serif" font-size="14.00" fill="white">&#45; description</text>
</g>
<!-- org_ga4gh_models_OntologyTerm -->
<g id="node4" class="node"><title>org_ga4gh_models_OntologyTerm</title>
<polygon fill="#002060" stroke="none" points="1188.26,-177.5 1188.26,-264.5 1330.26,-264.5 1330.26,-177.5 1188.26,-177.5"/>
<polygon fill="#79a6ff" stroke="none" points="1188.26,-227 1188.26,-264 1330.26,-264 1330.26,-227 1188.26,-227"/>
<polygon fill="none" stroke="#002060" stroke-width="3" points="1189.76,-228.5 1189.76,-262.5 1328.76,-262.5 1328.76,-228.5 1189.76,-228.5"/>
<text text-anchor="start" x="1200.26" y="-240.5" font-family="Times,serif" font-size="20.00" fill="white">OntologyTerm</text>
<polygon fill="none" stroke="#002060" points="1188.26,-202 1188.26,-227 1233.26,-227 1233.26,-202 1188.26,-202"/>
<text text-anchor="start" x="1193.26" y="-210.8" font-family="Times,serif" font-size="14.00" fill="white">&#45; id</text>
<polygon fill="none" stroke="#002060" points="1233.26,-202 1233.26,-227 1330.26,-227 1330.26,-202 1233.26,-202"/>
<text text-anchor="start" x="1238.26" y="-210.8" font-family="Times,serif" font-size="14.00" fill="white">&#45; sourceName</text>
<polygon fill="none" stroke="#002060" points="1188.26,-177 1188.26,-202 1233.26,-202 1233.26,-177 1188.26,-177"/>
<text text-anchor="start" x="1193.26" y="-185.8" font-family="Times,serif" font-size="14.00" fill="white">&#45; term</text>
<polygon fill="none" stroke="#002060" points="1233.26,-177 1233.26,-202 1330.26,-202 1330.26,-177 1233.26,-177"/>
<text text-anchor="start" x="1238.26" y="-185.8" font-family="Times,serif" font-size="14.00" fill="white">&#45; sourceVersion</text>
</g>
<!-- org_ga4gh_models_Evidence&#45;&gt;org_ga4gh_models_OntologyTerm -->
<g id="edge9" class="edge"><title>org_ga4gh_models_Evidence:evidenceType:w&#45;&gt;org_ga4gh_models_OntologyTerm</title>
<path fill="none" stroke="#c55a11" stroke-width="2" d="M1168,-618.194C1155.68,-572.79 1216.06,-363.594 1244.78,-268.854"/>
<polygon fill="none" stroke="#c55a11" stroke-width="2" points="1168.05,-618.247 1175.07,-619.887 1176.26,-627 1169.24,-625.359 1168.05,-618.247"/>
</g>
<!-- org_ga4gh_models_Feature -->
<g id="node3" class="node"><title>org_ga4gh_models_Feature</title>
<polygon fill="#002060" stroke="none" points="546.258,-551 546.258,-741 886.258,-741 886.258,-551 546.258,-551"/>
<polygon fill="#79a6ff" stroke="none" points="546.258,-676 546.258,-741 886.258,-741 886.258,-676 546.258,-676"/>
<polygon fill="none" stroke="#002060" stroke-width="3" points="547.758,-677.5 547.758,-739.5 884.758,-739.5 884.758,-677.5 547.758,-677.5"/>
<text text-anchor="start" x="685.758" y="-718.5" font-family="Times,serif" font-size="20.00" fill="white">Feature</text>
<text text-anchor="start" x="553.758" y="-702.5" font-family="Times,serif" font-size="15.00" fill="white">Node in annotation graph that annotates a contiguous</text>
<text text-anchor="start" x="653.258" y="-687.5" font-family="Times,serif" font-size="15.00" fill="white">region of a sequence</text>
<polygon fill="none" stroke="#002060" points="546.258,-651 546.258,-676 725.258,-676 725.258,-651 546.258,-651"/>
<text text-anchor="start" x="551.258" y="-659.8" font-family="Times,serif" font-size="14.00" fill="white">&#45; id</text>
<polygon fill="none" stroke="#002060" points="725.258,-651 725.258,-676 886.258,-676 886.258,-651 725.258,-651"/>
<text text-anchor="start" x="730.258" y="-659.8" font-family="Times,serif" font-size="14.00" fill="white">&#45; start</text>
<polygon fill="none" stroke="#002060" points="546.258,-626 546.258,-651 725.258,-651 725.258,-626 546.258,-626"/>
<text text-anchor="start" x="551.258" y="-634.8" font-family="Times,serif" font-size="14.00" fill="white">&#45; parentId</text>
<polygon fill="none" stroke="#002060" points="725.258,-626 725.258,-651 886.258,-651 886.258,-626 725.258,-626"/>
<text text-anchor="start" x="730.258" y="-634.8" font-family="Times,serif" font-size="14.00" fill="white">&#45; end</text>
<polygon fill="none" stroke="#002060" points="546.258,-601 546.258,-626 725.258,-626 725.258,-601 546.258,-601"/>
<text text-anchor="start" x="551.258" y="-609.8" font-family="Times,serif" font-size="14.00" fill="white">&#45; childIds</text>
<polygon fill="none" stroke="#002060" points="725.258,-601 725.258,-626 886.258,-626 886.258,-601 725.258,-601"/>
<text text-anchor="start" x="730.258" y="-609.8" font-family="Times,serif" font-size="14.00" fill="white">&#45; strand</text>
<polygon fill="none" stroke="#002060" points="546.258,-576 546.258,-601 725.258,-601 725.258,-576 546.258,-576"/>
<text text-anchor="start" x="551.258" y="-584.8" font-family="Times,serif" font-size="14.00" fill="white">&#45; featureSetId</text>
<polygon fill="none" stroke="#002060" points="725.258,-576 725.258,-601 886.258,-601 886.258,-576 725.258,-576"/>
<text text-anchor="start" x="730.258" y="-584.8" font-family="Times,serif" font-size="14.00" fill="white">&#45; featureType</text>
<polygon fill="none" stroke="#002060" points="546.258,-551 546.258,-576 725.258,-576 725.258,-551 546.258,-551"/>
<text text-anchor="start" x="551.258" y="-559.8" font-family="Times,serif" font-size="14.00" fill="white">&#45; referenceName</text>
<polygon fill="none" stroke="#002060" points="725.258,-551 725.258,-576 886.258,-576 886.258,-551 725.258,-551"/>
<text text-anchor="start" x="730.258" y="-559.8" font-family="Times,serif" font-size="14.00" fill="white">&#45; attributes</text>
</g>
<!-- org_ga4gh_models_Feature&#45;&gt;org_ga4gh_models_OntologyTerm -->
<g id="edge13" class="edge"><title>org_ga4gh_models_Feature:featureType:w&#45;&gt;org_ga4gh_models_OntologyTerm</title>
<path fill="none" stroke="#c55a11" stroke-width="2" d="M713.247,-586.626C660.266,-582.511 829.105,-545.224 902.258,-511 1023.24,-454.399 1073.15,-466.706 1170.26,-375 1201.87,-345.146 1225.73,-301.551 1240.75,-268.526"/>
<polygon fill="none" stroke="#c55a11" stroke-width="2" points="713.264,-586.626 719.386,-582.815 725.258,-587 719.136,-590.811 713.264,-586.626"/>
</g>
<!-- org_ga4gh_models_Attributes -->
<g id="node6" class="node"><title>org_ga4gh_models_Attributes</title>
<polygon fill="#002060" stroke="none" points="564.258,-406 564.258,-496 886.258,-496 886.258,-406 564.258,-406"/>
<polygon fill="#79a6ff" stroke="none" points="564.258,-431 564.258,-496 886.258,-496 886.258,-431 564.258,-431"/>
<polygon fill="none" stroke="#002060" stroke-width="3" points="565.758,-432.5 565.758,-494.5 884.758,-494.5 884.758,-432.5 565.758,-432.5"/>
<text text-anchor="start" x="685.758" y="-473.5" font-family="Times,serif" font-size="20.00" fill="white">Attributes</text>
<text text-anchor="start" x="571.758" y="-457.5" font-family="Times,serif" font-size="15.00" fill="white">Attributes/values associated with various protocol</text>
<text text-anchor="start" x="702.258" y="-442.5" font-family="Times,serif" font-size="15.00" fill="white">records</text>
<polygon fill="none" stroke="#002060" points="564.258,-406 564.258,-431 746.258,-431 746.258,-406 564.258,-406"/>
<text text-anchor="start" x="569.258" y="-414.8" font-family="Times,serif" font-size="14.00" fill="white">&#45; vals</text>
</g>
<!-- org_ga4gh_models_Feature&#45;&gt;org_ga4gh_models_Attributes -->
<g id="edge7" class="edge"><title>org_ga4gh_models_Feature:attributes:w&#45;&gt;org_ga4gh_models_Attributes</title>
<path fill="none" stroke="#c55a11" stroke-width="2" d="M713.246,-558.834C699.812,-550.019 702.396,-524.262 708.542,-500.248"/>
<polygon fill="none" stroke="#c55a11" stroke-width="2" points="713.654,-558.942 720.476,-556.603 725.258,-562 718.437,-564.339 713.654,-558.942"/>
</g>
<!-- org_ga4gh_models_FeatureSet -->
<g id="node9" class="node"><title>org_ga4gh_models_FeatureSet</title>
<polygon fill="#002060" stroke="none" points="354.258,-395 354.258,-507 530.258,-507 530.258,-395 354.258,-395"/>
<polygon fill="#79a6ff" stroke="none" points="354.258,-470 354.258,-507 530.258,-507 530.258,-470 354.258,-470"/>
<polygon fill="none" stroke="#002060" stroke-width="3" points="355.758,-471.5 355.758,-505.5 528.758,-505.5 528.758,-471.5 355.758,-471.5"/>
<text text-anchor="start" x="399.258" y="-483.5" font-family="Times,serif" font-size="20.00" fill="white">FeatureSet</text>
<polygon fill="none" stroke="#002060" points="354.258,-445 354.258,-470 453.258,-470 453.258,-445 354.258,-445"/>
<text text-anchor="start" x="359.258" y="-453.8" font-family="Times,serif" font-size="14.00" fill="white">&#45; id</text>
<polygon fill="none" stroke="#002060" points="453.258,-445 453.258,-470 530.258,-470 530.258,-445 453.258,-445"/>
<text text-anchor="start" x="458.258" y="-453.8" font-family="Times,serif" font-size="14.00" fill="white">&#45; name</text>
<polygon fill="none" stroke="#002060" points="354.258,-420 354.258,-445 453.258,-445 453.258,-420 354.258,-420"/>
<text text-anchor="start" x="359.258" y="-428.8" font-family="Times,serif" font-size="14.00" fill="white">&#45; datasetId</text>
<polygon fill="none" stroke="#002060" points="453.258,-420 453.258,-445 530.258,-445 530.258,-420 453.258,-420"/>
<text text-anchor="start" x="458.258" y="-428.8" font-family="Times,serif" font-size="14.00" fill="white">&#45; sourceURI</text>
<polygon fill="none" stroke="#002060" points="354.258,-395 354.258,-420 453.258,-420 453.258,-395 354.258,-395"/>
<text text-anchor="start" x="359.258" y="-403.8" font-family="Times,serif" font-size="14.00" fill="white">&#45; referenceSetId</text>
<polygon fill="none" stroke="#002060" points="453.258,-395 453.258,-420 530.258,-420 530.258,-395 453.258,-395"/>
<text text-anchor="start" x="458.258" y="-403.8" font-family="Times,serif" font-size="14.00" fill="white">&#45; info</text>
</g>
<!-- org_ga4gh_models_Feature&#45;&gt;org_ga4gh_models_FeatureSet -->
<g id="edge20" class="edge"><title>org_ga4gh_models_Feature:featureSetId:w&#45;&gt;org_ga4gh_models_FeatureSet:id:w</title>
<path fill="none" stroke="darkgreen" stroke-width="2" stroke-dasharray="5,2" d="M545.258,-588C453.731,-588 406.182,-586.374 354.258,-511 343.399,-495.236 333.973,-470.1 343.457,-461.229"/>
<polygon fill="darkgreen" stroke="darkgreen" stroke-width="2" points="353.258,-458 345.168,-465.403 348.666,-460.039 343.917,-461.603 343.76,-461.129 343.604,-460.654 348.353,-459.089 342.352,-456.854 353.258,-458 353.258,-458"/>
</g>
<!-- org_ga4gh_models_Strand -->
<g id="node11" class="node"><title>org_ga4gh_models_Strand</title>
<polygon fill="#002060" stroke="none" points="73.7582,-20.5 73.7582,-57.5 140.758,-57.5 140.758,-20.5 73.7582,-20.5"/>
<polygon fill="#79a6ff" stroke="none" points="74.2582,-20 74.2582,-57 141.258,-57 141.258,-20 74.2582,-20"/>
<polygon fill="none" stroke="#002060" stroke-width="3" points="75.7582,-21.5 75.7582,-55.5 139.758,-55.5 139.758,-21.5 75.7582,-21.5"/>
<text text-anchor="start" x="81.7582" y="-33.5" font-family="Times,serif" font-size="20.00" fill="white">Strand</text>
</g>
<!-- org_ga4gh_models_Feature&#45;&gt;org_ga4gh_models_Strand -->
<g id="edge6" class="edge"><title>org_ga4gh_models_Feature:strand:w&#45;&gt;org_ga4gh_models_Strand</title>
<path fill="none" stroke="#c55a11" stroke-width="2" d="M713.073,-611.818C544.488,-606.992 129.975,-506.533 46.2582,-375 -21.7539,-268.141 -7.93323,-204.489 46.2582,-90 51.5893,-78.7371 60.8382,-69.1635 70.5459,-61.5014"/>
<polygon fill="none" stroke="#c55a11" stroke-width="2" points="713.26,-611.821 719.319,-607.911 725.258,-612 719.199,-615.91 713.26,-611.821"/>
</g>
<!-- org_ga4gh_models_Dataset -->
<g id="node5" class="node"><title>org_ga4gh_models_Dataset</title>
<polygon fill="#002060" stroke="none" points="1024.76,-177.5 1024.76,-264.5 1153.76,-264.5 1153.76,-177.5 1024.76,-177.5"/>
<polygon fill="#79a6ff" stroke="none" points="1025.26,-227 1025.26,-264 1154.26,-264 1154.26,-227 1025.26,-227"/>
<polygon fill="none" stroke="#002060" stroke-width="3" points="1026.76,-228.5 1026.76,-262.5 1152.76,-262.5 1152.76,-228.5 1026.76,-228.5"/>
<text text-anchor="start" x="1059.76" y="-240.5" font-family="Times,serif" font-size="20.00" fill="white">Dataset</text>
<polygon fill="none" stroke="#002060" points="1025.26,-202 1025.26,-227 1075.26,-227 1075.26,-202 1025.26,-202"/>
<text text-anchor="start" x="1030.26" y="-210.8" font-family="Times,serif" font-size="14.00" fill="white">&#45; id</text>
<polygon fill="none" stroke="#002060" points="1075.26,-202 1075.26,-227 1154.26,-227 1154.26,-202 1075.26,-202"/>
<text text-anchor="start" x="1080.26" y="-210.8" font-family="Times,serif" font-size="14.00" fill="white">&#45; description</text>
<polygon fill="none" stroke="#002060" points="1025.26,-177 1025.26,-202 1075.26,-202 1075.26,-177 1025.26,-177"/>
<text text-anchor="start" x="1030.26" y="-185.8" font-family="Times,serif" font-size="14.00" fill="white">&#45; name</text>
</g>
<!-- org_ga4gh_models_Attributes&#45;&gt;org_ga4gh_models_ExternalIdentifier -->
<g id="edge16" class="edge"><title>org_ga4gh_models_Attributes:vals:w&#45;&gt;org_ga4gh_models_ExternalIdentifier</title>
<path fill="none" stroke="#c55a11" stroke-width="2" d="M552.849,-411.502C541.277,-389.678 562.091,-317.645 578.447,-268.947"/>
<polygon fill="none" stroke="#c55a11" stroke-width="2" points="553.079,-411.646 560.287,-411.43 563.258,-418 556.05,-418.216 553.079,-411.646"/>
</g>
<!-- org_ga4gh_models_Attributes&#45;&gt;org_ga4gh_models_OntologyTerm -->
<g id="edge3" class="edge"><title>org_ga4gh_models_Attributes:vals:w&#45;&gt;org_ga4gh_models_OntologyTerm</title>
<path fill="none" stroke="#c55a11" stroke-width="2" d="M561.306,-405.968C562.137,-404.477 563.149,-403.095 564.258,-402 594.094,-372.522 899.354,-384.788 941.258,-383 953.977,-382.457 1159.34,-381.539 1170.26,-375 1209.15,-351.718 1232.77,-304.473 1245.81,-268.607"/>
<polygon fill="none" stroke="#c55a11" stroke-width="2" points="561.337,-406.155 566.246,-411.437 563.258,-418 558.349,-412.718 561.337,-406.155"/>
</g>
<!-- org_ga4gh_models_FeaturePhenotypeAssociation -->
<g id="node7" class="node"><title>org_ga4gh_models_FeaturePhenotypeAssociation</title>
<polygon fill="#002060" stroke="none" points="1264.26,-788.5 1264.26,-925.5 1578.26,-925.5 1578.26,-788.5 1264.26,-788.5"/>
<polygon fill="#79a6ff" stroke="none" points="1264.26,-888 1264.26,-925 1578.26,-925 1578.26,-888 1264.26,-888"/>
<polygon fill="none" stroke="#002060" stroke-width="3" points="1265.76,-889.5 1265.76,-923.5 1576.76,-923.5 1576.76,-889.5 1265.76,-889.5"/>
<text text-anchor="start" x="1303.26" y="-901.5" font-family="Times,serif" font-size="20.00" fill="white">FeaturePhenotypeAssociation</text>
<polygon fill="none" stroke="#002060" points="1264.26,-863 1264.26,-888 1432.26,-888 1432.26,-863 1264.26,-863"/>
<text text-anchor="start" x="1269.26" y="-871.8" font-family="Times,serif" font-size="14.00" fill="white">&#45; id</text>
<polygon fill="none" stroke="#002060" points="1432.26,-863 1432.26,-888 1578.26,-888 1578.26,-863 1432.26,-863"/>
<text text-anchor="start" x="1437.26" y="-871.8" font-family="Times,serif" font-size="14.00" fill="white">&#45; phenotype</text>
<polygon fill="none" stroke="#002060" points="1264.26,-838 1264.26,-863 1432.26,-863 1432.26,-838 1264.26,-838"/>
<text text-anchor="start" x="1269.26" y="-846.8" font-family="Times,serif" font-size="14.00" fill="white">&#45; phenotypeAssociationSetId</text>
<polygon fill="none" stroke="#002060" points="1432.26,-838 1432.26,-863 1578.26,-863 1578.26,-838 1432.26,-838"/>
<text text-anchor="start" x="1437.26" y="-846.8" font-family="Times,serif" font-size="14.00" fill="white">&#45; description</text>
<polygon fill="none" stroke="#002060" points="1264.26,-813 1264.26,-838 1432.26,-838 1432.26,-813 1264.26,-813"/>
<text text-anchor="start" x="1269.26" y="-821.8" font-family="Times,serif" font-size="14.00" fill="white">&#45; features</text>
<polygon fill="none" stroke="#002060" points="1432.26,-813 1432.26,-838 1578.26,-838 1578.26,-813 1432.26,-813"/>
<text text-anchor="start" x="1437.26" y="-821.8" font-family="Times,serif" font-size="14.00" fill="white">&#45; environmentalContexts</text>
<polygon fill="none" stroke="#002060" points="1264.26,-788 1264.26,-813 1432.26,-813 1432.26,-788 1264.26,-788"/>
<text text-anchor="start" x="1269.26" y="-796.8" font-family="Times,serif" font-size="14.00" fill="white">&#45; evidence</text>
</g>
<!-- org_ga4gh_models_FeaturePhenotypeAssociation&#45;&gt;org_ga4gh_models_Evidence -->
<g id="edge2" class="edge"><title>org_ga4gh_models_FeaturePhenotypeAssociation:evidence:w&#45;&gt;org_ga4gh_models_Evidence</title>
<path fill="none" stroke="#c55a11" stroke-width="2" d="M1251.27,-797.991C1219.74,-785.905 1236.38,-722.04 1250.73,-681.336"/>
<polygon fill="none" stroke="#c55a11" stroke-width="2" points="1251.42,-798.017 1258,-795.063 1263.26,-800 1256.68,-802.953 1251.42,-798.017"/>
</g>
<!-- org_ga4gh_models_FeaturePhenotypeAssociation&#45;&gt;org_ga4gh_models_Feature -->
<g id="edge1" class="edge"><title>org_ga4gh_models_FeaturePhenotypeAssociation:features:w&#45;&gt;org_ga4gh_models_Feature</title>
<path fill="none" stroke="#c55a11" stroke-width="2" d="M1251.22,-824.867C1164.51,-823.078 977.515,-803.346 906.258,-776 885.134,-767.893 864.038,-757.041 843.997,-745.06"/>
<polygon fill="none" stroke="#c55a11" stroke-width="2" points="1251.26,-824.868 1257.3,-820.934 1263.26,-825 1257.21,-828.934 1251.26,-824.868"/>
</g>
<!-- org_ga4gh_models_PhenotypeAssociationSet -->
<g id="node8" class="node"><title>org_ga4gh_models_PhenotypeAssociationSet</title>
<polygon fill="#002060" stroke="none" points="925.758,-602.5 925.758,-689.5 1142.76,-689.5 1142.76,-602.5 925.758,-602.5"/>
<polygon fill="#79a6ff" stroke="none" points="926.258,-652 926.258,-689 1143.26,-689 1143.26,-652 926.258,-652"/>
<polygon fill="none" stroke="#002060" stroke-width="3" points="927.758,-653.5 927.758,-687.5 1141.76,-687.5 1141.76,-653.5 927.758,-653.5"/>
<text text-anchor="start" x="933.758" y="-665.5" font-family="Times,serif" font-size="20.00" fill="white">PhenotypeAssociationSet</text>
<polygon fill="none" stroke="#002060" points="926.258,-627 926.258,-652 1025.26,-652 1025.26,-627 926.258,-627"/>
<text text-anchor="start" x="931.258" y="-635.8" font-family="Times,serif" font-size="14.00" fill="white">&#45; id</text>
<polygon fill="none" stroke="#002060" points="1025.26,-627 1025.26,-652 1143.26,-652 1143.26,-627 1025.26,-627"/>
<text text-anchor="start" x="1030.26" y="-635.8" font-family="Times,serif" font-size="14.00" fill="white">&#45; datasetId</text>
<polygon fill="none" stroke="#002060" points="926.258,-602 926.258,-627 1025.26,-627 1025.26,-602 926.258,-602"/>
<text text-anchor="start" x="931.258" y="-610.8" font-family="Times,serif" font-size="14.00" fill="white">&#45; name</text>
<polygon fill="none" stroke="#002060" points="1025.26,-602 1025.26,-627 1143.26,-627 1143.26,-602 1025.26,-602"/>
<text text-anchor="start" x="1030.26" y="-610.8" font-family="Times,serif" font-size="14.00" fill="white">&#45; info</text>
</g>
<!-- org_ga4gh_models_FeaturePhenotypeAssociation&#45;&gt;org_ga4gh_models_PhenotypeAssociationSet -->
<g id="edge17" class="edge"><title>org_ga4gh_models_FeaturePhenotypeAssociation:phenotypeAssociationSetId:w&#45;&gt;org_ga4gh_models_PhenotypeAssociationSet:id:w</title>
<path fill="none" stroke="darkgreen" stroke-width="2" stroke-dasharray="5,2" d="M1263.26,-850C1098.21,-850 1016.39,-832.261 926.258,-694 915.306,-677.199 905.198,-650.952 915.414,-642.062"/>
<polygon fill="darkgreen" stroke="darkgreen" stroke-width="2" points="925.258,-639 917.046,-646.267 920.632,-640.962 915.858,-642.448 915.709,-641.97 915.561,-641.493 920.335,-640.008 914.373,-637.673 925.258,-639 925.258,-639"/>
</g>
<!-- org_ga4gh_models_PhenotypeInstance -->
<g id="node12" class="node"><title>org_ga4gh_models_PhenotypeInstance</title>
<polygon fill="#002060" stroke="none" points="1616.76,-590 1616.76,-702 1781.76,-702 1781.76,-590 1616.76,-590"/>
<polygon fill="#79a6ff" stroke="none" points="1617.26,-665 1617.26,-702 1782.26,-702 1782.26,-665 1617.26,-665"/>
<polygon fill="none" stroke="#002060" stroke-width="3" points="1618.76,-666.5 1618.76,-700.5 1780.76,-700.5 1780.76,-666.5 1618.76,-666.5"/>
<text text-anchor="start" x="1624.76" y="-678.5" font-family="Times,serif" font-size="20.00" fill="white">PhenotypeInstance</text>
<polygon fill="none" stroke="#002060" points="1617.26,-640 1617.26,-665 1691.26,-665 1691.26,-640 1617.26,-640"/>
<text text-anchor="start" x="1622.26" y="-648.8" font-family="Times,serif" font-size="14.00" fill="white">&#45; id</text>
<polygon fill="none" stroke="#002060" points="1691.26,-640 1691.26,-665 1782.26,-665 1782.26,-640 1691.26,-640"/>
<text text-anchor="start" x="1696.26" y="-648.8" font-family="Times,serif" font-size="14.00" fill="white">&#45; ageOfOnset</text>
<polygon fill="none" stroke="#002060" points="1617.26,-615 1617.26,-640 1691.26,-640 1691.26,-615 1617.26,-615"/>
<text text-anchor="start" x="1622.26" y="-623.8" font-family="Times,serif" font-size="14.00" fill="white">&#45; type</text>
<polygon fill="none" stroke="#002060" points="1691.26,-615 1691.26,-640 1782.26,-640 1782.26,-615 1691.26,-615"/>
<text text-anchor="start" x="1696.26" y="-623.8" font-family="Times,serif" font-size="14.00" fill="white">&#45; description</text>
<polygon fill="none" stroke="#002060" points="1617.26,-590 1617.26,-615 1691.26,-615 1691.26,-590 1617.26,-590"/>
<text text-anchor="start" x="1622.26" y="-598.8" font-family="Times,serif" font-size="14.00" fill="white">&#45; qualifier</text>
</g>
<!-- org_ga4gh_models_FeaturePhenotypeAssociation&#45;&gt;org_ga4gh_models_PhenotypeInstance -->
<g id="edge11" class="edge"><title>org_ga4gh_models_FeaturePhenotypeAssociation:phenotype:w&#45;&gt;org_ga4gh_models_PhenotypeInstance</title>
<path fill="none" stroke="#c55a11" stroke-width="2" d="M1420.22,-874.599C1367.2,-870.171 1537.45,-829.565 1598.26,-776 1621.31,-755.695 1642.89,-729.563 1660.13,-706.134"/>
<polygon fill="none" stroke="#c55a11" stroke-width="2" points="1420.26,-874.6 1426.39,-870.802 1432.26,-875 1426.13,-878.798 1420.26,-874.6"/>
</g>
<!-- org_ga4gh_models_EnvironmentalContext -->
<g id="node16" class="node"><title>org_ga4gh_models_EnvironmentalContext</title>
<polygon fill="#002060" stroke="none" points="1386.26,-602.5 1386.26,-689.5 1582.26,-689.5 1582.26,-602.5 1386.26,-602.5"/>
<polygon fill="#79a6ff" stroke="none" points="1386.26,-652 1386.26,-689 1582.26,-689 1582.26,-652 1386.26,-652"/>
<polygon fill="none" stroke="#002060" stroke-width="3" points="1387.76,-653.5 1387.76,-687.5 1580.76,-687.5 1580.76,-653.5 1387.76,-653.5"/>
<text text-anchor="start" x="1394.26" y="-665.5" font-family="Times,serif" font-size="20.00" fill="white">EnvironmentalContext</text>
<polygon fill="none" stroke="#002060" points="1386.26,-627 1386.26,-652 1503.26,-652 1503.26,-627 1386.26,-627"/>
<text text-anchor="start" x="1391.26" y="-635.8" font-family="Times,serif" font-size="14.00" fill="white">&#45; id</text>
<polygon fill="none" stroke="#002060" points="1503.26,-627 1503.26,-652 1582.26,-652 1582.26,-627 1503.26,-627"/>
<text text-anchor="start" x="1508.26" y="-635.8" font-family="Times,serif" font-size="14.00" fill="white">&#45; description</text>
<polygon fill="none" stroke="#002060" points="1386.26,-602 1386.26,-627 1503.26,-627 1503.26,-602 1386.26,-602"/>
<text text-anchor="start" x="1391.26" y="-610.8" font-family="Times,serif" font-size="14.00" fill="white">&#45; environmentType</text>
</g>
<!-- org_ga4gh_models_FeaturePhenotypeAssociation&#45;&gt;org_ga4gh_models_EnvironmentalContext -->
<g id="edge8" class="edge"><title>org_ga4gh_models_FeaturePhenotypeAssociation:environmentalContexts:w&#45;&gt;org_ga4gh_models_EnvironmentalContext</title>
<path fill="none" stroke="#c55a11" stroke-width="2" d="M1420.27,-822.336C1384.77,-810.774 1421.49,-741.44 1452.16,-693.505"/>
<polygon fill="none" stroke="#c55a11" stroke-width="2" points="1420.37,-822.351 1426.86,-819.213 1432.26,-824 1425.77,-827.138 1420.37,-822.351"/>
</g>
<!-- org_ga4gh_models_PhenotypeAssociationSet&#45;&gt;org_ga4gh_models_Dataset -->
<g id="edge19" class="edge"><title>org_ga4gh_models_PhenotypeAssociationSet:datasetId:w&#45;&gt;org_ga4gh_models_Dataset:id:w</title>
<path fill="none" stroke="darkgreen" stroke-width="2" stroke-dasharray="5,2" d="M1025.26,-638C1003.68,-638 1001.03,-282.228 1018.84,-222.47"/>
<polygon fill="darkgreen" stroke="darkgreen" stroke-width="2" points="1024.26,-214 1022.66,-224.849 1021.99,-218.482 1019.29,-222.694 1018.87,-222.425 1018.45,-222.155 1021.14,-217.943 1015.08,-220 1024.26,-214 1024.26,-214"/>
</g>
<!-- org_ga4gh_models_FeatureSet&#45;&gt;org_ga4gh_models_Dataset -->
<g id="edge18" class="edge"><title>org_ga4gh_models_FeatureSet:datasetId:w&#45;&gt;org_ga4gh_models_Dataset:id:w</title>
<path fill="none" stroke="darkgreen" stroke-width="2" stroke-dasharray="5,2" d="M353.258,-432C335.031,-432 341.48,-403.998 354.258,-391 384.352,-360.389 504.351,-384.262 547.258,-383 560.032,-382.624 997.834,-383.631 1007.26,-375 1030.89,-353.359 997.375,-242.559 1015.18,-218.58"/>
<polygon fill="darkgreen" stroke="darkgreen" stroke-width="2" points="1024.26,-214 1017.36,-222.521 1020.02,-216.698 1015.55,-218.95 1015.33,-218.503 1015.1,-218.057 1019.57,-215.805 1013.3,-214.485 1024.26,-214 1024.26,-214"/>
</g>
<!-- org_ga4gh_models_CigarUnit -->
<g id="node10" class="node"><title>org_ga4gh_models_CigarUnit</title>
<polygon fill="#002060" stroke="none" points="253.258,-177.5 253.258,-264.5 483.258,-264.5 483.258,-177.5 253.258,-177.5"/>
<polygon fill="#79a6ff" stroke="none" points="253.258,-227 253.258,-264 483.258,-264 483.258,-227 253.258,-227"/>
<polygon fill="none" stroke="#002060" stroke-width="3" points="254.758,-228.5 254.758,-262.5 481.758,-262.5 481.758,-228.5 254.758,-228.5"/>
<text text-anchor="start" x="328.758" y="-240.5" font-family="Times,serif" font-size="20.00" fill="white">CigarUnit</text>
<polygon fill="none" stroke="#002060" points="253.258,-202 253.258,-227 362.258,-227 362.258,-202 253.258,-202"/>
<text text-anchor="start" x="258.258" y="-210.8" font-family="Times,serif" font-size="14.00" fill="white">&#45; operation</text>
<polygon fill="none" stroke="#002060" points="362.258,-202 362.258,-227 483.258,-227 483.258,-202 362.258,-202"/>
<text text-anchor="start" x="367.258" y="-210.8" font-family="Times,serif" font-size="14.00" fill="white">&#45; referenceSequence</text>
<polygon fill="none" stroke="#002060" points="253.258,-177 253.258,-202 362.258,-202 362.258,-177 253.258,-177"/>
<text text-anchor="start" x="258.258" y="-185.8" font-family="Times,serif" font-size="14.00" fill="white">&#45; operationLength</text>
</g>
<!-- org_ga4gh_models_CigarOperation -->
<g id="node14" class="node"><title>org_ga4gh_models_CigarOperation</title>
<polygon fill="#002060" stroke="none" points="183.758,-20.5 183.758,-57.5 322.758,-57.5 322.758,-20.5 183.758,-20.5"/>
<polygon fill="#79a6ff" stroke="none" points="184.258,-20 184.258,-57 323.258,-57 323.258,-20 184.258,-20"/>
<polygon fill="none" stroke="#002060" stroke-width="3" points="185.758,-21.5 185.758,-55.5 321.758,-55.5 321.758,-21.5 185.758,-21.5"/>
<text text-anchor="start" x="191.758" y="-33.5" font-family="Times,serif" font-size="20.00" fill="white">CigarOperation</text>
</g>
<!-- org_ga4gh_models_CigarUnit&#45;&gt;org_ga4gh_models_CigarOperation -->
<g id="edge15" class="edge"><title>org_ga4gh_models_CigarUnit:operation:w&#45;&gt;org_ga4gh_models_CigarOperation</title>
<path fill="none" stroke="#c55a11" stroke-width="2" d="M241.801,-207.554C227.12,-183.93 240.925,-101.405 248.73,-61.6854"/>
<polygon fill="none" stroke="#c55a11" stroke-width="2" points="242.043,-207.703 249.25,-207.446 252.258,-214 245.052,-214.256 242.043,-207.703"/>
</g>
<!-- org_ga4gh_models_PhenotypeInstance&#45;&gt;org_ga4gh_models_OntologyTerm -->
<g id="edge4" class="edge"><title>org_ga4gh_models_PhenotypeInstance:type:w&#45;&gt;org_ga4gh_models_OntologyTerm</title>
<path fill="none" stroke="#c55a11" stroke-width="2" d="M1604.44,-624.012C1589.49,-612.993 1613.77,-573.881 1598.26,-547 1586.47,-526.568 1576.42,-527.184 1559.26,-511 1469.42,-426.281 1365.96,-326.006 1307.02,-268.616"/>
<polygon fill="none" stroke="#c55a11" stroke-width="2" points="1604.62,-624.058 1611.42,-621.651 1616.26,-627 1609.46,-629.407 1604.62,-624.058"/>
</g>
<!-- org_ga4gh_models_PhenotypeInstance&#45;&gt;org_ga4gh_models_OntologyTerm -->
<g id="edge10" class="edge"><title>org_ga4gh_models_PhenotypeInstance:qualifier:w&#45;&gt;org_ga4gh_models_OntologyTerm</title>
<path fill="none" stroke="#c55a11" stroke-width="2" d="M1604.9,-597.9C1597.06,-588.627 1606.29,-565.417 1598.26,-547 1564.92,-470.598 1564.13,-443.947 1507.26,-383 1458.93,-331.206 1390.64,-288.467 1337.95,-260.072"/>
<polygon fill="none" stroke="#c55a11" stroke-width="2" points="1604.97,-597.925 1611.97,-596.2 1616.26,-602 1609.26,-603.725 1604.97,-597.925"/>
</g>
<!-- org_ga4gh_models_PhenotypeInstance&#45;&gt;org_ga4gh_models_OntologyTerm -->
<g id="edge12" class="edge"><title>org_ga4gh_models_PhenotypeInstance:ageOfOnset:w&#45;&gt;org_ga4gh_models_OntologyTerm</title>
<path fill="none" stroke="#c55a11" stroke-width="2" d="M1679.06,-651.469C1563.69,-640.925 1647.93,-475.84 1558.26,-383 1496.51,-319.071 1403.81,-274.605 1338.01,-248.847"/>
<polygon fill="none" stroke="#c55a11" stroke-width="2" points="1679.27,-651.478 1685.44,-647.743 1691.26,-652 1685.09,-655.735 1679.27,-651.478"/>
</g>
<!-- org_ga4gh_models_Position -->
<g id="node13" class="node"><title>org_ga4gh_models_Position</title>
<polygon fill="#002060" stroke="none" points="63.7582,-177.5 63.7582,-264.5 218.758,-264.5 218.758,-177.5 63.7582,-177.5"/>
<polygon fill="#79a6ff" stroke="none" points="64.2582,-227 64.2582,-264 219.258,-264 219.258,-227 64.2582,-227"/>
<polygon fill="none" stroke="#002060" stroke-width="3" points="65.7582,-228.5 65.7582,-262.5 217.758,-262.5 217.758,-228.5 65.7582,-228.5"/>
<text text-anchor="start" x="109.758" y="-240.5" font-family="Times,serif" font-size="20.00" fill="white">Position</text>
<polygon fill="none" stroke="#002060" points="64.2582,-202 64.2582,-227 167.258,-227 167.258,-202 64.2582,-202"/>
<text text-anchor="start" x="69.2582" y="-210.8" font-family="Times,serif" font-size="14.00" fill="white">&#45; referenceName</text>
<polygon fill="none" stroke="#002060" points="167.258,-202 167.258,-227 219.258,-227 219.258,-202 167.258,-202"/>
<text text-anchor="start" x="172.258" y="-210.8" font-family="Times,serif" font-size="14.00" fill="white">&#45; strand</text>
<polygon fill="none" stroke="#002060" points="64.2582,-177 64.2582,-202 167.258,-202 167.258,-177 64.2582,-177"/>
<text text-anchor="start" x="69.2582" y="-185.8" font-family="Times,serif" font-size="14.00" fill="white">&#45; position</text>
</g>
<!-- org_ga4gh_models_Position&#45;&gt;org_ga4gh_models_Strand -->
<g id="edge5" class="edge"><title>org_ga4gh_models_Position:strand:w&#45;&gt;org_ga4gh_models_Strand</title>
<path fill="none" stroke="#c55a11" stroke-width="2" d="M155.108,-211.579C103.716,-198.91 103.006,-104.766 105.468,-61.5608"/>
<polygon fill="none" stroke="#c55a11" stroke-width="2" points="155.339,-211.606 161.763,-208.33 167.258,-213 160.834,-216.276 155.339,-211.606"/>
</g>
<!-- org_ga4gh_models_Experiment -->
<g id="node15" class="node"><title>org_ga4gh_models_Experiment</title>
<polygon fill="#002060" stroke="none" points="743.758,-102.5 743.758,-339.5 990.758,-339.5 990.758,-102.5 743.758,-102.5"/>
<polygon fill="#79a6ff" stroke="none" points="744.258,-302 744.258,-339 991.258,-339 991.258,-302 744.258,-302"/>
<polygon fill="none" stroke="#002060" stroke-width="3" points="745.758,-303.5 745.758,-337.5 989.758,-337.5 989.758,-303.5 745.758,-303.5"/>
<text text-anchor="start" x="821.258" y="-315.5" font-family="Times,serif" font-size="20.00" fill="white">Experiment</text>
<polygon fill="none" stroke="#002060" points="744.258,-277 744.258,-302 867.258,-302 867.258,-277 744.258,-277"/>
<text text-anchor="start" x="749.258" y="-285.8" font-family="Times,serif" font-size="14.00" fill="white">&#45; id</text>
<polygon fill="none" stroke="#002060" points="867.258,-277 867.258,-302 991.258,-302 991.258,-277 867.258,-277"/>
<text text-anchor="start" x="872.258" y="-285.8" font-family="Times,serif" font-size="14.00" fill="white">&#45; selection</text>
<polygon fill="none" stroke="#002060" points="744.258,-252 744.258,-277 867.258,-277 867.258,-252 744.258,-252"/>
<text text-anchor="start" x="749.258" y="-260.8" font-family="Times,serif" font-size="14.00" fill="white">&#45; name</text>
<polygon fill="none" stroke="#002060" points="867.258,-252 867.258,-277 991.258,-277 991.258,-252 867.258,-252"/>
<text text-anchor="start" x="872.258" y="-260.8" font-family="Times,serif" font-size="14.00" fill="white">&#45; library</text>
<polygon fill="none" stroke="#002060" points="744.258,-227 744.258,-252 867.258,-252 867.258,-227 744.258,-227"/>
<text text-anchor="start" x="749.258" y="-235.8" font-family="Times,serif" font-size="14.00" fill="white">&#45; description</text>
<polygon fill="none" stroke="#002060" points="867.258,-227 867.258,-252 991.258,-252 991.258,-227 867.258,-227"/>
<text text-anchor="start" x="872.258" y="-235.8" font-family="Times,serif" font-size="14.00" fill="white">&#45; libraryLayout</text>
<polygon fill="none" stroke="#002060" points="744.258,-202 744.258,-227 867.258,-227 867.258,-202 744.258,-202"/>
<text text-anchor="start" x="749.258" y="-210.8" font-family="Times,serif" font-size="14.00" fill="white">&#45; recordCreateTime</text>
<polygon fill="none" stroke="#002060" points="867.258,-202 867.258,-227 991.258,-227 991.258,-202 867.258,-202"/>
<text text-anchor="start" x="872.258" y="-210.8" font-family="Times,serif" font-size="14.00" fill="white">&#45; instrumentModel</text>
<polygon fill="none" stroke="#002060" points="744.258,-177 744.258,-202 867.258,-202 867.258,-177 744.258,-177"/>
<text text-anchor="start" x="749.258" y="-185.8" font-family="Times,serif" font-size="14.00" fill="white">&#45; recordUpdateTime</text>
<polygon fill="none" stroke="#002060" points="867.258,-177 867.258,-202 991.258,-202 991.258,-177 867.258,-177"/>
<text text-anchor="start" x="872.258" y="-185.8" font-family="Times,serif" font-size="14.00" fill="white">&#45; instrumentDataFile</text>
<polygon fill="none" stroke="#002060" points="744.258,-152 744.258,-177 867.258,-177 867.258,-152 744.258,-152"/>
<text text-anchor="start" x="749.258" y="-160.8" font-family="Times,serif" font-size="14.00" fill="white">&#45; runTime</text>
<polygon fill="none" stroke="#002060" points="867.258,-152 867.258,-177 991.258,-177 991.258,-152 867.258,-152"/>
<text text-anchor="start" x="872.258" y="-160.8" font-family="Times,serif" font-size="14.00" fill="white">&#45; sequencingCenter</text>
<polygon fill="none" stroke="#002060" points="744.258,-127 744.258,-152 867.258,-152 867.258,-127 744.258,-127"/>
<text text-anchor="start" x="749.258" y="-135.8" font-family="Times,serif" font-size="14.00" fill="white">&#45; molecule</text>
<polygon fill="none" stroke="#002060" points="867.258,-127 867.258,-152 991.258,-152 991.258,-127 867.258,-127"/>
<text text-anchor="start" x="872.258" y="-135.8" font-family="Times,serif" font-size="14.00" fill="white">&#45; platformUnit</text>
<polygon fill="none" stroke="#002060" points="744.258,-102 744.258,-127 867.258,-127 867.258,-102 744.258,-102"/>
<text text-anchor="start" x="749.258" y="-110.8" font-family="Times,serif" font-size="14.00" fill="white">&#45; strategy</text>
<polygon fill="none" stroke="#002060" points="867.258,-102 867.258,-127 991.258,-127 991.258,-102 867.258,-102"/>
<text text-anchor="start" x="872.258" y="-110.8" font-family="Times,serif" font-size="14.00" fill="white">&#45; info</text>
</g>
<!-- org_ga4gh_models_EnvironmentalContext&#45;&gt;org_ga4gh_models_OntologyTerm -->
<g id="edge14" class="edge"><title>org_ga4gh_models_EnvironmentalContext:environmentType:w&#45;&gt;org_ga4gh_models_OntologyTerm</title>
<path fill="none" stroke="#c55a11" stroke-width="2" d="M1373.35,-610.629C1361.58,-600.774 1375.37,-571.177 1368.26,-547 1338.83,-446.942 1298.61,-331.571 1276.17,-268.743"/>
<polygon fill="none" stroke="#c55a11" stroke-width="2" points="1373.71,-610.731 1380.57,-608.517 1385.26,-614 1378.4,-616.214 1373.71,-610.731"/>
</g>
</g>
</svg>
